<svg width="40" height="17" viewBox="0 0 40 17" fill="none" xmlns="http://www.w3.org/2000/svg">
<path d="M3.50033 16C3.05101 16 2.65242 15.8188 2.30457 15.4565C1.9712 15.0941 1.68856 14.6158 1.45666 14.0216C1.23925 13.4273 1.05807 12.7751 0.91313 12.0648C0.782682 11.3546 0.688471 10.6444 0.630494 9.93421C0.572518 9.2095 0.543529 8.55727 0.543529 7.9775C0.543529 7.2383 0.601506 6.45562 0.717459 5.62946C0.833412 4.80329 1.03633 4.02786 1.32621 3.30315C1.61609 2.56395 2.01468 1.96244 2.52198 1.49863C3.02927 1.03482 3.68151 0.802915 4.47868 0.802915C5.02946 0.802915 5.50777 0.984092 5.9136 1.34645C6.33393 1.6943 6.71078 2.1871 7.04414 2.82485C7.37751 3.44809 7.69638 4.16555 8.00075 4.97722C8.30513 5.78889 8.63125 6.65129 8.97911 7.56442C8.92113 6.31793 8.95737 5.18739 9.08781 4.1728C9.23275 3.14372 9.52264 2.3248 9.95746 1.71605C10.3923 1.10729 11.0083 0.802915 11.8055 0.802915C12.4867 0.802915 13.0302 1.03482 13.436 1.49863C13.8564 1.96244 14.1752 2.56395 14.3927 3.30315C14.6101 4.02786 14.755 4.80329 14.8275 5.62946C14.9144 6.45562 14.9579 7.2383 14.9579 7.9775C14.9579 8.57176 14.9144 9.224 14.8275 9.93421C14.7405 10.6444 14.5956 11.3546 14.3927 12.0648C14.1897 12.7751 13.9144 13.4273 13.5665 14.0216C13.2186 14.6158 12.7911 15.0941 12.2838 15.4565C11.791 15.8188 11.1967 16 10.501 16C9.87774 16 9.34146 15.8043 8.89214 15.413C8.45732 15.0072 8.06598 14.4781 7.71812 13.8259C7.38475 13.1592 7.07313 12.4272 6.78325 11.63C6.49337 10.8328 6.18899 10.0357 5.87012 9.23849C5.88461 10.2386 5.88461 11.159 5.87012 11.9996C5.85562 12.8258 5.77591 13.536 5.63097 14.1303C5.50052 14.7245 5.26861 15.1883 4.93525 15.5217C4.60188 15.8406 4.12358 16 3.50033 16ZM20.7328 16C19.6457 16 18.6891 15.7898 17.8629 15.3695C17.0513 14.9347 16.4135 14.3477 15.9497 13.6085C15.5004 12.8548 15.2757 11.9924 15.2757 11.0213C15.2757 10.0792 15.5004 9.20951 15.9497 8.41233C16.4135 7.61515 17.044 6.97741 17.8412 6.4991C18.6529 6.0208 19.5805 5.78165 20.6241 5.78165C21.5952 5.78165 22.4286 5.97732 23.1243 6.36866C23.82 6.76 24.349 7.26005 24.7114 7.8688C25.0882 8.46306 25.2767 9.09355 25.2767 9.76028C25.2767 10.427 25.1245 10.9778 24.8201 11.4126C24.5157 11.8329 24.1171 12.1591 23.6243 12.391C23.146 12.6084 22.6315 12.7533 22.0807 12.8258C21.5299 12.8983 21.0009 12.9128 20.4936 12.8693C19.9863 12.8113 19.5587 12.7243 19.2109 12.6084C19.4718 13.0287 19.7979 13.3186 20.1892 13.478C20.5951 13.623 21.0154 13.6882 21.4502 13.6737C21.8995 13.6447 22.3054 13.594 22.6677 13.5215C23.117 13.42 23.4866 13.4418 23.7765 13.5867C24.0664 13.7317 24.2186 13.9636 24.2331 14.2824C24.2476 14.5433 24.1534 14.8042 23.9505 15.0651C23.762 15.326 23.4142 15.5507 22.9069 15.7391C22.3996 15.913 21.6749 16 20.7328 16ZM19.2761 9.95595C19.421 10.1879 19.6312 10.3545 19.9066 10.456C20.182 10.543 20.4574 10.572 20.7328 10.543C21.0226 10.514 21.2618 10.4343 21.4502 10.3038C21.6531 10.1734 21.7546 9.99219 21.7546 9.76028C21.7546 9.51388 21.6531 9.29647 21.4502 9.10805C21.2618 8.90513 20.9574 8.80367 20.5371 8.80367C20.1313 8.80367 19.8196 8.93412 19.6022 9.19501C19.3848 9.44141 19.2761 9.69506 19.2761 9.95595ZM29.9996 16.0217C29.1444 16.0217 28.4052 15.7971 27.782 15.3478C27.1588 14.8984 26.6732 14.2752 26.3253 13.478C25.992 12.6664 25.8253 11.7315 25.8253 10.6734C25.8253 10.1516 25.8688 9.60809 25.9557 9.04282C26.0572 8.46306 26.2021 7.92678 26.3906 7.43398C26.5935 6.94117 26.8544 6.54259 27.1732 6.23821C27.5066 5.91934 27.9052 5.7599 28.369 5.7599C28.9198 5.7599 29.3329 5.94108 29.6083 6.30343C29.8981 6.65129 30.0431 7.1151 30.0431 7.69487C30.0431 7.95576 29.9996 8.26014 29.9126 8.608C29.8402 8.95586 29.7604 9.31096 29.6735 9.67332C29.601 10.0212 29.5648 10.34 29.5648 10.6299C29.5648 11.0937 29.6083 11.4416 29.6952 11.6735C29.7967 11.9054 30.0141 12.0214 30.3475 12.0214C30.6953 12.0214 30.92 11.8402 31.0214 11.4778C31.1374 11.101 31.1881 10.6227 31.1736 10.0429C31.1736 9.44866 31.1736 8.8399 31.1736 8.21666C31.1736 7.75285 31.2968 7.33976 31.5432 6.97741C31.8041 6.60056 32.2244 6.41214 32.8042 6.41214C33.3985 6.41214 33.826 6.60056 34.0869 6.97741C34.3623 7.33976 34.5 7.75285 34.5 8.21666C34.5 8.8399 34.4855 9.44866 34.4565 10.0429C34.442 10.6227 34.4855 11.101 34.587 11.4778C34.7029 11.8402 34.9566 12.0214 35.3479 12.0214C36.0292 12.0214 36.3698 11.5576 36.3698 10.6299C36.3698 10.34 36.3118 10.0212 36.1958 9.67332C36.0944 9.31096 35.9857 8.95586 35.8697 8.608C35.7538 8.24565 35.6958 7.92678 35.6958 7.65139C35.6958 6.40489 36.2176 5.78165 37.2612 5.78165C37.725 5.78165 38.1163 5.93383 38.4352 6.23821C38.7685 6.54259 39.0294 6.94117 39.2179 7.43398C39.4208 7.92678 39.5657 8.45581 39.6527 9.02108C39.7541 9.58635 39.8049 10.1299 39.8049 10.6517C39.8049 12.2605 39.428 13.5505 38.6743 14.5216C37.9351 15.4782 36.9205 15.9565 35.6306 15.9565C35.0508 15.9565 34.5145 15.8478 34.0217 15.6304C33.5289 15.3985 33.1231 15.1014 32.8042 14.739C32.4853 15.1014 32.0868 15.4057 31.6084 15.6521C31.1301 15.8985 30.5939 16.0217 29.9996 16.0217Z" fill="#D8E91A" fill-opacity="0.75"/>
</svg>
