<svg width="145" height="74" viewBox="0 0 145 74" fill="none" xmlns="http://www.w3.org/2000/svg">
<rect width="145" height="74" rx="8" fill="#1F1F1F"/>
<path d="M45.0938 42.0222C44.0006 42.0369 43.0404 41.8153 42.2131 41.3574C41.4006 40.8846 40.758 40.2494 40.2852 39.4517C39.8273 38.6392 39.5835 37.7454 39.554 36.7704C39.5392 35.7659 39.7682 34.8795 40.2409 34.1113C40.7137 33.3283 41.371 32.7079 42.2131 32.2499C43.0551 31.792 44.0154 31.563 45.0938 31.563C46.1574 31.5482 47.0955 31.7698 47.908 32.2278C48.7353 32.6857 49.3927 33.3062 49.8802 34.0891C50.3677 34.8721 50.6262 35.7659 50.6558 36.7704C50.6706 37.7306 50.4416 38.6096 49.9688 39.4074C49.4961 40.1903 48.8387 40.8182 47.9967 41.2909C47.1546 41.7489 46.187 41.9926 45.0938 42.0222ZM45.1603 38.7869C45.5591 38.7869 45.9063 38.6318 46.2018 38.3216C46.4972 38.0113 46.645 37.6494 46.645 37.2358C46.645 36.8221 46.4972 36.4676 46.2018 36.1721C45.9063 35.8619 45.5591 35.7068 45.1603 35.7068C44.7614 35.7068 44.4143 35.8619 44.1188 36.1721C43.8233 36.4676 43.6756 36.8221 43.6756 37.2358C43.6756 37.6494 43.8233 38.0113 44.1188 38.3216C44.4143 38.6318 44.7614 38.7869 45.1603 38.7869ZM55.4699 42.0222C54.5983 42.0222 53.8449 41.7932 53.2096 41.3352C52.5744 40.8773 52.0795 40.242 51.725 39.4295C51.3852 38.6022 51.2153 37.6494 51.2153 36.571C51.2153 36.0392 51.2596 35.4852 51.3483 34.909C51.4517 34.3181 51.5994 33.7715 51.7914 33.2692C51.9983 32.767 52.2642 32.3607 52.5892 32.0505C52.929 31.7255 53.3352 31.563 53.8079 31.563C54.3693 31.563 54.7903 31.7476 55.071 32.117C55.3665 32.4715 55.5142 32.9442 55.5142 33.5352C55.5142 33.8011 55.4699 34.1113 55.3812 34.4658C55.3074 34.8204 55.2261 35.1823 55.1375 35.5516C55.0636 35.9062 55.0267 36.2312 55.0267 36.5267C55.0267 36.9994 55.071 37.3539 55.1597 37.5903C55.2631 37.8267 55.4847 37.9449 55.8244 37.9449C56.179 37.9449 56.408 37.7602 56.5114 37.3909C56.6296 37.0068 56.6813 36.5193 56.6665 35.9284C56.6665 35.3227 56.6665 34.7022 56.6665 34.067C56.6665 33.5942 56.7921 33.1732 57.0432 32.8039C57.3091 32.4198 57.7375 32.2278 58.3284 32.2278C58.9341 32.2278 59.3699 32.4198 59.6358 32.8039C59.9165 33.1732 60.0569 33.5942 60.0569 34.067C60.0569 34.7022 60.0421 35.3227 60.0125 35.9284C59.9978 36.5193 60.0421 37.0068 60.1455 37.3909C60.2637 37.7602 60.5222 37.9449 60.9211 37.9449C61.6154 37.9449 61.9626 37.4721 61.9626 36.5267C61.9626 36.2312 61.9035 35.9062 61.7853 35.5516C61.6819 35.1823 61.5711 34.8204 61.4529 34.4658C61.3347 34.0965 61.2756 33.7715 61.2756 33.4908C61.2756 32.2204 61.8074 31.5851 62.8711 31.5851C63.3438 31.5851 63.7427 31.7403 64.0677 32.0505C64.4075 32.3607 64.6734 32.767 64.8654 33.2692C65.0722 33.7715 65.22 34.3107 65.3086 34.8869C65.412 35.463 65.4637 36.017 65.4637 36.5488C65.4637 38.1886 65.0796 39.5034 64.3114 40.4932C63.558 41.4682 62.5239 41.9557 61.2091 41.9557C60.6182 41.9557 60.0716 41.8449 59.5694 41.6233C59.0671 41.3869 58.6534 41.0841 58.3284 40.7148C58.0034 41.0841 57.5972 41.3943 57.1097 41.6455C56.6222 41.8966 56.0756 42.0222 55.4699 42.0222ZM75.0054 42C74.4145 42 73.9934 41.8375 73.7423 41.5125C73.5059 41.1727 73.3656 40.7517 73.3213 40.2494C73.2769 39.7324 73.2548 39.2153 73.2548 38.6983C73.2548 37.9153 73.144 37.2875 72.9224 36.8147C72.7008 36.3272 72.3093 36.0835 71.748 36.0835C71.2457 36.0835 70.8764 36.3272 70.64 36.8147C70.4036 37.2875 70.2854 37.9153 70.2854 38.6983C70.2854 39.2153 70.2633 39.725 70.219 40.2273C70.1894 40.7295 70.0565 41.1506 69.8201 41.4903C69.5837 41.8153 69.1553 41.9778 68.5349 41.9778C68.0769 41.9778 67.6928 41.808 67.3826 41.4682C67.0871 41.1284 66.8581 40.6852 66.6956 40.1386C66.5331 39.592 66.415 39.0011 66.3411 38.3659C66.282 37.7306 66.2525 37.1176 66.2525 36.5267C66.2525 35.9357 66.282 35.3301 66.3411 34.7096C66.4002 34.0891 66.5036 33.513 66.6513 32.9812C66.8138 32.4494 67.0428 32.0209 67.3383 31.6959C67.6337 31.3709 68.0178 31.2084 68.4905 31.2084C69.3326 31.2084 69.857 31.5925 70.0638 32.3607C70.2411 32.1687 70.5218 31.9914 70.9059 31.8289C71.3048 31.6516 71.7553 31.563 72.2576 31.563C73.3951 31.563 74.3258 31.851 75.0497 32.4272C75.7736 33.0033 76.298 33.8011 76.623 34.8204C76.9628 35.8249 77.1253 36.992 77.1105 38.3216C77.1105 39.0011 77.044 39.6216 76.9111 40.1829C76.7929 40.7295 76.5787 41.1727 76.2684 41.5125C75.973 41.8375 75.552 42 75.0054 42ZM83.2377 42C82.1297 42 81.1547 41.7858 80.3127 41.3574C79.4854 40.9142 78.8354 40.3159 78.3627 39.5625C77.9047 38.7943 77.6757 37.9153 77.6757 36.9255C77.6757 35.9653 77.9047 35.0789 78.3627 34.2664C78.8354 33.4539 79.478 32.8039 80.2905 32.3164C81.1178 31.8289 82.0633 31.5851 83.1269 31.5851C84.1167 31.5851 84.9661 31.7846 85.6752 32.1834C86.3843 32.5823 86.9235 33.092 87.2929 33.7124C87.677 34.3181 87.869 34.9607 87.869 35.6403C87.869 36.3198 87.7139 36.8812 87.4037 37.3244C87.0934 37.7528 86.6872 38.0852 86.1849 38.3216C85.6974 38.5432 85.173 38.6909 84.6116 38.7647C84.0502 38.8386 83.511 38.8534 82.994 38.8091C82.4769 38.75 82.0411 38.6613 81.6866 38.5432C81.9525 38.9716 82.2849 39.267 82.6837 39.4295C83.0974 39.5773 83.5258 39.6437 83.969 39.629C84.4269 39.5994 84.8406 39.5477 85.2099 39.4738C85.6678 39.3704 86.0446 39.3926 86.34 39.5403C86.6355 39.688 86.7906 39.9244 86.8054 40.2494C86.8201 40.5153 86.7241 40.7812 86.5173 41.0472C86.3252 41.3131 85.9707 41.542 85.4536 41.7341C84.9366 41.9114 84.1979 42 83.2377 42ZM81.753 35.8397C81.9008 36.0761 82.115 36.246 82.3957 36.3494C82.6763 36.438 82.957 36.4676 83.2377 36.438C83.5332 36.4085 83.7769 36.3272 83.969 36.1943C84.1758 36.0613 84.2792 35.8767 84.2792 35.6403C84.2792 35.3891 84.1758 35.1676 83.969 34.9755C83.7769 34.7687 83.4667 34.6653 83.0383 34.6653C82.6246 34.6653 82.307 34.7982 82.0854 35.0641C81.8638 35.3153 81.753 35.5738 81.753 35.8397ZM91.0156 42C90.5133 42 90.0997 41.8375 89.7747 41.5125C89.4645 41.1727 89.2281 40.7221 89.0656 40.1608C88.9031 39.5994 88.7923 38.9568 88.7332 38.2329C88.6741 37.5091 88.6446 36.763 88.6446 35.9948C88.6446 35.4778 88.652 34.9533 88.6667 34.4215C88.6963 33.8749 88.7701 33.3727 88.8883 32.9147C89.0213 32.4567 89.2355 32.0874 89.5309 31.8067C89.8412 31.5113 90.277 31.3635 90.8383 31.3635C91.2372 31.3635 91.5991 31.4596 91.9241 31.6516C92.2491 31.8289 92.456 32.1022 92.5446 32.4715C92.8844 32.1613 93.3128 31.9397 93.8298 31.8067C94.3617 31.659 94.9083 31.5851 95.4696 31.5851C95.9424 31.5851 96.4225 31.7033 96.91 31.9397C97.3975 32.1613 97.8111 32.4715 98.1509 32.8704C98.4907 33.2692 98.6606 33.7198 98.6606 34.2221C98.6606 34.6505 98.4981 35.0568 98.1731 35.4409C97.8628 35.8249 97.4196 36.017 96.8435 36.017C96.5924 36.017 96.3855 35.9874 96.223 35.9284C96.0605 35.8545 95.9054 35.788 95.7577 35.7289C95.61 35.6698 95.4327 35.6403 95.2259 35.6403C94.6793 35.6403 94.177 35.8619 93.719 36.3051C93.2759 36.7335 93.0543 37.317 93.0543 38.0556C93.0543 38.4397 93.0395 38.8608 93.01 39.3187C92.9952 39.7619 92.9287 40.1903 92.8105 40.604C92.7071 41.0176 92.5151 41.3574 92.2344 41.6233C91.9537 41.8744 91.5474 42 91.0156 42ZM102.294 41.8892C101.88 41.8892 101.496 41.7858 101.141 41.579C100.802 41.3574 100.521 41.0767 100.299 40.7369C100.092 40.3824 99.9891 39.9983 99.9891 39.5846C99.9891 39.171 100.092 38.7869 100.299 38.4324C100.521 38.0778 100.802 37.7971 101.141 37.5903C101.496 37.3835 101.88 37.2801 102.294 37.2801C102.707 37.2801 103.091 37.3835 103.446 37.5903C103.8 37.7971 104.081 38.0778 104.288 38.4324C104.495 38.7869 104.598 39.171 104.598 39.5846C104.598 39.9983 104.495 40.3824 104.288 40.7369C104.081 41.0767 103.8 41.3574 103.446 41.579C103.091 41.7858 102.707 41.8892 102.294 41.8892Z" fill="white"/>
<path d="M45.0938 42.0222L45.1073 43.0222L45.1208 43.0218L45.0938 42.0222ZM42.2131 41.3574L41.7102 42.2217L41.7194 42.2271L41.7288 42.2323L42.2131 41.3574ZM40.2852 39.4517L39.4141 39.9427L39.4194 39.9522L39.4249 39.9615L40.2852 39.4517ZM39.554 36.7704L38.5541 36.7851L38.5542 36.7929L38.5544 36.8007L39.554 36.7704ZM40.2409 34.1113L41.0926 34.6354L41.097 34.6282L40.2409 34.1113ZM42.2131 32.2499L41.7353 31.3714L41.7353 31.3714L42.2131 32.2499ZM45.0938 31.563V32.5631L45.1077 32.5629L45.0938 31.563ZM47.908 32.2278L47.417 33.0989L47.4237 33.1027L47.908 32.2278ZM49.8802 34.0891L49.0313 34.6177H49.0313L49.8802 34.0891ZM50.6558 36.7704L51.6558 36.755L51.6553 36.741L50.6558 36.7704ZM49.9688 39.4074L50.8249 39.9243L50.8291 39.9172L49.9688 39.4074ZM47.9967 41.2909L48.4745 42.1695L48.4862 42.1629L47.9967 41.2909ZM46.2018 36.1721L45.4776 36.8618L45.486 36.8706L45.4947 36.8792L46.2018 36.1721ZM44.1188 36.1721L44.8259 36.8792L44.8345 36.8706L44.8429 36.8618L44.1188 36.1721ZM44.1188 38.3216L43.3947 39.0112L44.1188 38.3216ZM45.0803 41.0223C44.1336 41.035 43.3501 40.8438 42.6974 40.4825L41.7288 42.2323C42.7307 42.7869 43.8676 43.0388 45.1073 43.0221L45.0803 41.0223ZM42.716 40.493C42.0488 40.1048 41.5301 39.5908 41.1455 38.9419L39.4249 39.9615C39.9859 40.908 40.7524 41.6645 41.7102 42.2217L42.716 40.493ZM41.1564 38.9607C40.7815 38.2956 40.5784 37.5611 40.5535 36.7401L38.5544 36.8007C38.5887 37.9297 38.873 38.9827 39.4141 39.9427L41.1564 38.9607ZM40.5539 36.7557C40.5416 35.9188 40.7306 35.2237 41.0926 34.6354L39.3893 33.5872C38.8058 34.5353 38.5369 35.6129 38.5541 36.7851L40.5539 36.7557ZM41.097 34.6282C41.4735 34.0046 41.997 33.5058 42.6909 33.1284L41.7353 31.3714C40.7451 31.91 39.9538 32.6521 39.3849 33.5944L41.097 34.6282ZM42.6909 33.1284C43.3687 32.7597 44.1611 32.563 45.0938 32.563V30.563C43.8697 30.563 42.7416 30.8242 41.7353 31.3714L42.6909 33.1284ZM45.1077 32.5629C46.0199 32.5502 46.7791 32.7393 47.417 33.0989L48.399 31.3566C47.412 30.8002 46.295 30.5462 45.0799 30.5631L45.1077 32.5629ZM47.4237 33.1027C48.1059 33.4803 48.6362 33.9831 49.0313 34.6177L50.7291 33.5606C50.1492 32.6292 49.3647 31.8912 48.3923 31.3529L47.4237 33.1027ZM49.0313 34.6177C49.4171 35.2372 49.6314 35.9557 49.6562 36.7998L51.6553 36.741C51.6211 35.576 51.3184 34.507 50.7291 33.5606L49.0313 34.6177ZM49.6559 36.7858C49.6679 37.5683 49.4837 38.2645 49.1086 38.8976L50.8291 39.9172C51.3994 38.9548 51.6732 37.8929 51.6557 36.755L49.6559 36.7858ZM49.1128 38.8905C48.7345 39.517 48.2071 40.026 47.5071 40.4189L48.4862 42.1629C49.4704 41.6104 50.2577 40.8636 50.8249 39.9242L49.1128 38.8905ZM47.5189 40.4124C46.8338 40.785 46.0246 40.9966 45.0668 41.0225L45.1208 43.0218C46.3494 42.9886 47.4754 42.7127 48.4744 42.1694L47.5189 40.4124ZM45.1603 39.7869C45.8546 39.7869 46.4573 39.5033 46.9259 39.0112L45.4776 37.6319C45.3553 37.7603 45.2637 37.7869 45.1603 37.7869V39.7869ZM46.9259 39.0112C47.3914 38.5224 47.645 37.9162 47.645 37.2358H45.645C45.645 37.3826 45.603 37.5003 45.4776 37.6319L46.9259 39.0112ZM47.645 37.2358C47.645 36.5539 47.3897 35.9459 46.9089 35.465L45.4947 36.8792C45.6047 36.9893 45.645 37.0903 45.645 37.2358H47.645ZM46.9259 35.4825C46.4573 34.9904 45.8546 34.7068 45.1603 34.7068V36.7068C45.2637 36.7068 45.3553 36.7334 45.4776 36.8618L46.9259 35.4825ZM45.1603 34.7068C44.4659 34.7068 43.8633 34.9904 43.3947 35.4825L44.8429 36.8618C44.9652 36.7334 45.0569 36.7068 45.1603 36.7068V34.7068ZM43.4117 35.465C42.9308 35.9459 42.6756 36.5539 42.6756 37.2358H44.6756C44.6756 37.0903 44.7158 36.9893 44.8259 36.8792L43.4117 35.465ZM42.6756 37.2358C42.6756 37.9162 42.9291 38.5224 43.3947 39.0112L44.8429 37.6319C44.7176 37.5003 44.6756 37.3826 44.6756 37.2358H42.6756ZM43.3947 39.0112C43.8633 39.5033 44.4659 39.7869 45.1603 39.7869V37.7869C45.0569 37.7869 44.9652 37.7603 44.8429 37.6319L43.3947 39.0112ZM53.2096 41.3352L52.6248 42.1464L53.2096 41.3352ZM51.725 39.4295L50.7999 39.8094L50.8041 39.8195L50.8084 39.8295L51.725 39.4295ZM51.3483 34.909L50.3632 34.7367L50.3615 34.7468L50.3599 34.757L51.3483 34.909ZM51.7914 33.2692L50.8668 32.8885L50.8619 32.9002L50.8574 32.9121L51.7914 33.2692ZM52.5892 32.0505L53.2797 32.7738L53.2804 32.7731L52.5892 32.0505ZM55.071 32.117L54.2749 32.722L54.2884 32.7399L54.3028 32.7571L55.071 32.117ZM55.3812 34.4658L54.4111 34.2233L54.4063 34.2425L54.4023 34.2619L55.3812 34.4658ZM55.1375 35.5516L54.1651 35.3183L54.1616 35.3329L54.1585 35.3477L55.1375 35.5516ZM55.1597 37.5903L54.2233 37.9414L54.2327 37.9665L54.2435 37.9911L55.1597 37.5903ZM56.5114 37.3909L55.5556 37.0968L55.5518 37.109L55.5484 37.1212L56.5114 37.3909ZM56.6665 35.9284H55.6665V35.9409L55.6668 35.9533L56.6665 35.9284ZM57.0432 32.8039L56.221 32.2347L56.2163 32.2416L57.0432 32.8039ZM59.6358 32.8039L58.8136 33.3731L58.8263 33.3913L58.8397 33.409L59.6358 32.8039ZM60.0125 35.9284L59.0137 35.8796L59.0131 35.8915L59.0128 35.9034L60.0125 35.9284ZM60.1455 37.3909L59.1799 37.6508L59.1859 37.6734L59.1931 37.6956L60.1455 37.3909ZM61.7853 35.5516L60.8223 35.8213L60.8289 35.8448L60.8366 35.8679L61.7853 35.5516ZM61.4529 34.4658L60.5004 34.7706L60.5042 34.7821L61.4529 34.4658ZM64.0677 32.0505L63.3772 32.7738L63.3852 32.7815L63.3934 32.789L64.0677 32.0505ZM64.8654 33.2692L63.9314 33.6264L63.9359 33.6382L63.9407 33.65L64.8654 33.2692ZM65.3086 34.8869L64.3202 35.0389L64.3221 35.0513L64.3243 35.0635L65.3086 34.8869ZM64.3114 40.4932L63.5215 39.88L63.5202 39.8817L64.3114 40.4932ZM59.5694 41.6233L59.1436 42.5281L59.1546 42.5333L59.1657 42.5382L59.5694 41.6233ZM58.3284 40.7148L59.0791 40.0541L58.3284 39.2011L57.5777 40.0541L58.3284 40.7148ZM57.1097 41.6455L56.6517 40.7565L57.1097 41.6455ZM55.4699 41.0222C54.7834 41.0222 54.2403 40.8455 53.7944 40.524L52.6248 42.1464C53.4495 42.7409 54.4132 43.0222 55.4699 43.0222V41.0222ZM53.7944 40.524C53.3231 40.1842 52.934 39.6999 52.6415 39.0296L50.8084 39.8295C51.225 40.7842 51.8257 41.5703 52.6248 42.1464L53.7944 40.524ZM52.65 39.0496C52.3688 38.3649 52.2153 37.5453 52.2153 36.571H50.2153C50.2153 37.7535 50.4016 38.8396 50.7999 39.8094L52.65 39.0496ZM52.2153 36.571C52.2153 36.0946 52.255 35.5917 52.3366 35.0611L50.3599 34.757C50.2642 35.3787 50.2153 35.9837 50.2153 36.571H52.2153ZM52.3333 35.0814C52.4269 34.5464 52.5588 34.0624 52.7255 33.6264L50.8574 32.9121C50.64 33.4806 50.4764 34.0898 50.3632 34.7367L52.3333 35.0814ZM52.7161 33.65C52.8806 33.2506 53.0747 32.9695 53.2797 32.7738L51.8987 31.3271C51.4537 31.7519 51.1159 32.2834 50.8668 32.8885L52.7161 33.65ZM53.2804 32.7731C53.433 32.6272 53.5912 32.563 53.8079 32.563V30.563C53.0792 30.563 52.425 30.8238 51.898 31.3278L53.2804 32.7731ZM53.8079 32.563C54.1302 32.563 54.2237 32.6547 54.2749 32.722L55.8672 31.5119C55.357 30.8406 54.6084 30.563 53.8079 30.563V32.563ZM54.3028 32.7571C54.4106 32.8865 54.5142 33.1112 54.5142 33.5352H56.5142C56.5142 32.7772 56.3223 32.0565 55.8392 31.4768L54.3028 32.7571ZM54.5142 33.5352C54.5142 33.6953 54.4867 33.9208 54.4111 34.2233L56.3514 34.7084C56.453 34.3018 56.5142 33.9068 56.5142 33.5352H54.5142ZM54.4023 34.2619C54.3305 34.6061 54.2515 34.9583 54.1651 35.3183L56.1099 35.785C56.2008 35.4064 56.2842 35.0346 56.3602 34.6698L54.4023 34.2619ZM54.1585 35.3477C54.0737 35.7549 54.0267 36.1494 54.0267 36.5267H56.0267C56.0267 36.313 56.0536 36.0575 56.1165 35.7556L54.1585 35.3477ZM54.0267 36.5267C54.0267 37.0335 54.0704 37.5336 54.2233 37.9414L56.096 37.2392C56.0716 37.1743 56.0267 36.9653 56.0267 36.5267H54.0267ZM54.2435 37.9911C54.3827 38.3093 54.6178 38.5706 54.9328 38.7386C55.2305 38.8973 55.5458 38.9449 55.8244 38.9449V36.9449C55.7633 36.9449 55.7979 36.9333 55.874 36.9739C55.914 36.9952 55.9573 37.0269 55.9965 37.0697C56.0355 37.1122 56.0608 37.1551 56.0758 37.1895L54.2435 37.9911ZM55.8244 38.9449C56.1815 38.9449 56.5631 38.8483 56.8898 38.5848C57.2092 38.3273 57.3835 37.9849 57.4743 37.6605L55.5484 37.1212C55.5358 37.1661 55.544 37.1008 55.6343 37.0279C55.6778 36.9929 55.7243 36.9697 55.7651 36.9568C55.8038 36.9446 55.8266 36.9449 55.8244 36.9449V38.9449ZM57.4671 37.685C57.6283 37.1613 57.6825 36.5563 57.6662 35.9034L55.6668 35.9533C55.68 36.4822 55.6308 36.8523 55.5556 37.0968L57.4671 37.685ZM57.6665 35.9284C57.6665 35.9272 57.6665 35.926 57.6665 35.9248C57.6665 35.9236 57.6665 35.9224 57.6665 35.9213C57.6665 35.9201 57.6665 35.9189 57.6665 35.9177C57.6665 35.9165 57.6665 35.9153 57.6665 35.9142C57.6665 35.913 57.6665 35.9118 57.6665 35.9106C57.6665 35.9094 57.6665 35.9082 57.6665 35.9071C57.6665 35.9059 57.6665 35.9047 57.6665 35.9035C57.6665 35.9023 57.6665 35.9011 57.6665 35.9C57.6665 35.8988 57.6665 35.8976 57.6665 35.8964C57.6665 35.8952 57.6665 35.894 57.6665 35.8929C57.6665 35.8917 57.6665 35.8905 57.6665 35.8893C57.6665 35.8881 57.6665 35.8869 57.6665 35.8857C57.6665 35.8846 57.6665 35.8834 57.6665 35.8822C57.6665 35.881 57.6665 35.8798 57.6665 35.8786C57.6665 35.8775 57.6665 35.8763 57.6665 35.8751C57.6665 35.8739 57.6665 35.8727 57.6665 35.8715C57.6665 35.8703 57.6665 35.8692 57.6665 35.868C57.6665 35.8668 57.6665 35.8656 57.6665 35.8644C57.6665 35.8632 57.6665 35.8621 57.6665 35.8609C57.6665 35.8597 57.6665 35.8585 57.6665 35.8573C57.6665 35.8561 57.6665 35.8549 57.6665 35.8538C57.6665 35.8526 57.6665 35.8514 57.6665 35.8502C57.6665 35.849 57.6665 35.8478 57.6665 35.8466C57.6665 35.8455 57.6665 35.8443 57.6665 35.8431C57.6665 35.8419 57.6665 35.8407 57.6665 35.8395C57.6665 35.8383 57.6665 35.8372 57.6665 35.836C57.6665 35.8348 57.6665 35.8336 57.6665 35.8324C57.6665 35.8312 57.6665 35.83 57.6665 35.8289C57.6665 35.8277 57.6665 35.8265 57.6665 35.8253C57.6665 35.8241 57.6665 35.8229 57.6665 35.8217C57.6665 35.8206 57.6665 35.8194 57.6665 35.8182C57.6665 35.817 57.6665 35.8158 57.6665 35.8146C57.6665 35.8134 57.6665 35.8122 57.6665 35.8111C57.6665 35.8099 57.6665 35.8087 57.6665 35.8075C57.6665 35.8063 57.6665 35.8051 57.6665 35.8039C57.6665 35.8027 57.6665 35.8016 57.6665 35.8004C57.6665 35.7992 57.6665 35.798 57.6665 35.7968C57.6665 35.7956 57.6665 35.7944 57.6665 35.7933C57.6665 35.7921 57.6665 35.7909 57.6665 35.7897C57.6665 35.7885 57.6665 35.7873 57.6665 35.7861C57.6665 35.7849 57.6665 35.7838 57.6665 35.7826C57.6665 35.7814 57.6665 35.7802 57.6665 35.779C57.6665 35.7778 57.6665 35.7766 57.6665 35.7754C57.6665 35.7743 57.6665 35.7731 57.6665 35.7719C57.6665 35.7707 57.6665 35.7695 57.6665 35.7683C57.6665 35.7671 57.6665 35.7659 57.6665 35.7647C57.6665 35.7636 57.6665 35.7624 57.6665 35.7612C57.6665 35.76 57.6665 35.7588 57.6665 35.7576C57.6665 35.7564 57.6665 35.7552 57.6665 35.7541C57.6665 35.7529 57.6665 35.7517 57.6665 35.7505C57.6665 35.7493 57.6665 35.7481 57.6665 35.7469C57.6665 35.7457 57.6665 35.7445 57.6665 35.7434C57.6665 35.7422 57.6665 35.741 57.6665 35.7398C57.6665 35.7386 57.6665 35.7374 57.6665 35.7362C57.6665 35.735 57.6665 35.7338 57.6665 35.7327C57.6665 35.7315 57.6665 35.7303 57.6665 35.7291C57.6665 35.7279 57.6665 35.7267 57.6665 35.7255C57.6665 35.7243 57.6665 35.7231 57.6665 35.7219C57.6665 35.7208 57.6665 35.7196 57.6665 35.7184C57.6665 35.7172 57.6665 35.716 57.6665 35.7148C57.6665 35.7136 57.6665 35.7124 57.6665 35.7112C57.6665 35.7101 57.6665 35.7089 57.6665 35.7077C57.6665 35.7065 57.6665 35.7053 57.6665 35.7041C57.6665 35.7029 57.6665 35.7017 57.6665 35.7005C57.6665 35.6993 57.6665 35.6982 57.6665 35.697C57.6665 35.6958 57.6665 35.6946 57.6665 35.6934C57.6665 35.6922 57.6665 35.691 57.6665 35.6898C57.6665 35.6886 57.6665 35.6874 57.6665 35.6862C57.6665 35.6851 57.6665 35.6839 57.6665 35.6827C57.6665 35.6815 57.6665 35.6803 57.6665 35.6791C57.6665 35.6779 57.6665 35.6767 57.6665 35.6755C57.6665 35.6743 57.6665 35.6731 57.6665 35.672C57.6665 35.6708 57.6665 35.6696 57.6665 35.6684C57.6665 35.6672 57.6665 35.666 57.6665 35.6648C57.6665 35.6636 57.6665 35.6624 57.6665 35.6612C57.6665 35.66 57.6665 35.6589 57.6665 35.6577C57.6665 35.6565 57.6665 35.6553 57.6665 35.6541C57.6665 35.6529 57.6665 35.6517 57.6665 35.6505C57.6665 35.6493 57.6665 35.6481 57.6665 35.6469C57.6665 35.6457 57.6665 35.6446 57.6665 35.6434C57.6665 35.6422 57.6665 35.641 57.6665 35.6398C57.6665 35.6386 57.6665 35.6374 57.6665 35.6362C57.6665 35.635 57.6665 35.6338 57.6665 35.6326C57.6665 35.6314 57.6665 35.6302 57.6665 35.6291C57.6665 35.6279 57.6665 35.6267 57.6665 35.6255C57.6665 35.6243 57.6665 35.6231 57.6665 35.6219C57.6665 35.6207 57.6665 35.6195 57.6665 35.6183C57.6665 35.6171 57.6665 35.6159 57.6665 35.6147C57.6665 35.6135 57.6665 35.6124 57.6665 35.6112C57.6665 35.61 57.6665 35.6088 57.6665 35.6076C57.6665 35.6064 57.6665 35.6052 57.6665 35.604C57.6665 35.6028 57.6665 35.6016 57.6665 35.6004C57.6665 35.5992 57.6665 35.598 57.6665 35.5968C57.6665 35.5956 57.6665 35.5945 57.6665 35.5933C57.6665 35.5921 57.6665 35.5909 57.6665 35.5897C57.6665 35.5885 57.6665 35.5873 57.6665 35.5861C57.6665 35.5849 57.6665 35.5837 57.6665 35.5825C57.6665 35.5813 57.6665 35.5801 57.6665 35.5789C57.6665 35.5777 57.6665 35.5765 57.6665 35.5754C57.6665 35.5742 57.6665 35.573 57.6665 35.5718C57.6665 35.5706 57.6665 35.5694 57.6665 35.5682C57.6665 35.567 57.6665 35.5658 57.6665 35.5646C57.6665 35.5634 57.6665 35.5622 57.6665 35.561C57.6665 35.5598 57.6665 35.5586 57.6665 35.5574C57.6665 35.5562 57.6665 35.555 57.6665 35.5539C57.6665 35.5527 57.6665 35.5515 57.6665 35.5503C57.6665 35.5491 57.6665 35.5479 57.6665 35.5467C57.6665 35.5455 57.6665 35.5443 57.6665 35.5431C57.6665 35.5419 57.6665 35.5407 57.6665 35.5395C57.6665 35.5383 57.6665 35.5371 57.6665 35.5359C57.6665 35.5347 57.6665 35.5335 57.6665 35.5323C57.6665 35.5311 57.6665 35.5299 57.6665 35.5288C57.6665 35.5276 57.6665 35.5264 57.6665 35.5252C57.6665 35.524 57.6665 35.5228 57.6665 35.5216C57.6665 35.5204 57.6665 35.5192 57.6665 35.518C57.6665 35.5168 57.6665 35.5156 57.6665 35.5144C57.6665 35.5132 57.6665 35.512 57.6665 35.5108C57.6665 35.5096 57.6665 35.5084 57.6665 35.5072C57.6665 35.506 57.6665 35.5048 57.6665 35.5036C57.6665 35.5024 57.6665 35.5012 57.6665 35.5C57.6665 35.4989 57.6665 35.4977 57.6665 35.4965C57.6665 35.4953 57.6665 35.4941 57.6665 35.4929C57.6665 35.4917 57.6665 35.4905 57.6665 35.4893C57.6665 35.4881 57.6665 35.4869 57.6665 35.4857C57.6665 35.4845 57.6665 35.4833 57.6665 35.4821C57.6665 35.4809 57.6665 35.4797 57.6665 35.4785C57.6665 35.4773 57.6665 35.4761 57.6665 35.4749C57.6665 35.4737 57.6665 35.4725 57.6665 35.4713C57.6665 35.4701 57.6665 35.4689 57.6665 35.4677C57.6665 35.4665 57.6665 35.4653 57.6665 35.4641C57.6665 35.4629 57.6665 35.4617 57.6665 35.4605C57.6665 35.4593 57.6665 35.4581 57.6665 35.457C57.6665 35.4558 57.6665 35.4546 57.6665 35.4534C57.6665 35.4522 57.6665 35.451 57.6665 35.4498C57.6665 35.4486 57.6665 35.4474 57.6665 35.4462C57.6665 35.445 57.6665 35.4438 57.6665 35.4426C57.6665 35.4414 57.6665 35.4402 57.6665 35.439C57.6665 35.4378 57.6665 35.4366 57.6665 35.4354C57.6665 35.4342 57.6665 35.433 57.6665 35.4318C57.6665 35.4306 57.6665 35.4294 57.6665 35.4282C57.6665 35.427 57.6665 35.4258 57.6665 35.4246C57.6665 35.4234 57.6665 35.4222 57.6665 35.421C57.6665 35.4198 57.6665 35.4186 57.6665 35.4174C57.6665 35.4162 57.6665 35.415 57.6665 35.4138C57.6665 35.4126 57.6665 35.4114 57.6665 35.4102C57.6665 35.409 57.6665 35.4078 57.6665 35.4066C57.6665 35.4054 57.6665 35.4042 57.6665 35.403C57.6665 35.4018 57.6665 35.4006 57.6665 35.3994C57.6665 35.3982 57.6665 35.397 57.6665 35.3958C57.6665 35.3946 57.6665 35.3934 57.6665 35.3922C57.6665 35.391 57.6665 35.3898 57.6665 35.3886C57.6665 35.3874 57.6665 35.3862 57.6665 35.385C57.6665 35.3838 57.6665 35.3826 57.6665 35.3814C57.6665 35.3802 57.6665 35.379 57.6665 35.3778C57.6665 35.3766 57.6665 35.3754 57.6665 35.3742C57.6665 35.373 57.6665 35.3718 57.6665 35.3706C57.6665 35.3694 57.6665 35.3682 57.6665 35.367C57.6665 35.3658 57.6665 35.3646 57.6665 35.3634C57.6665 35.3622 57.6665 35.361 57.6665 35.3598C57.6665 35.3586 57.6665 35.3574 57.6665 35.3562C57.6665 35.355 57.6665 35.3538 57.6665 35.3526C57.6665 35.3514 57.6665 35.3502 57.6665 35.349C57.6665 35.3478 57.6665 35.3466 57.6665 35.3454C57.6665 35.3442 57.6665 35.343 57.6665 35.3418C57.6665 35.3406 57.6665 35.3394 57.6665 35.3382C57.6665 35.337 57.6665 35.3358 57.6665 35.3346C57.6665 35.3334 57.6665 35.3322 57.6665 35.331C57.6665 35.3298 57.6665 35.3286 57.6665 35.3274C57.6665 35.3262 57.6665 35.325 57.6665 35.3238C57.6665 35.3226 57.6665 35.3214 57.6665 35.3202C57.6665 35.3189 57.6665 35.3177 57.6665 35.3165C57.6665 35.3153 57.6665 35.3141 57.6665 35.3129C57.6665 35.3117 57.6665 35.3105 57.6665 35.3093C57.6665 35.3081 57.6665 35.3069 57.6665 35.3057C57.6665 35.3045 57.6665 35.3033 57.6665 35.3021C57.6665 35.3009 57.6665 35.2997 57.6665 35.2985C57.6665 35.2973 57.6665 35.2961 57.6665 35.2949C57.6665 35.2937 57.6665 35.2925 57.6665 35.2913C57.6665 35.2901 57.6665 35.2889 57.6665 35.2877C57.6665 35.2865 57.6665 35.2853 57.6665 35.2841C57.6665 35.2829 57.6665 35.2817 57.6665 35.2805C57.6665 35.2793 57.6665 35.2781 57.6665 35.2768C57.6665 35.2756 57.6665 35.2744 57.6665 35.2732C57.6665 35.272 57.6665 35.2708 57.6665 35.2696C57.6665 35.2684 57.6665 35.2672 57.6665 35.266C57.6665 35.2648 57.6665 35.2636 57.6665 35.2624C57.6665 35.2612 57.6665 35.26 57.6665 35.2588C57.6665 35.2576 57.6665 35.2564 57.6665 35.2552C57.6665 35.254 57.6665 35.2528 57.6665 35.2516C57.6665 35.2504 57.6665 35.2492 57.6665 35.248C57.6665 35.2467 57.6665 35.2455 57.6665 35.2443C57.6665 35.2431 57.6665 35.2419 57.6665 35.2407C57.6665 35.2395 57.6665 35.2383 57.6665 35.2371C57.6665 35.2359 57.6665 35.2347 57.6665 35.2335C57.6665 35.2323 57.6665 35.2311 57.6665 35.2299C57.6665 35.2287 57.6665 35.2275 57.6665 35.2263C57.6665 35.2251 57.6665 35.2239 57.6665 35.2227C57.6665 35.2214 57.6665 35.2202 57.6665 35.219C57.6665 35.2178 57.6665 35.2166 57.6665 35.2154C57.6665 35.2142 57.6665 35.213 57.6665 35.2118C57.6665 35.2106 57.6665 35.2094 57.6665 35.2082C57.6665 35.207 57.6665 35.2058 57.6665 35.2046C57.6665 35.2034 57.6665 35.2022 57.6665 35.201C57.6665 35.1997 57.6665 35.1985 57.6665 35.1973C57.6665 35.1961 57.6665 35.1949 57.6665 35.1937C57.6665 35.1925 57.6665 35.1913 57.6665 35.1901C57.6665 35.1889 57.6665 35.1877 57.6665 35.1865C57.6665 35.1853 57.6665 35.1841 57.6665 35.1829C57.6665 35.1817 57.6665 35.1804 57.6665 35.1792C57.6665 35.178 57.6665 35.1768 57.6665 35.1756C57.6665 35.1744 57.6665 35.1732 57.6665 35.172C57.6665 35.1708 57.6665 35.1696 57.6665 35.1684C57.6665 35.1672 57.6665 35.166 57.6665 35.1648C57.6665 35.1636 57.6665 35.1623 57.6665 35.1611C57.6665 35.1599 57.6665 35.1587 57.6665 35.1575C57.6665 35.1563 57.6665 35.1551 57.6665 35.1539C57.6665 35.1527 57.6665 35.1515 57.6665 35.1503C57.6665 35.1491 57.6665 35.1479 57.6665 35.1467C57.6665 35.1454 57.6665 35.1442 57.6665 35.143C57.6665 35.1418 57.6665 35.1406 57.6665 35.1394C57.6665 35.1382 57.6665 35.137 57.6665 35.1358C57.6665 35.1346 57.6665 35.1334 57.6665 35.1322C57.6665 35.131 57.6665 35.1297 57.6665 35.1285C57.6665 35.1273 57.6665 35.1261 57.6665 35.1249C57.6665 35.1237 57.6665 35.1225 57.6665 35.1213C57.6665 35.1201 57.6665 35.1189 57.6665 35.1177C57.6665 35.1165 57.6665 35.1152 57.6665 35.114C57.6665 35.1128 57.6665 35.1116 57.6665 35.1104C57.6665 35.1092 57.6665 35.108 57.6665 35.1068C57.6665 35.1056 57.6665 35.1044 57.6665 35.1032C57.6665 35.1019 57.6665 35.1007 57.6665 35.0995C57.6665 35.0983 57.6665 35.0971 57.6665 35.0959C57.6665 35.0947 57.6665 35.0935 57.6665 35.0923C57.6665 35.0911 57.6665 35.0899 57.6665 35.0886C57.6665 35.0874 57.6665 35.0862 57.6665 35.085C57.6665 35.0838 57.6665 35.0826 57.6665 35.0814C57.6665 35.0802 57.6665 35.079 57.6665 35.0778C57.6665 35.0766 57.6665 35.0753 57.6665 35.0741C57.6665 35.0729 57.6665 35.0717 57.6665 35.0705C57.6665 35.0693 57.6665 35.0681 57.6665 35.0669C57.6665 35.0657 57.6665 35.0645 57.6665 35.0632C57.6665 35.062 57.6665 35.0608 57.6665 35.0596C57.6665 35.0584 57.6665 35.0572 57.6665 35.056C57.6665 35.0548 57.6665 35.0536 57.6665 35.0523C57.6665 35.0511 57.6665 35.0499 57.6665 35.0487C57.6665 35.0475 57.6665 35.0463 57.6665 35.0451C57.6665 35.0439 57.6665 35.0427 57.6665 35.0415C57.6665 35.0402 57.6665 35.039 57.6665 35.0378C57.6665 35.0366 57.6665 35.0354 57.6665 35.0342C57.6665 35.033 57.6665 35.0318 57.6665 35.0306C57.6665 35.0293 57.6665 35.0281 57.6665 35.0269C57.6665 35.0257 57.6665 35.0245 57.6665 35.0233C57.6665 35.0221 57.6665 35.0209 57.6665 35.0197C57.6665 35.0184 57.6665 35.0172 57.6665 35.016C57.6665 35.0148 57.6665 35.0136 57.6665 35.0124C57.6665 35.0112 57.6665 35.01 57.6665 35.0087C57.6665 35.0075 57.6665 35.0063 57.6665 35.0051C57.6665 35.0039 57.6665 35.0027 57.6665 35.0015C57.6665 35.0003 57.6665 34.9991 57.6665 34.9978C57.6665 34.9966 57.6665 34.9954 57.6665 34.9942C57.6665 34.993 57.6665 34.9918 57.6665 34.9906C57.6665 34.9894 57.6665 34.9881 57.6665 34.9869C57.6665 34.9857 57.6665 34.9845 57.6665 34.9833C57.6665 34.9821 57.6665 34.9809 57.6665 34.9797C57.6665 34.9784 57.6665 34.9772 57.6665 34.976C57.6665 34.9748 57.6665 34.9736 57.6665 34.9724C57.6665 34.9712 57.6665 34.9699 57.6665 34.9687C57.6665 34.9675 57.6665 34.9663 57.6665 34.9651C57.6665 34.9639 57.6665 34.9627 57.6665 34.9615C57.6665 34.9602 57.6665 34.959 57.6665 34.9578C57.6665 34.9566 57.6665 34.9554 57.6665 34.9542C57.6665 34.953 57.6665 34.9517 57.6665 34.9505C57.6665 34.9493 57.6665 34.9481 57.6665 34.9469C57.6665 34.9457 57.6665 34.9445 57.6665 34.9433C57.6665 34.942 57.6665 34.9408 57.6665 34.9396C57.6665 34.9384 57.6665 34.9372 57.6665 34.936C57.6665 34.9348 57.6665 34.9335 57.6665 34.9323C57.6665 34.9311 57.6665 34.9299 57.6665 34.9287C57.6665 34.9275 57.6665 34.9263 57.6665 34.925C57.6665 34.9238 57.6665 34.9226 57.6665 34.9214C57.6665 34.9202 57.6665 34.919 57.6665 34.9178C57.6665 34.9165 57.6665 34.9153 57.6665 34.9141C57.6665 34.9129 57.6665 34.9117 57.6665 34.9105C57.6665 34.9093 57.6665 34.908 57.6665 34.9068C57.6665 34.9056 57.6665 34.9044 57.6665 34.9032C57.6665 34.902 57.6665 34.9007 57.6665 34.8995C57.6665 34.8983 57.6665 34.8971 57.6665 34.8959C57.6665 34.8947 57.6665 34.8935 57.6665 34.8922C57.6665 34.891 57.6665 34.8898 57.6665 34.8886C57.6665 34.8874 57.6665 34.8862 57.6665 34.8849C57.6665 34.8837 57.6665 34.8825 57.6665 34.8813C57.6665 34.8801 57.6665 34.8789 57.6665 34.8776C57.6665 34.8764 57.6665 34.8752 57.6665 34.874C57.6665 34.8728 57.6665 34.8716 57.6665 34.8704C57.6665 34.8691 57.6665 34.8679 57.6665 34.8667C57.6665 34.8655 57.6665 34.8643 57.6665 34.8631C57.6665 34.8618 57.6665 34.8606 57.6665 34.8594C57.6665 34.8582 57.6665 34.857 57.6665 34.8558C57.6665 34.8545 57.6665 34.8533 57.6665 34.8521C57.6665 34.8509 57.6665 34.8497 57.6665 34.8485C57.6665 34.8472 57.6665 34.846 57.6665 34.8448C57.6665 34.8436 57.6665 34.8424 57.6665 34.8412C57.6665 34.8399 57.6665 34.8387 57.6665 34.8375C57.6665 34.8363 57.6665 34.8351 57.6665 34.8339C57.6665 34.8326 57.6665 34.8314 57.6665 34.8302C57.6665 34.829 57.6665 34.8278 57.6665 34.8265C57.6665 34.8253 57.6665 34.8241 57.6665 34.8229C57.6665 34.8217 57.6665 34.8205 57.6665 34.8192C57.6665 34.818 57.6665 34.8168 57.6665 34.8156C57.6665 34.8144 57.6665 34.8132 57.6665 34.8119C57.6665 34.8107 57.6665 34.8095 57.6665 34.8083C57.6665 34.8071 57.6665 34.8058 57.6665 34.8046C57.6665 34.8034 57.6665 34.8022 57.6665 34.801C57.6665 34.7998 57.6665 34.7985 57.6665 34.7973C57.6665 34.7961 57.6665 34.7949 57.6665 34.7937C57.6665 34.7924 57.6665 34.7912 57.6665 34.79C57.6665 34.7888 57.6665 34.7876 57.6665 34.7864C57.6665 34.7851 57.6665 34.7839 57.6665 34.7827C57.6665 34.7815 57.6665 34.7803 57.6665 34.779C57.6665 34.7778 57.6665 34.7766 57.6665 34.7754C57.6665 34.7742 57.6665 34.7729 57.6665 34.7717C57.6665 34.7705 57.6665 34.7693 57.6665 34.7681C57.6665 34.7668 57.6665 34.7656 57.6665 34.7644C57.6665 34.7632 57.6665 34.762 57.6665 34.7608C57.6665 34.7595 57.6665 34.7583 57.6665 34.7571C57.6665 34.7559 57.6665 34.7547 57.6665 34.7534C57.6665 34.7522 57.6665 34.751 57.6665 34.7498C57.6665 34.7486 57.6665 34.7473 57.6665 34.7461C57.6665 34.7449 57.6665 34.7437 57.6665 34.7425C57.6665 34.7412 57.6665 34.74 57.6665 34.7388C57.6665 34.7376 57.6665 34.7364 57.6665 34.7351C57.6665 34.7339 57.6665 34.7327 57.6665 34.7315C57.6665 34.7303 57.6665 34.729 57.6665 34.7278C57.6665 34.7266 57.6665 34.7254 57.6665 34.7241C57.6665 34.7229 57.6665 34.7217 57.6665 34.7205C57.6665 34.7193 57.6665 34.718 57.6665 34.7168C57.6665 34.7156 57.6665 34.7144 57.6665 34.7132C57.6665 34.7119 57.6665 34.7107 57.6665 34.7095C57.6665 34.7083 57.6665 34.7071 57.6665 34.7058C57.6665 34.7046 57.6665 34.7034 57.6665 34.7022C57.6665 34.701 57.6665 34.6997 57.6665 34.6985C57.6665 34.6973 57.6665 34.6961 57.6665 34.6948C57.6665 34.6936 57.6665 34.6924 57.6665 34.6912C57.6665 34.69 57.6665 34.6887 57.6665 34.6875C57.6665 34.6863 57.6665 34.6851 57.6665 34.6838C57.6665 34.6826 57.6665 34.6814 57.6665 34.6802C57.6665 34.679 57.6665 34.6777 57.6665 34.6765C57.6665 34.6753 57.6665 34.6741 57.6665 34.6728C57.6665 34.6716 57.6665 34.6704 57.6665 34.6692C57.6665 34.668 57.6665 34.6667 57.6665 34.6655C57.6665 34.6643 57.6665 34.6631 57.6665 34.6618C57.6665 34.6606 57.6665 34.6594 57.6665 34.6582C57.6665 34.657 57.6665 34.6557 57.6665 34.6545C57.6665 34.6533 57.6665 34.6521 57.6665 34.6508C57.6665 34.6496 57.6665 34.6484 57.6665 34.6472C57.6665 34.646 57.6665 34.6447 57.6665 34.6435C57.6665 34.6423 57.6665 34.6411 57.6665 34.6398C57.6665 34.6386 57.6665 34.6374 57.6665 34.6362C57.6665 34.6349 57.6665 34.6337 57.6665 34.6325C57.6665 34.6313 57.6665 34.63 57.6665 34.6288C57.6665 34.6276 57.6665 34.6264 57.6665 34.6252C57.6665 34.6239 57.6665 34.6227 57.6665 34.6215C57.6665 34.6203 57.6665 34.619 57.6665 34.6178C57.6665 34.6166 57.6665 34.6154 57.6665 34.6141C57.6665 34.6129 57.6665 34.6117 57.6665 34.6105C57.6665 34.6092 57.6665 34.608 57.6665 34.6068C57.6665 34.6056 57.6665 34.6043 57.6665 34.6031C57.6665 34.6019 57.6665 34.6007 57.6665 34.5994C57.6665 34.5982 57.6665 34.597 57.6665 34.5958C57.6665 34.5946 57.6665 34.5933 57.6665 34.5921C57.6665 34.5909 57.6665 34.5897 57.6665 34.5884C57.6665 34.5872 57.6665 34.586 57.6665 34.5848C57.6665 34.5835 57.6665 34.5823 57.6665 34.5811C57.6665 34.5799 57.6665 34.5786 57.6665 34.5774C57.6665 34.5762 57.6665 34.575 57.6665 34.5737C57.6665 34.5725 57.6665 34.5713 57.6665 34.5701C57.6665 34.5688 57.6665 34.5676 57.6665 34.5664C57.6665 34.5651 57.6665 34.5639 57.6665 34.5627C57.6665 34.5615 57.6665 34.5602 57.6665 34.559C57.6665 34.5578 57.6665 34.5566 57.6665 34.5553C57.6665 34.5541 57.6665 34.5529 57.6665 34.5517C57.6665 34.5504 57.6665 34.5492 57.6665 34.548C57.6665 34.5468 57.6665 34.5455 57.6665 34.5443C57.6665 34.5431 57.6665 34.5419 57.6665 34.5406C57.6665 34.5394 57.6665 34.5382 57.6665 34.537C57.6665 34.5357 57.6665 34.5345 57.6665 34.5333C57.6665 34.532 57.6665 34.5308 57.6665 34.5296C57.6665 34.5284 57.6665 34.5271 57.6665 34.5259C57.6665 34.5247 57.6665 34.5235 57.6665 34.5222C57.6665 34.521 57.6665 34.5198 57.6665 34.5186C57.6665 34.5173 57.6665 34.5161 57.6665 34.5149C57.6665 34.5136 57.6665 34.5124 57.6665 34.5112C57.6665 34.51 57.6665 34.5087 57.6665 34.5075C57.6665 34.5063 57.6665 34.5051 57.6665 34.5038C57.6665 34.5026 57.6665 34.5014 57.6665 34.5001C57.6665 34.4989 57.6665 34.4977 57.6665 34.4965C57.6665 34.4952 57.6665 34.494 57.6665 34.4928C57.6665 34.4916 57.6665 34.4903 57.6665 34.4891C57.6665 34.4879 57.6665 34.4866 57.6665 34.4854C57.6665 34.4842 57.6665 34.483 57.6665 34.4817C57.6665 34.4805 57.6665 34.4793 57.6665 34.478C57.6665 34.4768 57.6665 34.4756 57.6665 34.4744C57.6665 34.4731 57.6665 34.4719 57.6665 34.4707C57.6665 34.4694 57.6665 34.4682 57.6665 34.467C57.6665 34.4658 57.6665 34.4645 57.6665 34.4633C57.6665 34.4621 57.6665 34.4608 57.6665 34.4596C57.6665 34.4584 57.6665 34.4572 57.6665 34.4559C57.6665 34.4547 57.6665 34.4535 57.6665 34.4522C57.6665 34.451 57.6665 34.4498 57.6665 34.4486C57.6665 34.4473 57.6665 34.4461 57.6665 34.4449C57.6665 34.4436 57.6665 34.4424 57.6665 34.4412C57.6665 34.44 57.6665 34.4387 57.6665 34.4375C57.6665 34.4363 57.6665 34.435 57.6665 34.4338C57.6665 34.4326 57.6665 34.4313 57.6665 34.4301C57.6665 34.4289 57.6665 34.4277 57.6665 34.4264C57.6665 34.4252 57.6665 34.424 57.6665 34.4227C57.6665 34.4215 57.6665 34.4203 57.6665 34.419C57.6665 34.4178 57.6665 34.4166 57.6665 34.4154C57.6665 34.4141 57.6665 34.4129 57.6665 34.4117C57.6665 34.4104 57.6665 34.4092 57.6665 34.408C57.6665 34.4067 57.6665 34.4055 57.6665 34.4043C57.6665 34.4031 57.6665 34.4018 57.6665 34.4006C57.6665 34.3994 57.6665 34.3981 57.6665 34.3969C57.6665 34.3957 57.6665 34.3944 57.6665 34.3932C57.6665 34.392 57.6665 34.3907 57.6665 34.3895C57.6665 34.3883 57.6665 34.3871 57.6665 34.3858C57.6665 34.3846 57.6665 34.3834 57.6665 34.3821C57.6665 34.3809 57.6665 34.3797 57.6665 34.3784C57.6665 34.3772 57.6665 34.376 57.6665 34.3747C57.6665 34.3735 57.6665 34.3723 57.6665 34.371C57.6665 34.3698 57.6665 34.3686 57.6665 34.3674C57.6665 34.3661 57.6665 34.3649 57.6665 34.3637C57.6665 34.3624 57.6665 34.3612 57.6665 34.36C57.6665 34.3587 57.6665 34.3575 57.6665 34.3563C57.6665 34.355 57.6665 34.3538 57.6665 34.3526C57.6665 34.3513 57.6665 34.3501 57.6665 34.3489C57.6665 34.3476 57.6665 34.3464 57.6665 34.3452C57.6665 34.344 57.6665 34.3427 57.6665 34.3415C57.6665 34.3403 57.6665 34.339 57.6665 34.3378C57.6665 34.3366 57.6665 34.3353 57.6665 34.3341C57.6665 34.3329 57.6665 34.3316 57.6665 34.3304C57.6665 34.3292 57.6665 34.3279 57.6665 34.3267C57.6665 34.3255 57.6665 34.3242 57.6665 34.323C57.6665 34.3218 57.6665 34.3205 57.6665 34.3193C57.6665 34.3181 57.6665 34.3168 57.6665 34.3156C57.6665 34.3144 57.6665 34.3131 57.6665 34.3119C57.6665 34.3107 57.6665 34.3094 57.6665 34.3082C57.6665 34.307 57.6665 34.3057 57.6665 34.3045C57.6665 34.3033 57.6665 34.302 57.6665 34.3008C57.6665 34.2996 57.6665 34.2983 57.6665 34.2971C57.6665 34.2959 57.6665 34.2946 57.6665 34.2934C57.6665 34.2922 57.6665 34.2909 57.6665 34.2897C57.6665 34.2885 57.6665 34.2872 57.6665 34.286C57.6665 34.2848 57.6665 34.2835 57.6665 34.2823C57.6665 34.2811 57.6665 34.2798 57.6665 34.2786C57.6665 34.2774 57.6665 34.2761 57.6665 34.2749C57.6665 34.2736 57.6665 34.2724 57.6665 34.2712C57.6665 34.2699 57.6665 34.2687 57.6665 34.2675C57.6665 34.2662 57.6665 34.265 57.6665 34.2638C57.6665 34.2625 57.6665 34.2613 57.6665 34.2601C57.6665 34.2588 57.6665 34.2576 57.6665 34.2564C57.6665 34.2551 57.6665 34.2539 57.6665 34.2527C57.6665 34.2514 57.6665 34.2502 57.6665 34.249C57.6665 34.2477 57.6665 34.2465 57.6665 34.2452C57.6665 34.244 57.6665 34.2428 57.6665 34.2415C57.6665 34.2403 57.6665 34.2391 57.6665 34.2378C57.6665 34.2366 57.6665 34.2354 57.6665 34.2341C57.6665 34.2329 57.6665 34.2317 57.6665 34.2304C57.6665 34.2292 57.6665 34.2279 57.6665 34.2267C57.6665 34.2255 57.6665 34.2242 57.6665 34.223C57.6665 34.2218 57.6665 34.2205 57.6665 34.2193C57.6665 34.2181 57.6665 34.2168 57.6665 34.2156C57.6665 34.2144 57.6665 34.2131 57.6665 34.2119C57.6665 34.2106 57.6665 34.2094 57.6665 34.2082C57.6665 34.2069 57.6665 34.2057 57.6665 34.2045C57.6665 34.2032 57.6665 34.202 57.6665 34.2008C57.6665 34.1995 57.6665 34.1983 57.6665 34.197C57.6665 34.1958 57.6665 34.1946 57.6665 34.1933C57.6665 34.1921 57.6665 34.1909 57.6665 34.1896C57.6665 34.1884 57.6665 34.1871 57.6665 34.1859C57.6665 34.1847 57.6665 34.1834 57.6665 34.1822C57.6665 34.181 57.6665 34.1797 57.6665 34.1785C57.6665 34.1772 57.6665 34.176 57.6665 34.1748C57.6665 34.1735 57.6665 34.1723 57.6665 34.1711C57.6665 34.1698 57.6665 34.1686 57.6665 34.1674C57.6665 34.1661 57.6665 34.1649 57.6665 34.1636C57.6665 34.1624 57.6665 34.1612 57.6665 34.1599C57.6665 34.1587 57.6665 34.1574 57.6665 34.1562C57.6665 34.155 57.6665 34.1537 57.6665 34.1525C57.6665 34.1513 57.6665 34.15 57.6665 34.1488C57.6665 34.1475 57.6665 34.1463 57.6665 34.1451C57.6665 34.1438 57.6665 34.1426 57.6665 34.1414C57.6665 34.1401 57.6665 34.1389 57.6665 34.1376C57.6665 34.1364 57.6665 34.1352 57.6665 34.1339C57.6665 34.1327 57.6665 34.1314 57.6665 34.1302C57.6665 34.129 57.6665 34.1277 57.6665 34.1265C57.6665 34.1252 57.6665 34.124 57.6665 34.1228C57.6665 34.1215 57.6665 34.1203 57.6665 34.1191C57.6665 34.1178 57.6665 34.1166 57.6665 34.1153C57.6665 34.1141 57.6665 34.1129 57.6665 34.1116C57.6665 34.1104 57.6665 34.1091 57.6665 34.1079C57.6665 34.1067 57.6665 34.1054 57.6665 34.1042C57.6665 34.1029 57.6665 34.1017 57.6665 34.1005C57.6665 34.0992 57.6665 34.098 57.6665 34.0967C57.6665 34.0955 57.6665 34.0943 57.6665 34.093C57.6665 34.0918 57.6665 34.0905 57.6665 34.0893C57.6665 34.0881 57.6665 34.0868 57.6665 34.0856C57.6665 34.0843 57.6665 34.0831 57.6665 34.0819C57.6665 34.0806 57.6665 34.0794 57.6665 34.0781C57.6665 34.0769 57.6665 34.0757 57.6665 34.0744C57.6665 34.0732 57.6665 34.0719 57.6665 34.0707C57.6665 34.0695 57.6665 34.0682 57.6665 34.067H55.6665C55.6665 34.0682 55.6665 34.0695 55.6665 34.0707C55.6665 34.0719 55.6665 34.0732 55.6665 34.0744C55.6665 34.0757 55.6665 34.0769 55.6665 34.0781C55.6665 34.0794 55.6665 34.0806 55.6665 34.0819C55.6665 34.0831 55.6665 34.0843 55.6665 34.0856C55.6665 34.0868 55.6665 34.0881 55.6665 34.0893C55.6665 34.0905 55.6665 34.0918 55.6665 34.093C55.6665 34.0943 55.6665 34.0955 55.6665 34.0967C55.6665 34.098 55.6665 34.0992 55.6665 34.1005C55.6665 34.1017 55.6665 34.1029 55.6665 34.1042C55.6665 34.1054 55.6665 34.1067 55.6665 34.1079C55.6665 34.1091 55.6665 34.1104 55.6665 34.1116C55.6665 34.1129 55.6665 34.1141 55.6665 34.1153C55.6665 34.1166 55.6665 34.1178 55.6665 34.1191C55.6665 34.1203 55.6665 34.1215 55.6665 34.1228C55.6665 34.124 55.6665 34.1252 55.6665 34.1265C55.6665 34.1277 55.6665 34.129 55.6665 34.1302C55.6665 34.1314 55.6665 34.1327 55.6665 34.1339C55.6665 34.1352 55.6665 34.1364 55.6665 34.1376C55.6665 34.1389 55.6665 34.1401 55.6665 34.1414C55.6665 34.1426 55.6665 34.1438 55.6665 34.1451C55.6665 34.1463 55.6665 34.1475 55.6665 34.1488C55.6665 34.15 55.6665 34.1513 55.6665 34.1525C55.6665 34.1537 55.6665 34.155 55.6665 34.1562C55.6665 34.1574 55.6665 34.1587 55.6665 34.1599C55.6665 34.1612 55.6665 34.1624 55.6665 34.1636C55.6665 34.1649 55.6665 34.1661 55.6665 34.1674C55.6665 34.1686 55.6665 34.1698 55.6665 34.1711C55.6665 34.1723 55.6665 34.1735 55.6665 34.1748C55.6665 34.176 55.6665 34.1772 55.6665 34.1785C55.6665 34.1797 55.6665 34.181 55.6665 34.1822C55.6665 34.1834 55.6665 34.1847 55.6665 34.1859C55.6665 34.1871 55.6665 34.1884 55.6665 34.1896C55.6665 34.1909 55.6665 34.1921 55.6665 34.1933C55.6665 34.1946 55.6665 34.1958 55.6665 34.197C55.6665 34.1983 55.6665 34.1995 55.6665 34.2008C55.6665 34.202 55.6665 34.2032 55.6665 34.2045C55.6665 34.2057 55.6665 34.2069 55.6665 34.2082C55.6665 34.2094 55.6665 34.2106 55.6665 34.2119C55.6665 34.2131 55.6665 34.2144 55.6665 34.2156C55.6665 34.2168 55.6665 34.2181 55.6665 34.2193C55.6665 34.2205 55.6665 34.2218 55.6665 34.223C55.6665 34.2242 55.6665 34.2255 55.6665 34.2267C55.6665 34.2279 55.6665 34.2292 55.6665 34.2304C55.6665 34.2317 55.6665 34.2329 55.6665 34.2341C55.6665 34.2354 55.6665 34.2366 55.6665 34.2378C55.6665 34.2391 55.6665 34.2403 55.6665 34.2415C55.6665 34.2428 55.6665 34.244 55.6665 34.2452C55.6665 34.2465 55.6665 34.2477 55.6665 34.249C55.6665 34.2502 55.6665 34.2514 55.6665 34.2527C55.6665 34.2539 55.6665 34.2551 55.6665 34.2564C55.6665 34.2576 55.6665 34.2588 55.6665 34.2601C55.6665 34.2613 55.6665 34.2625 55.6665 34.2638C55.6665 34.265 55.6665 34.2662 55.6665 34.2675C55.6665 34.2687 55.6665 34.2699 55.6665 34.2712C55.6665 34.2724 55.6665 34.2736 55.6665 34.2749C55.6665 34.2761 55.6665 34.2774 55.6665 34.2786C55.6665 34.2798 55.6665 34.2811 55.6665 34.2823C55.6665 34.2835 55.6665 34.2848 55.6665 34.286C55.6665 34.2872 55.6665 34.2885 55.6665 34.2897C55.6665 34.2909 55.6665 34.2922 55.6665 34.2934C55.6665 34.2946 55.6665 34.2959 55.6665 34.2971C55.6665 34.2983 55.6665 34.2996 55.6665 34.3008C55.6665 34.302 55.6665 34.3033 55.6665 34.3045C55.6665 34.3057 55.6665 34.307 55.6665 34.3082C55.6665 34.3094 55.6665 34.3107 55.6665 34.3119C55.6665 34.3131 55.6665 34.3144 55.6665 34.3156C55.6665 34.3168 55.6665 34.3181 55.6665 34.3193C55.6665 34.3205 55.6665 34.3218 55.6665 34.323C55.6665 34.3242 55.6665 34.3255 55.6665 34.3267C55.6665 34.3279 55.6665 34.3292 55.6665 34.3304C55.6665 34.3316 55.6665 34.3329 55.6665 34.3341C55.6665 34.3353 55.6665 34.3366 55.6665 34.3378C55.6665 34.339 55.6665 34.3403 55.6665 34.3415C55.6665 34.3427 55.6665 34.344 55.6665 34.3452C55.6665 34.3464 55.6665 34.3476 55.6665 34.3489C55.6665 34.3501 55.6665 34.3513 55.6665 34.3526C55.6665 34.3538 55.6665 34.355 55.6665 34.3563C55.6665 34.3575 55.6665 34.3587 55.6665 34.36C55.6665 34.3612 55.6665 34.3624 55.6665 34.3637C55.6665 34.3649 55.6665 34.3661 55.6665 34.3674C55.6665 34.3686 55.6665 34.3698 55.6665 34.371C55.6665 34.3723 55.6665 34.3735 55.6665 34.3747C55.6665 34.376 55.6665 34.3772 55.6665 34.3784C55.6665 34.3797 55.6665 34.3809 55.6665 34.3821C55.6665 34.3834 55.6665 34.3846 55.6665 34.3858C55.6665 34.3871 55.6665 34.3883 55.6665 34.3895C55.6665 34.3907 55.6665 34.392 55.6665 34.3932C55.6665 34.3944 55.6665 34.3957 55.6665 34.3969C55.6665 34.3981 55.6665 34.3994 55.6665 34.4006C55.6665 34.4018 55.6665 34.4031 55.6665 34.4043C55.6665 34.4055 55.6665 34.4067 55.6665 34.408C55.6665 34.4092 55.6665 34.4104 55.6665 34.4117C55.6665 34.4129 55.6665 34.4141 55.6665 34.4154C55.6665 34.4166 55.6665 34.4178 55.6665 34.419C55.6665 34.4203 55.6665 34.4215 55.6665 34.4227C55.6665 34.424 55.6665 34.4252 55.6665 34.4264C55.6665 34.4277 55.6665 34.4289 55.6665 34.4301C55.6665 34.4313 55.6665 34.4326 55.6665 34.4338C55.6665 34.435 55.6665 34.4363 55.6665 34.4375C55.6665 34.4387 55.6665 34.44 55.6665 34.4412C55.6665 34.4424 55.6665 34.4436 55.6665 34.4449C55.6665 34.4461 55.6665 34.4473 55.6665 34.4486C55.6665 34.4498 55.6665 34.451 55.6665 34.4522C55.6665 34.4535 55.6665 34.4547 55.6665 34.4559C55.6665 34.4572 55.6665 34.4584 55.6665 34.4596C55.6665 34.4608 55.6665 34.4621 55.6665 34.4633C55.6665 34.4645 55.6665 34.4658 55.6665 34.467C55.6665 34.4682 55.6665 34.4694 55.6665 34.4707C55.6665 34.4719 55.6665 34.4731 55.6665 34.4744C55.6665 34.4756 55.6665 34.4768 55.6665 34.478C55.6665 34.4793 55.6665 34.4805 55.6665 34.4817C55.6665 34.483 55.6665 34.4842 55.6665 34.4854C55.6665 34.4866 55.6665 34.4879 55.6665 34.4891C55.6665 34.4903 55.6665 34.4916 55.6665 34.4928C55.6665 34.494 55.6665 34.4952 55.6665 34.4965C55.6665 34.4977 55.6665 34.4989 55.6665 34.5001C55.6665 34.5014 55.6665 34.5026 55.6665 34.5038C55.6665 34.5051 55.6665 34.5063 55.6665 34.5075C55.6665 34.5087 55.6665 34.51 55.6665 34.5112C55.6665 34.5124 55.6665 34.5136 55.6665 34.5149C55.6665 34.5161 55.6665 34.5173 55.6665 34.5186C55.6665 34.5198 55.6665 34.521 55.6665 34.5222C55.6665 34.5235 55.6665 34.5247 55.6665 34.5259C55.6665 34.5271 55.6665 34.5284 55.6665 34.5296C55.6665 34.5308 55.6665 34.532 55.6665 34.5333C55.6665 34.5345 55.6665 34.5357 55.6665 34.537C55.6665 34.5382 55.6665 34.5394 55.6665 34.5406C55.6665 34.5419 55.6665 34.5431 55.6665 34.5443C55.6665 34.5455 55.6665 34.5468 55.6665 34.548C55.6665 34.5492 55.6665 34.5504 55.6665 34.5517C55.6665 34.5529 55.6665 34.5541 55.6665 34.5553C55.6665 34.5566 55.6665 34.5578 55.6665 34.559C55.6665 34.5602 55.6665 34.5615 55.6665 34.5627C55.6665 34.5639 55.6665 34.5651 55.6665 34.5664C55.6665 34.5676 55.6665 34.5688 55.6665 34.5701C55.6665 34.5713 55.6665 34.5725 55.6665 34.5737C55.6665 34.575 55.6665 34.5762 55.6665 34.5774C55.6665 34.5786 55.6665 34.5799 55.6665 34.5811C55.6665 34.5823 55.6665 34.5835 55.6665 34.5848C55.6665 34.586 55.6665 34.5872 55.6665 34.5884C55.6665 34.5897 55.6665 34.5909 55.6665 34.5921C55.6665 34.5933 55.6665 34.5946 55.6665 34.5958C55.6665 34.597 55.6665 34.5982 55.6665 34.5994C55.6665 34.6007 55.6665 34.6019 55.6665 34.6031C55.6665 34.6043 55.6665 34.6056 55.6665 34.6068C55.6665 34.608 55.6665 34.6092 55.6665 34.6105C55.6665 34.6117 55.6665 34.6129 55.6665 34.6141C55.6665 34.6154 55.6665 34.6166 55.6665 34.6178C55.6665 34.619 55.6665 34.6203 55.6665 34.6215C55.6665 34.6227 55.6665 34.6239 55.6665 34.6252C55.6665 34.6264 55.6665 34.6276 55.6665 34.6288C55.6665 34.63 55.6665 34.6313 55.6665 34.6325C55.6665 34.6337 55.6665 34.6349 55.6665 34.6362C55.6665 34.6374 55.6665 34.6386 55.6665 34.6398C55.6665 34.6411 55.6665 34.6423 55.6665 34.6435C55.6665 34.6447 55.6665 34.646 55.6665 34.6472C55.6665 34.6484 55.6665 34.6496 55.6665 34.6508C55.6665 34.6521 55.6665 34.6533 55.6665 34.6545C55.6665 34.6557 55.6665 34.657 55.6665 34.6582C55.6665 34.6594 55.6665 34.6606 55.6665 34.6618C55.6665 34.6631 55.6665 34.6643 55.6665 34.6655C55.6665 34.6667 55.6665 34.668 55.6665 34.6692C55.6665 34.6704 55.6665 34.6716 55.6665 34.6728C55.6665 34.6741 55.6665 34.6753 55.6665 34.6765C55.6665 34.6777 55.6665 34.679 55.6665 34.6802C55.6665 34.6814 55.6665 34.6826 55.6665 34.6838C55.6665 34.6851 55.6665 34.6863 55.6665 34.6875C55.6665 34.6887 55.6665 34.69 55.6665 34.6912C55.6665 34.6924 55.6665 34.6936 55.6665 34.6948C55.6665 34.6961 55.6665 34.6973 55.6665 34.6985C55.6665 34.6997 55.6665 34.701 55.6665 34.7022C55.6665 34.7034 55.6665 34.7046 55.6665 34.7058C55.6665 34.7071 55.6665 34.7083 55.6665 34.7095C55.6665 34.7107 55.6665 34.7119 55.6665 34.7132C55.6665 34.7144 55.6665 34.7156 55.6665 34.7168C55.6665 34.718 55.6665 34.7193 55.6665 34.7205C55.6665 34.7217 55.6665 34.7229 55.6665 34.7241C55.6665 34.7254 55.6665 34.7266 55.6665 34.7278C55.6665 34.729 55.6665 34.7303 55.6665 34.7315C55.6665 34.7327 55.6665 34.7339 55.6665 34.7351C55.6665 34.7364 55.6665 34.7376 55.6665 34.7388C55.6665 34.74 55.6665 34.7412 55.6665 34.7425C55.6665 34.7437 55.6665 34.7449 55.6665 34.7461C55.6665 34.7473 55.6665 34.7486 55.6665 34.7498C55.6665 34.751 55.6665 34.7522 55.6665 34.7534C55.6665 34.7547 55.6665 34.7559 55.6665 34.7571C55.6665 34.7583 55.6665 34.7595 55.6665 34.7608C55.6665 34.762 55.6665 34.7632 55.6665 34.7644C55.6665 34.7656 55.6665 34.7668 55.6665 34.7681C55.6665 34.7693 55.6665 34.7705 55.6665 34.7717C55.6665 34.7729 55.6665 34.7742 55.6665 34.7754C55.6665 34.7766 55.6665 34.7778 55.6665 34.779C55.6665 34.7803 55.6665 34.7815 55.6665 34.7827C55.6665 34.7839 55.6665 34.7851 55.6665 34.7864C55.6665 34.7876 55.6665 34.7888 55.6665 34.79C55.6665 34.7912 55.6665 34.7924 55.6665 34.7937C55.6665 34.7949 55.6665 34.7961 55.6665 34.7973C55.6665 34.7985 55.6665 34.7998 55.6665 34.801C55.6665 34.8022 55.6665 34.8034 55.6665 34.8046C55.6665 34.8058 55.6665 34.8071 55.6665 34.8083C55.6665 34.8095 55.6665 34.8107 55.6665 34.8119C55.6665 34.8132 55.6665 34.8144 55.6665 34.8156C55.6665 34.8168 55.6665 34.818 55.6665 34.8192C55.6665 34.8205 55.6665 34.8217 55.6665 34.8229C55.6665 34.8241 55.6665 34.8253 55.6665 34.8265C55.6665 34.8278 55.6665 34.829 55.6665 34.8302C55.6665 34.8314 55.6665 34.8326 55.6665 34.8339C55.6665 34.8351 55.6665 34.8363 55.6665 34.8375C55.6665 34.8387 55.6665 34.8399 55.6665 34.8412C55.6665 34.8424 55.6665 34.8436 55.6665 34.8448C55.6665 34.846 55.6665 34.8472 55.6665 34.8485C55.6665 34.8497 55.6665 34.8509 55.6665 34.8521C55.6665 34.8533 55.6665 34.8545 55.6665 34.8558C55.6665 34.857 55.6665 34.8582 55.6665 34.8594C55.6665 34.8606 55.6665 34.8618 55.6665 34.8631C55.6665 34.8643 55.6665 34.8655 55.6665 34.8667C55.6665 34.8679 55.6665 34.8691 55.6665 34.8704C55.6665 34.8716 55.6665 34.8728 55.6665 34.874C55.6665 34.8752 55.6665 34.8764 55.6665 34.8776C55.6665 34.8789 55.6665 34.8801 55.6665 34.8813C55.6665 34.8825 55.6665 34.8837 55.6665 34.8849C55.6665 34.8862 55.6665 34.8874 55.6665 34.8886C55.6665 34.8898 55.6665 34.891 55.6665 34.8922C55.6665 34.8935 55.6665 34.8947 55.6665 34.8959C55.6665 34.8971 55.6665 34.8983 55.6665 34.8995C55.6665 34.9007 55.6665 34.902 55.6665 34.9032C55.6665 34.9044 55.6665 34.9056 55.6665 34.9068C55.6665 34.908 55.6665 34.9093 55.6665 34.9105C55.6665 34.9117 55.6665 34.9129 55.6665 34.9141C55.6665 34.9153 55.6665 34.9165 55.6665 34.9178C55.6665 34.919 55.6665 34.9202 55.6665 34.9214C55.6665 34.9226 55.6665 34.9238 55.6665 34.925C55.6665 34.9263 55.6665 34.9275 55.6665 34.9287C55.6665 34.9299 55.6665 34.9311 55.6665 34.9323C55.6665 34.9335 55.6665 34.9348 55.6665 34.936C55.6665 34.9372 55.6665 34.9384 55.6665 34.9396C55.6665 34.9408 55.6665 34.942 55.6665 34.9433C55.6665 34.9445 55.6665 34.9457 55.6665 34.9469C55.6665 34.9481 55.6665 34.9493 55.6665 34.9505C55.6665 34.9517 55.6665 34.953 55.6665 34.9542C55.6665 34.9554 55.6665 34.9566 55.6665 34.9578C55.6665 34.959 55.6665 34.9602 55.6665 34.9615C55.6665 34.9627 55.6665 34.9639 55.6665 34.9651C55.6665 34.9663 55.6665 34.9675 55.6665 34.9687C55.6665 34.9699 55.6665 34.9712 55.6665 34.9724C55.6665 34.9736 55.6665 34.9748 55.6665 34.976C55.6665 34.9772 55.6665 34.9784 55.6665 34.9797C55.6665 34.9809 55.6665 34.9821 55.6665 34.9833C55.6665 34.9845 55.6665 34.9857 55.6665 34.9869C55.6665 34.9881 55.6665 34.9894 55.6665 34.9906C55.6665 34.9918 55.6665 34.993 55.6665 34.9942C55.6665 34.9954 55.6665 34.9966 55.6665 34.9978C55.6665 34.9991 55.6665 35.0003 55.6665 35.0015C55.6665 35.0027 55.6665 35.0039 55.6665 35.0051C55.6665 35.0063 55.6665 35.0075 55.6665 35.0087C55.6665 35.01 55.6665 35.0112 55.6665 35.0124C55.6665 35.0136 55.6665 35.0148 55.6665 35.016C55.6665 35.0172 55.6665 35.0184 55.6665 35.0197C55.6665 35.0209 55.6665 35.0221 55.6665 35.0233C55.6665 35.0245 55.6665 35.0257 55.6665 35.0269C55.6665 35.0281 55.6665 35.0293 55.6665 35.0306C55.6665 35.0318 55.6665 35.033 55.6665 35.0342C55.6665 35.0354 55.6665 35.0366 55.6665 35.0378C55.6665 35.039 55.6665 35.0402 55.6665 35.0415C55.6665 35.0427 55.6665 35.0439 55.6665 35.0451C55.6665 35.0463 55.6665 35.0475 55.6665 35.0487C55.6665 35.0499 55.6665 35.0511 55.6665 35.0523C55.6665 35.0536 55.6665 35.0548 55.6665 35.056C55.6665 35.0572 55.6665 35.0584 55.6665 35.0596C55.6665 35.0608 55.6665 35.062 55.6665 35.0632C55.6665 35.0645 55.6665 35.0657 55.6665 35.0669C55.6665 35.0681 55.6665 35.0693 55.6665 35.0705C55.6665 35.0717 55.6665 35.0729 55.6665 35.0741C55.6665 35.0753 55.6665 35.0766 55.6665 35.0778C55.6665 35.079 55.6665 35.0802 55.6665 35.0814C55.6665 35.0826 55.6665 35.0838 55.6665 35.085C55.6665 35.0862 55.6665 35.0874 55.6665 35.0886C55.6665 35.0899 55.6665 35.0911 55.6665 35.0923C55.6665 35.0935 55.6665 35.0947 55.6665 35.0959C55.6665 35.0971 55.6665 35.0983 55.6665 35.0995C55.6665 35.1007 55.6665 35.1019 55.6665 35.1032C55.6665 35.1044 55.6665 35.1056 55.6665 35.1068C55.6665 35.108 55.6665 35.1092 55.6665 35.1104C55.6665 35.1116 55.6665 35.1128 55.6665 35.114C55.6665 35.1152 55.6665 35.1165 55.6665 35.1177C55.6665 35.1189 55.6665 35.1201 55.6665 35.1213C55.6665 35.1225 55.6665 35.1237 55.6665 35.1249C55.6665 35.1261 55.6665 35.1273 55.6665 35.1285C55.6665 35.1297 55.6665 35.131 55.6665 35.1322C55.6665 35.1334 55.6665 35.1346 55.6665 35.1358C55.6665 35.137 55.6665 35.1382 55.6665 35.1394C55.6665 35.1406 55.6665 35.1418 55.6665 35.143C55.6665 35.1442 55.6665 35.1454 55.6665 35.1467C55.6665 35.1479 55.6665 35.1491 55.6665 35.1503C55.6665 35.1515 55.6665 35.1527 55.6665 35.1539C55.6665 35.1551 55.6665 35.1563 55.6665 35.1575C55.6665 35.1587 55.6665 35.1599 55.6665 35.1611C55.6665 35.1623 55.6665 35.1636 55.6665 35.1648C55.6665 35.166 55.6665 35.1672 55.6665 35.1684C55.6665 35.1696 55.6665 35.1708 55.6665 35.172C55.6665 35.1732 55.6665 35.1744 55.6665 35.1756C55.6665 35.1768 55.6665 35.178 55.6665 35.1792C55.6665 35.1804 55.6665 35.1817 55.6665 35.1829C55.6665 35.1841 55.6665 35.1853 55.6665 35.1865C55.6665 35.1877 55.6665 35.1889 55.6665 35.1901C55.6665 35.1913 55.6665 35.1925 55.6665 35.1937C55.6665 35.1949 55.6665 35.1961 55.6665 35.1973C55.6665 35.1985 55.6665 35.1997 55.6665 35.201C55.6665 35.2022 55.6665 35.2034 55.6665 35.2046C55.6665 35.2058 55.6665 35.207 55.6665 35.2082C55.6665 35.2094 55.6665 35.2106 55.6665 35.2118C55.6665 35.213 55.6665 35.2142 55.6665 35.2154C55.6665 35.2166 55.6665 35.2178 55.6665 35.219C55.6665 35.2202 55.6665 35.2214 55.6665 35.2227C55.6665 35.2239 55.6665 35.2251 55.6665 35.2263C55.6665 35.2275 55.6665 35.2287 55.6665 35.2299C55.6665 35.2311 55.6665 35.2323 55.6665 35.2335C55.6665 35.2347 55.6665 35.2359 55.6665 35.2371C55.6665 35.2383 55.6665 35.2395 55.6665 35.2407C55.6665 35.2419 55.6665 35.2431 55.6665 35.2443C55.6665 35.2455 55.6665 35.2467 55.6665 35.248C55.6665 35.2492 55.6665 35.2504 55.6665 35.2516C55.6665 35.2528 55.6665 35.254 55.6665 35.2552C55.6665 35.2564 55.6665 35.2576 55.6665 35.2588C55.6665 35.26 55.6665 35.2612 55.6665 35.2624C55.6665 35.2636 55.6665 35.2648 55.6665 35.266C55.6665 35.2672 55.6665 35.2684 55.6665 35.2696C55.6665 35.2708 55.6665 35.272 55.6665 35.2732C55.6665 35.2744 55.6665 35.2756 55.6665 35.2768C55.6665 35.2781 55.6665 35.2793 55.6665 35.2805C55.6665 35.2817 55.6665 35.2829 55.6665 35.2841C55.6665 35.2853 55.6665 35.2865 55.6665 35.2877C55.6665 35.2889 55.6665 35.2901 55.6665 35.2913C55.6665 35.2925 55.6665 35.2937 55.6665 35.2949C55.6665 35.2961 55.6665 35.2973 55.6665 35.2985C55.6665 35.2997 55.6665 35.3009 55.6665 35.3021C55.6665 35.3033 55.6665 35.3045 55.6665 35.3057C55.6665 35.3069 55.6665 35.3081 55.6665 35.3093C55.6665 35.3105 55.6665 35.3117 55.6665 35.3129C55.6665 35.3141 55.6665 35.3153 55.6665 35.3165C55.6665 35.3177 55.6665 35.3189 55.6665 35.3202C55.6665 35.3214 55.6665 35.3226 55.6665 35.3238C55.6665 35.325 55.6665 35.3262 55.6665 35.3274C55.6665 35.3286 55.6665 35.3298 55.6665 35.331C55.6665 35.3322 55.6665 35.3334 55.6665 35.3346C55.6665 35.3358 55.6665 35.337 55.6665 35.3382C55.6665 35.3394 55.6665 35.3406 55.6665 35.3418C55.6665 35.343 55.6665 35.3442 55.6665 35.3454C55.6665 35.3466 55.6665 35.3478 55.6665 35.349C55.6665 35.3502 55.6665 35.3514 55.6665 35.3526C55.6665 35.3538 55.6665 35.355 55.6665 35.3562C55.6665 35.3574 55.6665 35.3586 55.6665 35.3598C55.6665 35.361 55.6665 35.3622 55.6665 35.3634C55.6665 35.3646 55.6665 35.3658 55.6665 35.367C55.6665 35.3682 55.6665 35.3694 55.6665 35.3706C55.6665 35.3718 55.6665 35.373 55.6665 35.3742C55.6665 35.3754 55.6665 35.3766 55.6665 35.3778C55.6665 35.379 55.6665 35.3802 55.6665 35.3814C55.6665 35.3826 55.6665 35.3838 55.6665 35.385C55.6665 35.3862 55.6665 35.3874 55.6665 35.3886C55.6665 35.3898 55.6665 35.391 55.6665 35.3922C55.6665 35.3934 55.6665 35.3946 55.6665 35.3958C55.6665 35.397 55.6665 35.3982 55.6665 35.3994C55.6665 35.4006 55.6665 35.4018 55.6665 35.403C55.6665 35.4042 55.6665 35.4054 55.6665 35.4066C55.6665 35.4078 55.6665 35.409 55.6665 35.4102C55.6665 35.4114 55.6665 35.4126 55.6665 35.4138C55.6665 35.415 55.6665 35.4162 55.6665 35.4174C55.6665 35.4186 55.6665 35.4198 55.6665 35.421C55.6665 35.4222 55.6665 35.4234 55.6665 35.4246C55.6665 35.4258 55.6665 35.427 55.6665 35.4282C55.6665 35.4294 55.6665 35.4306 55.6665 35.4318C55.6665 35.433 55.6665 35.4342 55.6665 35.4354C55.6665 35.4366 55.6665 35.4378 55.6665 35.439C55.6665 35.4402 55.6665 35.4414 55.6665 35.4426C55.6665 35.4438 55.6665 35.445 55.6665 35.4462C55.6665 35.4474 55.6665 35.4486 55.6665 35.4498C55.6665 35.451 55.6665 35.4522 55.6665 35.4534C55.6665 35.4546 55.6665 35.4558 55.6665 35.457C55.6665 35.4581 55.6665 35.4593 55.6665 35.4605C55.6665 35.4617 55.6665 35.4629 55.6665 35.4641C55.6665 35.4653 55.6665 35.4665 55.6665 35.4677C55.6665 35.4689 55.6665 35.4701 55.6665 35.4713C55.6665 35.4725 55.6665 35.4737 55.6665 35.4749C55.6665 35.4761 55.6665 35.4773 55.6665 35.4785C55.6665 35.4797 55.6665 35.4809 55.6665 35.4821C55.6665 35.4833 55.6665 35.4845 55.6665 35.4857C55.6665 35.4869 55.6665 35.4881 55.6665 35.4893C55.6665 35.4905 55.6665 35.4917 55.6665 35.4929C55.6665 35.4941 55.6665 35.4953 55.6665 35.4965C55.6665 35.4977 55.6665 35.4989 55.6665 35.5C55.6665 35.5012 55.6665 35.5024 55.6665 35.5036C55.6665 35.5048 55.6665 35.506 55.6665 35.5072C55.6665 35.5084 55.6665 35.5096 55.6665 35.5108C55.6665 35.512 55.6665 35.5132 55.6665 35.5144C55.6665 35.5156 55.6665 35.5168 55.6665 35.518C55.6665 35.5192 55.6665 35.5204 55.6665 35.5216C55.6665 35.5228 55.6665 35.524 55.6665 35.5252C55.6665 35.5264 55.6665 35.5276 55.6665 35.5288C55.6665 35.5299 55.6665 35.5311 55.6665 35.5323C55.6665 35.5335 55.6665 35.5347 55.6665 35.5359C55.6665 35.5371 55.6665 35.5383 55.6665 35.5395C55.6665 35.5407 55.6665 35.5419 55.6665 35.5431C55.6665 35.5443 55.6665 35.5455 55.6665 35.5467C55.6665 35.5479 55.6665 35.5491 55.6665 35.5503C55.6665 35.5515 55.6665 35.5527 55.6665 35.5539C55.6665 35.555 55.6665 35.5562 55.6665 35.5574C55.6665 35.5586 55.6665 35.5598 55.6665 35.561C55.6665 35.5622 55.6665 35.5634 55.6665 35.5646C55.6665 35.5658 55.6665 35.567 55.6665 35.5682C55.6665 35.5694 55.6665 35.5706 55.6665 35.5718C55.6665 35.573 55.6665 35.5742 55.6665 35.5754C55.6665 35.5765 55.6665 35.5777 55.6665 35.5789C55.6665 35.5801 55.6665 35.5813 55.6665 35.5825C55.6665 35.5837 55.6665 35.5849 55.6665 35.5861C55.6665 35.5873 55.6665 35.5885 55.6665 35.5897C55.6665 35.5909 55.6665 35.5921 55.6665 35.5933C55.6665 35.5945 55.6665 35.5956 55.6665 35.5968C55.6665 35.598 55.6665 35.5992 55.6665 35.6004C55.6665 35.6016 55.6665 35.6028 55.6665 35.604C55.6665 35.6052 55.6665 35.6064 55.6665 35.6076C55.6665 35.6088 55.6665 35.61 55.6665 35.6112C55.6665 35.6124 55.6665 35.6135 55.6665 35.6147C55.6665 35.6159 55.6665 35.6171 55.6665 35.6183C55.6665 35.6195 55.6665 35.6207 55.6665 35.6219C55.6665 35.6231 55.6665 35.6243 55.6665 35.6255C55.6665 35.6267 55.6665 35.6279 55.6665 35.6291C55.6665 35.6302 55.6665 35.6314 55.6665 35.6326C55.6665 35.6338 55.6665 35.635 55.6665 35.6362C55.6665 35.6374 55.6665 35.6386 55.6665 35.6398C55.6665 35.641 55.6665 35.6422 55.6665 35.6434C55.6665 35.6446 55.6665 35.6457 55.6665 35.6469C55.6665 35.6481 55.6665 35.6493 55.6665 35.6505C55.6665 35.6517 55.6665 35.6529 55.6665 35.6541C55.6665 35.6553 55.6665 35.6565 55.6665 35.6577C55.6665 35.6589 55.6665 35.66 55.6665 35.6612C55.6665 35.6624 55.6665 35.6636 55.6665 35.6648C55.6665 35.666 55.6665 35.6672 55.6665 35.6684C55.6665 35.6696 55.6665 35.6708 55.6665 35.672C55.6665 35.6731 55.6665 35.6743 55.6665 35.6755C55.6665 35.6767 55.6665 35.6779 55.6665 35.6791C55.6665 35.6803 55.6665 35.6815 55.6665 35.6827C55.6665 35.6839 55.6665 35.6851 55.6665 35.6862C55.6665 35.6874 55.6665 35.6886 55.6665 35.6898C55.6665 35.691 55.6665 35.6922 55.6665 35.6934C55.6665 35.6946 55.6665 35.6958 55.6665 35.697C55.6665 35.6982 55.6665 35.6993 55.6665 35.7005C55.6665 35.7017 55.6665 35.7029 55.6665 35.7041C55.6665 35.7053 55.6665 35.7065 55.6665 35.7077C55.6665 35.7089 55.6665 35.7101 55.6665 35.7112C55.6665 35.7124 55.6665 35.7136 55.6665 35.7148C55.6665 35.716 55.6665 35.7172 55.6665 35.7184C55.6665 35.7196 55.6665 35.7208 55.6665 35.7219C55.6665 35.7231 55.6665 35.7243 55.6665 35.7255C55.6665 35.7267 55.6665 35.7279 55.6665 35.7291C55.6665 35.7303 55.6665 35.7315 55.6665 35.7327C55.6665 35.7338 55.6665 35.735 55.6665 35.7362C55.6665 35.7374 55.6665 35.7386 55.6665 35.7398C55.6665 35.741 55.6665 35.7422 55.6665 35.7434C55.6665 35.7445 55.6665 35.7457 55.6665 35.7469C55.6665 35.7481 55.6665 35.7493 55.6665 35.7505C55.6665 35.7517 55.6665 35.7529 55.6665 35.7541C55.6665 35.7552 55.6665 35.7564 55.6665 35.7576C55.6665 35.7588 55.6665 35.76 55.6665 35.7612C55.6665 35.7624 55.6665 35.7636 55.6665 35.7647C55.6665 35.7659 55.6665 35.7671 55.6665 35.7683C55.6665 35.7695 55.6665 35.7707 55.6665 35.7719C55.6665 35.7731 55.6665 35.7743 55.6665 35.7754C55.6665 35.7766 55.6665 35.7778 55.6665 35.779C55.6665 35.7802 55.6665 35.7814 55.6665 35.7826C55.6665 35.7838 55.6665 35.7849 55.6665 35.7861C55.6665 35.7873 55.6665 35.7885 55.6665 35.7897C55.6665 35.7909 55.6665 35.7921 55.6665 35.7933C55.6665 35.7944 55.6665 35.7956 55.6665 35.7968C55.6665 35.798 55.6665 35.7992 55.6665 35.8004C55.6665 35.8016 55.6665 35.8027 55.6665 35.8039C55.6665 35.8051 55.6665 35.8063 55.6665 35.8075C55.6665 35.8087 55.6665 35.8099 55.6665 35.8111C55.6665 35.8122 55.6665 35.8134 55.6665 35.8146C55.6665 35.8158 55.6665 35.817 55.6665 35.8182C55.6665 35.8194 55.6665 35.8206 55.6665 35.8217C55.6665 35.8229 55.6665 35.8241 55.6665 35.8253C55.6665 35.8265 55.6665 35.8277 55.6665 35.8289C55.6665 35.83 55.6665 35.8312 55.6665 35.8324C55.6665 35.8336 55.6665 35.8348 55.6665 35.836C55.6665 35.8372 55.6665 35.8383 55.6665 35.8395C55.6665 35.8407 55.6665 35.8419 55.6665 35.8431C55.6665 35.8443 55.6665 35.8455 55.6665 35.8466C55.6665 35.8478 55.6665 35.849 55.6665 35.8502C55.6665 35.8514 55.6665 35.8526 55.6665 35.8538C55.6665 35.8549 55.6665 35.8561 55.6665 35.8573C55.6665 35.8585 55.6665 35.8597 55.6665 35.8609C55.6665 35.8621 55.6665 35.8632 55.6665 35.8644C55.6665 35.8656 55.6665 35.8668 55.6665 35.868C55.6665 35.8692 55.6665 35.8703 55.6665 35.8715C55.6665 35.8727 55.6665 35.8739 55.6665 35.8751C55.6665 35.8763 55.6665 35.8775 55.6665 35.8786C55.6665 35.8798 55.6665 35.881 55.6665 35.8822C55.6665 35.8834 55.6665 35.8846 55.6665 35.8857C55.6665 35.8869 55.6665 35.8881 55.6665 35.8893C55.6665 35.8905 55.6665 35.8917 55.6665 35.8929C55.6665 35.894 55.6665 35.8952 55.6665 35.8964C55.6665 35.8976 55.6665 35.8988 55.6665 35.9C55.6665 35.9011 55.6665 35.9023 55.6665 35.9035C55.6665 35.9047 55.6665 35.9059 55.6665 35.9071C55.6665 35.9082 55.6665 35.9094 55.6665 35.9106C55.6665 35.9118 55.6665 35.913 55.6665 35.9142C55.6665 35.9153 55.6665 35.9165 55.6665 35.9177C55.6665 35.9189 55.6665 35.9201 55.6665 35.9213C55.6665 35.9224 55.6665 35.9236 55.6665 35.9248C55.6665 35.926 55.6665 35.9272 55.6665 35.9284H57.6665ZM57.6665 34.067C57.6665 33.7824 57.7385 33.5597 57.8701 33.3662L56.2163 32.2416C55.8456 32.7867 55.6665 33.4061 55.6665 34.067H57.6665ZM57.8654 33.3731C57.8952 33.3301 57.9682 33.2278 58.3284 33.2278V31.2278C57.5068 31.2278 56.723 31.5095 56.221 32.2347L57.8654 33.3731ZM58.3284 33.2278C58.7141 33.2278 58.7886 33.337 58.8136 33.3731L60.458 32.2347C59.9512 31.5026 59.1541 31.2278 58.3284 31.2278V33.2278ZM58.8397 33.409C58.9854 33.6008 59.0569 33.8083 59.0569 34.067H61.0569C61.0569 33.3802 60.8476 32.7457 60.432 32.1988L58.8397 33.409ZM59.0569 34.067C59.0569 34.6867 59.0424 35.2909 59.0137 35.8796L61.0113 35.9771C61.0417 35.3544 61.0569 34.7177 61.0569 34.067H59.0569ZM59.0128 35.9034C58.9967 36.5485 59.0425 37.1406 59.1799 37.6508L61.1111 37.1309C61.0417 36.8729 60.9988 36.49 61.0122 35.9533L59.0128 35.9034ZM59.1931 37.6956C59.303 38.0393 59.5064 38.377 59.8468 38.6201C60.1846 38.8614 60.5669 38.9449 60.9211 38.9449V36.9449C60.8764 36.9449 60.9299 36.936 61.0093 36.9926C61.0459 37.0188 61.0717 37.0479 61.0874 37.0709C61.102 37.0924 61.1027 37.1011 61.0979 37.0861L59.1931 37.6956ZM60.9211 38.9449C61.5202 38.9449 62.1101 38.7243 62.5082 38.1822C62.864 37.6978 62.9626 37.0923 62.9626 36.5267H60.9626C60.9626 36.7051 60.9459 36.8288 60.9261 36.9093C60.9066 36.9891 60.8886 37.0087 60.8962 36.9984C60.9081 36.9822 60.9334 36.9592 60.9634 36.9456C60.9878 36.9346 60.982 36.9449 60.9211 36.9449V38.9449ZM62.9626 36.5267C62.9626 36.0996 62.8776 35.6662 62.734 35.2354L60.8366 35.8679C60.9294 36.1462 60.9626 36.3628 60.9626 36.5267H62.9626ZM62.7482 35.282C62.6406 34.8975 62.525 34.52 62.4016 34.1496L60.5042 34.7821C60.6171 35.1208 60.7232 35.4672 60.8223 35.8213L62.7482 35.282ZM62.4053 34.1611C62.3076 33.8556 62.2756 33.637 62.2756 33.4908H60.2756C60.2756 33.906 60.3619 34.3375 60.5005 34.7706L62.4053 34.1611ZM62.2756 33.4908C62.2756 32.9707 62.3882 32.7669 62.4412 32.7035C62.4658 32.6742 62.5447 32.5851 62.8711 32.5851V30.5851C62.1338 30.5851 61.415 30.8137 60.9077 31.4196C60.429 31.9915 60.2756 32.7405 60.2756 33.4908H62.2756ZM62.8711 32.5851C63.1015 32.5851 63.2487 32.6511 63.3772 32.7738L64.7582 31.3271C64.2367 30.8294 63.5862 30.5851 62.8711 30.5851V32.5851ZM63.3934 32.789C63.6001 32.9777 63.7856 33.2452 63.9314 33.6264L65.7995 32.9121C65.5611 32.2887 65.2148 31.7437 64.742 31.312L63.3934 32.789ZM63.9407 33.65C64.1152 34.0737 64.2428 34.5356 64.3202 35.0389L66.297 34.7348C66.1971 34.0859 66.0293 33.4693 65.7901 32.8885L63.9407 33.65ZM64.3243 35.0635C64.4183 35.5871 64.4637 36.0818 64.4637 36.5488H66.4637C66.4637 35.9522 66.4057 35.3389 66.2929 34.7102L64.3243 35.0635ZM64.4637 36.5488C64.4637 38.0354 64.1166 39.1132 63.5215 39.88L65.1014 41.1063C66.0426 39.8936 66.4637 38.3418 66.4637 36.5488H64.4637ZM63.5202 39.8817C62.9703 40.5933 62.2383 40.9557 61.2091 40.9557V42.9557C62.8096 42.9557 64.1457 42.3431 65.1027 41.1046L63.5202 39.8817ZM61.2091 40.9557C60.7465 40.9557 60.3386 40.8697 59.973 40.7084L59.1657 42.5382C59.8046 42.8201 60.49 42.9557 61.2091 42.9557V40.9557ZM59.9951 40.7185C59.6009 40.5329 59.3028 40.3083 59.0791 40.0541L57.5777 41.3754C58.0041 41.8599 58.5333 42.2409 59.1436 42.5281L59.9951 40.7185ZM57.5777 40.0541C57.3441 40.3196 57.0409 40.556 56.6517 40.7565L57.5676 42.5344C58.1534 42.2327 58.6627 41.8486 59.0791 41.3754L57.5777 40.0541ZM56.6517 40.7565C56.3202 40.9273 55.9332 41.0222 55.4699 41.0222V43.0222C56.218 43.0222 56.9242 42.8659 57.5676 42.5344L56.6517 40.7565ZM73.7423 41.5125L72.9214 42.0836L72.9357 42.1041L72.951 42.1239L73.7423 41.5125ZM73.3213 40.2494L72.3249 40.3348L72.3251 40.3373L73.3213 40.2494ZM72.9224 36.8147L72.012 37.2286L72.0169 37.2392L72.9224 36.8147ZM70.64 36.8147L71.5345 37.262L71.5398 37.251L70.64 36.8147ZM70.219 40.2273L69.2228 40.1394L69.2215 40.1539L69.2207 40.1685L70.219 40.2273ZM69.8201 41.4903L70.6288 42.0785L70.635 42.07L70.641 42.0614L69.8201 41.4903ZM67.3826 41.4682L66.628 42.1244L66.6359 42.1335L66.6441 42.1424L67.3826 41.4682ZM66.6956 40.1386L67.6542 39.8537L66.6956 40.1386ZM66.3411 38.3659L65.3454 38.4585L65.3465 38.47L65.3478 38.4814L66.3411 38.3659ZM66.3411 34.7096L65.3456 34.6148L66.3411 34.7096ZM66.6513 32.9812L65.695 32.689L65.6912 32.7012L65.6878 32.7135L66.6513 32.9812ZM67.3383 31.6959L66.5983 31.0233V31.0233L67.3383 31.6959ZM70.0638 32.3607L69.0982 32.6207L69.5694 34.3707L70.7987 33.039L70.0638 32.3607ZM70.9059 31.8289L71.2955 32.7499L71.3038 32.7464L71.312 32.7427L70.9059 31.8289ZM76.623 34.8204L75.6702 35.1242L75.6729 35.1325L75.6757 35.1408L76.623 34.8204ZM77.1105 38.3216L76.1105 38.3104V38.3216H77.1105ZM76.9111 40.1829L75.938 39.9525L75.9357 39.962L75.9337 39.9716L76.9111 40.1829ZM76.2684 41.5125L75.53 40.8382L75.5285 40.8398L76.2684 41.5125ZM75.0054 41C74.7969 41 74.6727 40.9707 74.6065 40.9452C74.549 40.923 74.5366 40.905 74.5336 40.901L72.951 42.1239C73.4642 42.7881 74.2472 43 75.0054 43V41ZM74.5632 40.9414C74.4459 40.7729 74.3497 40.5279 74.3174 40.1615L72.3251 40.3373C72.3814 40.9755 72.5659 41.5726 72.9214 42.0836L74.5632 40.9414ZM74.3176 40.164C74.2757 39.6753 74.2548 39.1867 74.2548 38.6983H72.2548C72.2548 39.2439 72.2782 39.7895 72.3249 40.3348L74.3176 40.164ZM74.2548 38.6983C74.2548 37.8354 74.1349 37.0454 73.8279 36.3903L72.0169 37.2392C72.153 37.5295 72.2548 37.9952 72.2548 38.6983H74.2548ZM73.8328 36.4009C73.6539 36.0073 73.3799 35.6595 72.9911 35.4174C72.6054 35.1772 72.1747 35.0835 71.748 35.0835V37.0835C71.8825 37.0835 71.9283 37.1116 71.934 37.1152C71.9367 37.1169 71.9693 37.1346 72.012 37.2285L73.8328 36.4009ZM71.748 35.0835C71.3282 35.0835 70.9129 35.1878 70.5434 35.4317C70.1784 35.6726 69.9192 36.0092 69.7402 36.3785L71.5398 37.251C71.5971 37.1328 71.6408 37.1037 71.6451 37.1009C71.6489 37.0984 71.6542 37.0954 71.6655 37.0922C71.6777 37.0888 71.7035 37.0835 71.748 37.0835V35.0835ZM69.7456 36.3675C69.4145 37.0297 69.2854 37.8288 69.2854 38.6983H71.2854C71.2854 38.0018 71.3928 37.5452 71.5344 37.2619L69.7456 36.3675ZM69.2854 38.6983C69.2854 39.1867 69.2645 39.667 69.2228 40.1394L71.2151 40.3152C71.2621 39.7829 71.2854 39.2439 71.2854 38.6983H69.2854ZM69.2207 40.1685C69.1996 40.5267 69.1098 40.7603 68.9992 40.9193L70.641 42.0614C71.0032 41.5408 71.1792 40.9324 71.2172 40.286L69.2207 40.1685ZM69.0114 40.9022C69.023 40.8861 69.0254 40.8988 68.9669 40.921C68.8983 40.947 68.7641 40.9778 68.5349 40.9778V42.9778C69.296 42.9778 70.1192 42.7793 70.6288 42.0785L69.0114 40.9022ZM68.5349 40.9778C68.3594 40.9778 68.2428 40.9273 68.1211 40.7939L66.6441 42.1424C67.1428 42.6886 67.7944 42.9778 68.5349 42.9778V40.9778ZM68.1372 40.812C67.9569 40.6047 67.7865 40.2986 67.6542 39.8537L65.7371 40.4236C65.9298 41.0718 66.2174 41.6521 66.628 42.1244L68.1372 40.812ZM67.6542 39.8537C67.51 39.3686 67.4024 38.835 67.3344 38.2504L65.3478 38.4814C65.4275 39.1672 65.5563 39.8154 65.7371 40.4236L67.6542 39.8537ZM67.3368 38.2733C67.2803 37.6664 67.2525 37.0843 67.2525 36.5267H65.2525C65.2525 37.1508 65.2837 37.7949 65.3454 38.4585L67.3368 38.2733ZM67.2525 36.5267C67.2525 35.9691 67.2803 35.3951 67.3366 34.8044L65.3456 34.6148C65.2837 35.2651 65.2525 35.9024 65.2525 36.5267H67.2525ZM67.3366 34.8044C67.3908 34.235 67.4847 33.7174 67.6148 33.2488L65.6878 32.7135C65.5225 33.3086 65.4095 33.9432 65.3456 34.6148L67.3366 34.8044ZM67.6077 33.2734C67.7381 32.8464 67.9049 32.5593 68.0782 32.3686L66.5983 31.0233C66.1807 31.4826 65.8895 32.0523 65.695 32.689L67.6077 33.2734ZM68.0782 32.3686C68.1685 32.2693 68.2754 32.2084 68.4905 32.2084V30.2084C67.7602 30.2084 67.0989 30.4726 66.5983 31.0233L68.0782 32.3686ZM68.4905 32.2084C68.7619 32.2084 68.8783 32.2694 68.9245 32.3033C68.965 32.3329 69.0403 32.4055 69.0982 32.6207L71.0295 32.1007C70.8806 31.5477 70.5902 31.0442 70.1063 30.6897C69.6281 30.3395 69.0613 30.2084 68.4905 30.2084V32.2084ZM70.7987 33.039C70.8389 32.9954 70.9732 32.8862 71.2955 32.7499L70.5163 30.9079C70.0704 31.0965 69.6433 31.342 69.329 31.6824L70.7987 33.039ZM71.312 32.7427C71.5652 32.6302 71.8743 32.563 72.2576 32.563V30.563C71.6364 30.563 71.0444 30.673 70.4998 30.9151L71.312 32.7427ZM72.2576 32.563C73.2223 32.563 73.9177 32.8043 74.4269 33.2096L75.6724 31.6448C74.7339 30.8978 73.568 30.563 72.2576 30.563V32.563ZM74.4269 33.2096C74.9727 33.644 75.3958 34.2632 75.6702 35.1242L77.5757 34.5166C77.2002 33.3389 76.5744 32.3627 75.6724 31.6448L74.4269 33.2096ZM75.6757 35.1408C75.9715 36.0154 76.1244 37.0662 76.1106 38.3104L78.1104 38.3327C78.1262 36.9178 77.954 35.6345 77.5703 34.5L75.6757 35.1408ZM76.1105 38.3216C76.1105 38.9368 76.0502 39.4786 75.938 39.9525L77.8841 40.4134C78.0378 39.7646 78.1105 39.0654 78.1105 38.3216H76.1105ZM75.9337 39.9716C75.8448 40.3826 75.6978 40.6544 75.53 40.8382L77.0069 42.1868C77.4595 41.691 77.741 41.0765 77.8885 40.3943L75.9337 39.9716ZM75.5285 40.8398C75.4672 40.9073 75.3442 41 75.0054 41V43C75.7597 43 76.4788 42.7677 77.0084 42.1852L75.5285 40.8398ZM80.3127 41.3574L79.8405 42.2389L79.8498 42.2439L79.8592 42.2487L80.3127 41.3574ZM78.3627 39.5625L77.5037 40.0745L77.5096 40.0843L77.5156 40.094L78.3627 39.5625ZM78.3627 34.2664L77.4982 33.7635L77.4915 33.7754L78.3627 34.2664ZM80.2905 32.3164L79.7828 31.4548L79.776 31.4589L80.2905 32.3164ZM85.6752 32.1834L85.185 33.055L85.6752 32.1834ZM87.2929 33.7124L86.4336 34.2239L86.4408 34.236L86.4483 34.248L87.2929 33.7124ZM87.4037 37.3244L88.2136 37.9109L88.2183 37.9044L88.2229 37.8979L87.4037 37.3244ZM86.1849 38.3216L86.5987 39.232L86.6107 39.2264L86.1849 38.3216ZM84.6116 38.7647L84.4811 37.7733L84.6116 38.7647ZM82.994 38.8091L82.8804 39.8026L82.8945 39.8042L82.9086 39.8054L82.994 38.8091ZM81.6866 38.5432L82.0028 37.5945L79.3776 36.7194L80.8369 39.0705L81.6866 38.5432ZM82.6837 39.4295L82.3064 40.3556L82.3267 40.3639L82.3474 40.3713L82.6837 39.4295ZM83.969 39.629L84.0023 40.6284L84.0178 40.6279L84.0333 40.6269L83.969 39.629ZM85.2099 39.4738L85.406 40.4544L85.4181 40.452L85.4301 40.4493L85.2099 39.4738ZM86.34 39.5403L85.8928 40.4347L86.34 39.5403ZM86.8054 40.2494L85.8063 40.2948L85.8069 40.3049L86.8054 40.2494ZM86.5173 41.0472L85.7279 40.4332L85.717 40.4472L85.7066 40.4617L86.5173 41.0472ZM85.4536 41.7341L85.778 42.68L85.7899 42.6759L85.8018 42.6715L85.4536 41.7341ZM81.753 35.8397H80.753V36.1265L80.905 36.3697L81.753 35.8397ZM82.3957 36.3494L82.05 37.2877L82.0721 37.2959L82.0945 37.303L82.3957 36.3494ZM83.2377 36.438L83.1382 35.443L83.133 35.4435L83.2377 36.438ZM83.969 36.1943L83.4282 35.3531L83.4138 35.3623L83.3998 35.3721L83.969 36.1943ZM83.969 34.9755L83.2362 35.656L83.2614 35.6831L83.2885 35.7083L83.969 34.9755ZM82.0854 35.0641L82.8353 35.7258L82.8446 35.7152L82.8536 35.7043L82.0854 35.0641ZM83.2377 41C82.2602 41 81.4454 40.8117 80.7661 40.4661L79.8592 42.2487C80.8641 42.7599 81.9993 43 83.2377 43V41ZM80.7849 40.4759C80.1021 40.1101 79.5849 39.6289 79.2097 39.031L77.5156 40.094C78.0859 41.0029 78.8687 41.7183 79.8405 42.2389L80.7849 40.4759ZM79.2216 39.0504C78.8656 38.4532 78.6757 37.7548 78.6757 36.9255H76.6757C76.6757 38.0758 76.9438 39.1353 77.5037 40.0745L79.2216 39.0504ZM78.6757 36.9255C78.6757 36.132 78.8629 35.4155 79.2338 34.7574L77.4915 33.7754C76.9465 34.7423 76.6757 35.7986 76.6757 36.9255H78.6757ZM79.227 34.7693C79.6142 34.1038 80.136 33.5753 80.805 33.1739L79.776 31.4589C78.8201 32.0325 78.0566 32.804 77.4983 33.7635L79.227 34.7693ZM80.7982 33.1779C81.4555 32.7906 82.2221 32.5851 83.1269 32.5851V30.5851C81.9045 30.5851 80.7801 30.8672 79.7828 31.4549L80.7982 33.1779ZM83.1269 32.5851C83.9819 32.5851 84.6548 32.7568 85.185 33.055L86.1655 31.3119C85.2775 30.8124 84.2514 30.5851 83.1269 30.5851V32.5851ZM85.185 33.055C85.7614 33.3792 86.1646 33.772 86.4336 34.2239L88.1522 33.2009C87.6825 32.412 87.0073 31.7854 86.1655 31.3119L85.185 33.055ZM86.4483 34.248C86.7368 34.7028 86.869 35.1611 86.869 35.6403H88.869C88.869 34.7604 88.6171 33.9334 88.1374 33.1769L86.4483 34.248ZM86.869 35.6403C86.869 36.1675 86.7499 36.5145 86.5844 36.7509L88.2229 37.8979C88.6778 37.2479 88.869 36.4722 88.869 35.6403H86.869ZM86.5937 36.7379C86.3875 37.0226 86.1163 37.2486 85.7591 37.4167L86.6107 39.2264C87.258 38.9218 87.7993 38.483 88.2136 37.9109L86.5937 36.7379ZM85.7711 37.4112C85.3785 37.5896 84.9502 37.7116 84.4811 37.7733L84.742 39.7562C85.3957 39.6702 86.0162 39.4967 86.5987 39.2319L85.7711 37.4112ZM84.4811 37.7733C83.9849 37.8386 83.5183 37.8503 83.0794 37.8127L82.9086 39.8054C83.5037 39.8564 84.1155 39.8386 84.742 39.7562L84.4811 37.7733ZM83.1075 37.8155C82.6347 37.7615 82.2715 37.684 82.0028 37.5945L81.3703 39.4918C81.8107 39.6386 82.3191 39.7384 82.8804 39.8026L83.1075 37.8155ZM80.8369 39.0705C81.1946 39.6468 81.6801 40.1004 82.3064 40.3556L83.061 38.5034C82.8896 38.4336 82.7104 38.2964 82.5362 38.0158L80.8369 39.0705ZM82.3474 40.3713C82.8807 40.5617 83.4346 40.6473 84.0023 40.6284L83.9357 38.6295C83.617 38.6401 83.3141 38.5928 83.0201 38.4878L82.3474 40.3713ZM84.0333 40.6269C84.5264 40.5951 84.985 40.5386 85.406 40.4544L85.0138 38.4933C84.6961 38.5568 84.3275 38.6037 83.9046 38.631L84.0333 40.6269ZM85.4301 40.4493C85.756 40.3757 85.8755 40.4261 85.8928 40.4347L86.7872 38.6459C86.2136 38.3591 85.5797 38.3652 84.9896 38.4984L85.4301 40.4493ZM85.8928 40.4347C85.9095 40.4431 85.8764 40.4296 85.8419 40.377C85.8262 40.3531 85.8163 40.33 85.8108 40.3119C85.8056 40.2946 85.8061 40.2875 85.8064 40.2948L87.8043 40.204C87.79 39.8897 87.7041 39.5694 87.514 39.2797C87.3244 38.9908 87.066 38.7853 86.7872 38.6459L85.8928 40.4347ZM85.8069 40.3049C85.8064 40.2954 85.8091 40.2943 85.8039 40.3086C85.7976 40.326 85.7788 40.3678 85.7279 40.4332L87.3066 41.6611C87.6212 41.2566 87.8352 40.7595 87.8038 40.1939L85.8069 40.3049ZM85.7066 40.4617C85.6853 40.4912 85.5502 40.6315 85.1055 40.7967L85.8018 42.6715C86.3912 42.4526 86.9652 42.135 87.328 41.6326L85.7066 40.4617ZM85.1293 40.7881C84.7671 40.9123 84.1579 41 83.2377 41V43C84.238 43 85.1061 42.9104 85.778 42.68L85.1293 40.7881ZM80.905 36.3697C81.1792 36.8083 81.5774 37.1136 82.05 37.2877L82.7414 35.411C82.6525 35.3783 82.6224 35.3439 82.601 35.3097L80.905 36.3697ZM82.0945 37.303C82.5005 37.4312 82.9192 37.4771 83.3424 37.4325L83.133 35.4435C82.9949 35.4581 82.8522 35.4449 82.6968 35.3958L82.0945 37.303ZM83.3372 37.4331C83.7566 37.3911 84.1739 37.2687 84.5382 37.0165L83.3998 35.3721C83.3799 35.3858 83.3098 35.4258 83.1382 35.443L83.3372 37.4331ZM84.5097 37.0354C84.9889 36.7274 85.2792 36.2331 85.2792 35.6403H83.2792C83.2792 35.6078 83.2878 35.5412 83.3291 35.4675C83.3695 35.3953 83.4162 35.3608 83.4282 35.3531L84.5097 37.0354ZM85.2792 35.6403C85.2792 35.0752 85.0321 34.5981 84.6494 34.2427L83.2885 35.7083C83.3118 35.7299 83.306 35.7313 83.2955 35.7086C83.2904 35.6978 83.2859 35.685 83.2829 35.6712C83.2799 35.6575 83.2792 35.6466 83.2792 35.6403H85.2792ZM84.7018 34.2951C84.2412 33.799 83.6015 33.6653 83.0383 33.6653V35.6653C83.1764 35.6653 83.2489 35.6825 83.276 35.6915C83.2974 35.6986 83.2713 35.6937 83.2362 35.656L84.7018 34.2951ZM83.0383 33.6653C82.3918 33.6653 81.7662 33.8851 81.3172 34.424L82.8536 35.7043C82.8622 35.6941 82.8662 35.6915 82.876 35.6874C82.8905 35.6814 82.9379 35.6653 83.0383 35.6653V33.6653ZM81.3356 34.4025C80.9961 34.7873 80.753 35.2719 80.753 35.8397H82.753C82.753 35.8499 82.7501 35.8524 82.7553 35.8403C82.7617 35.8253 82.7817 35.7864 82.8353 35.7258L81.3356 34.4025ZM89.7747 41.5125L89.0362 42.1868L89.0515 42.2035L89.0676 42.2196L89.7747 41.5125ZM89.0656 40.1608L90.0262 39.8827L89.0656 40.1608ZM88.7332 38.2329L89.7299 38.1516L88.7332 38.2329ZM88.6667 34.4215L87.6682 34.3676L87.6675 34.3806L87.6671 34.3938L88.6667 34.4215ZM88.8883 32.9147L87.928 32.6359L87.9238 32.6503L87.92 32.6648L88.8883 32.9147ZM89.5309 31.8067L90.2197 32.5317L90.2206 32.5309L89.5309 31.8067ZM91.9241 31.6516L91.4154 32.5125L91.4302 32.5213L91.4453 32.5295L91.9241 31.6516ZM92.5446 32.4715L91.5722 32.7049L91.9676 34.3524L93.2189 33.21L92.5446 32.4715ZM93.8298 31.8067L94.0789 32.7752L94.0882 32.7728L94.0975 32.7702L93.8298 31.8067ZM96.91 31.9397L96.4737 32.8395L96.4849 32.8449L96.4962 32.8501L96.91 31.9397ZM98.1509 32.8704L98.9121 32.2219L98.1509 32.8704ZM98.1731 35.4409L97.4097 34.7949L97.4023 34.8036L97.3951 34.8125L98.1731 35.4409ZM96.223 35.9284L95.8092 36.8387L95.8447 36.8548L95.8813 36.8682L96.223 35.9284ZM95.7577 35.7289L96.1291 34.8004V34.8004L95.7577 35.7289ZM93.719 36.3051L94.4141 37.0241L94.4145 37.0237L93.719 36.3051ZM93.01 39.3187L92.012 39.2543L92.011 39.2699L92.0105 39.2854L93.01 39.3187ZM92.8105 40.604L91.849 40.3292L91.8444 40.3453L91.8404 40.3614L92.8105 40.604ZM92.2344 41.6233L92.9012 42.3685L92.9118 42.359L92.9221 42.3492L92.2344 41.6233ZM91.0156 41C90.7515 41 90.6009 40.9245 90.4818 40.8054L89.0676 42.2196C89.5985 42.7505 90.2752 43 91.0156 43V41ZM90.5132 40.8382C90.3305 40.6381 90.1572 40.3354 90.0262 39.8827L88.105 40.4388C88.299 41.1089 88.5985 41.7073 89.0362 42.1868L90.5132 40.8382ZM90.0262 39.8827C89.8861 39.3988 89.7848 38.8241 89.7299 38.1516L87.7365 38.3143C87.7998 39.0894 87.9201 39.8 88.105 40.4388L90.0262 39.8827ZM89.7299 38.1516C89.6731 37.4563 89.6446 36.7374 89.6446 35.9948H87.6446C87.6446 36.7886 87.6751 37.5619 87.7365 38.3143L89.7299 38.1516ZM89.6446 35.9948C89.6446 35.4873 89.6518 34.9721 89.6663 34.4493L87.6671 34.3938C87.6521 34.9346 87.6446 35.4683 87.6446 35.9948H89.6446ZM89.6653 34.4755C89.6918 33.985 89.7573 33.5493 89.8566 33.1646L87.92 32.6648C87.783 33.196 87.7008 33.7649 87.6682 34.3676L89.6653 34.4755ZM89.8487 33.1935C89.9407 32.8765 90.0731 32.671 90.2197 32.5317L88.8422 31.0817C88.3979 31.5038 88.1018 32.037 87.928 32.6359L89.8487 33.1935ZM90.2206 32.5309C90.2928 32.4621 90.4515 32.3635 90.8383 32.3635V30.3635C90.1024 30.3635 89.3895 30.5605 88.8413 31.0826L90.2206 32.5309ZM90.8383 32.3635C91.0688 32.3635 91.2533 32.4168 91.4154 32.5125L92.4329 30.7907C91.945 30.5024 91.4056 30.3635 90.8383 30.3635V32.3635ZM91.4453 32.5295C91.5148 32.5674 91.5476 32.6024 91.5722 32.7049L93.517 32.2381C93.3643 31.602 92.9835 31.0903 92.403 30.7737L91.4453 32.5295ZM93.2189 33.21C93.4198 33.0266 93.6947 32.874 94.0789 32.7752L93.5808 30.8382C92.9308 31.0054 92.349 31.296 91.8703 31.733L93.2189 33.21ZM94.0975 32.7702C94.5407 32.6471 94.9972 32.5851 95.4696 32.5851V30.5851C94.8194 30.5851 94.1827 30.6709 93.5622 30.8432L94.0975 32.7702ZM95.4696 32.5851C95.7706 32.5851 96.1023 32.6594 96.4737 32.8395L97.3463 31.0399C96.7427 30.7472 96.1141 30.5851 95.4696 30.5851V32.5851ZM96.4962 32.8501C96.8531 33.0123 97.1472 33.2342 97.3897 33.5188L98.9121 32.2219C98.475 31.7088 97.9419 31.3103 97.3238 31.0293L96.4962 32.8501ZM97.3897 33.5188C97.5826 33.7453 97.6606 33.9684 97.6606 34.2221H99.6606C99.6606 33.4712 99.3988 32.7932 98.9121 32.2219L97.3897 33.5188ZM97.6606 34.2221C97.6606 34.3739 97.6099 34.5583 97.4097 34.7949L98.9365 36.0868C99.3862 35.5553 99.6606 34.9271 99.6606 34.2221H97.6606ZM97.3951 34.8125C97.3076 34.9209 97.1739 35.017 96.8435 35.017V37.017C97.6654 37.017 98.4181 36.729 98.951 36.0692L97.3951 34.8125ZM96.8435 35.017C96.6609 35.017 96.5802 34.9942 96.5648 34.9886L95.8813 36.8682C96.1909 36.9807 96.5238 37.017 96.8435 37.017V35.017ZM96.6368 35.018C96.462 34.9385 96.2927 34.8659 96.1291 34.8004L95.3863 36.6574C95.5182 36.7101 95.6591 36.7705 95.8092 36.8387L96.6368 35.018ZM96.1291 34.8004C95.8337 34.6823 95.5236 34.6403 95.2259 34.6403V36.6403C95.2822 36.6403 95.3226 36.6444 95.3496 36.6488C95.3763 36.6533 95.3871 36.6577 95.3863 36.6574L96.1291 34.8004ZM95.2259 34.6403C94.3769 34.6403 93.6348 34.995 93.0236 35.5865L94.4145 37.0237C94.7192 36.7288 94.9817 36.6403 95.2259 36.6403V34.6403ZM93.024 35.5861C92.3479 36.2397 92.0543 37.1038 92.0543 38.0556H94.0543C94.0543 37.5302 94.2038 37.2273 94.4141 37.0241L93.024 35.5861ZM92.0543 38.0556C92.0543 38.4146 92.0404 38.8138 92.012 39.2543L94.0079 39.3831C94.0385 38.9077 94.0543 38.4649 94.0543 38.0556H92.0543ZM92.0105 39.2854C91.9984 39.6494 91.944 39.9966 91.849 40.3292L93.772 40.8787C93.9134 40.384 93.992 39.8744 94.0094 39.352L92.0105 39.2854ZM91.8404 40.3614C91.7782 40.61 91.6751 40.7757 91.5466 40.8973L92.9221 42.3492C93.3551 41.9391 93.636 41.4252 93.7807 40.8465L91.8404 40.3614ZM91.5676 40.8781C91.5336 40.9084 91.4023 41 91.0156 41V43C91.6926 43 92.3738 42.8404 92.9012 42.3685L91.5676 40.8781ZM101.141 41.579L100.595 42.4166L100.616 42.4302L100.637 42.4428L101.141 41.579ZM100.299 40.7369L99.4355 41.2408L99.4481 41.2623L99.4617 41.2832L100.299 40.7369ZM100.299 38.4324L99.4513 37.9024L99.4432 37.9153L99.4355 37.9285L100.299 38.4324ZM101.141 37.5903L100.637 36.7265L100.629 36.7312L100.621 36.7361L101.141 37.5903ZM103.446 37.5903L103.95 36.7265L103.446 37.5903ZM104.288 38.4324L105.152 37.9285L104.288 38.4324ZM104.288 40.7369L105.142 41.2569L105.147 41.2489L105.152 41.2408L104.288 40.7369ZM103.446 41.579L103.95 42.4428L103.963 42.4351L103.976 42.427L103.446 41.579ZM102.294 40.8892C102.056 40.8892 101.846 40.8321 101.645 40.7152L100.637 42.4428C101.146 42.7395 101.704 42.8892 102.294 42.8892V40.8892ZM101.688 40.7414C101.464 40.5956 101.283 40.4141 101.137 40.1907L99.4617 41.2832C99.7591 41.7393 100.139 42.1192 100.595 42.4166L101.688 40.7414ZM101.163 40.233C101.046 40.0327 100.989 39.8227 100.989 39.5846H98.9891C98.9891 40.1739 99.1388 40.7321 99.4355 41.2408L101.163 40.233ZM100.989 39.5846C100.989 39.3466 101.046 39.1366 101.163 38.9362L99.4355 37.9285C99.1388 38.4372 98.9891 38.9954 98.9891 39.5846H100.989ZM101.147 38.9624C101.291 38.733 101.461 38.5661 101.661 38.4445L100.621 36.7361C100.142 37.0281 99.7512 37.4226 99.4513 37.9024L101.147 38.9624ZM101.645 38.4541C101.846 38.3372 102.056 38.2801 102.294 38.2801V36.2801C101.704 36.2801 101.146 36.4298 100.637 36.7265L101.645 38.4541ZM102.294 38.2801C102.532 38.2801 102.742 38.3372 102.942 38.4541L103.95 36.7265C103.441 36.4298 102.883 36.2801 102.294 36.2801V38.2801ZM102.942 38.4541C103.148 38.574 103.304 38.7307 103.424 38.9362L105.152 37.9285C104.858 37.4249 104.453 37.0203 103.95 36.7265L102.942 38.4541ZM103.424 38.9362C103.541 39.1366 103.598 39.3466 103.598 39.5846H105.598C105.598 38.9954 105.449 38.4372 105.152 37.9285L103.424 38.9362ZM103.598 39.5846C103.598 39.8227 103.541 40.0327 103.424 40.233L105.152 41.2408C105.449 40.7321 105.598 40.1739 105.598 39.5846H103.598ZM103.434 40.217C103.312 40.4168 103.145 40.5876 102.916 40.731L103.976 42.427C104.456 42.1271 104.85 41.7366 105.142 41.2569L103.434 40.217ZM102.942 40.7152C102.742 40.8321 102.532 40.8892 102.294 40.8892V42.8892C102.883 42.8892 103.441 42.7395 103.95 42.4428L102.942 40.7152Z" fill="black"/>
</svg>
