<svg width="66" height="12" viewBox="0 0 66 12" fill="none" xmlns="http://www.w3.org/2000/svg">
<path d="M6.0938 11.0222C5.00061 11.0369 4.04038 10.8153 3.2131 10.3574C2.40059 9.88465 1.75797 9.24942 1.28524 8.45168C0.82728 7.63918 0.583528 6.74542 0.553982 5.77041C0.539209 4.76586 0.768188 3.87948 1.24092 3.1113C1.71365 2.32834 2.37104 1.70788 3.2131 1.24992C4.05515 0.791958 5.01538 0.562979 6.0938 0.562979C7.15745 0.548206 8.09552 0.769799 8.90803 1.22776C9.73531 1.68572 10.3927 2.30618 10.8802 3.08914C11.3677 3.8721 11.6262 4.76586 11.6558 5.77041C11.6706 6.73065 11.4416 7.60963 10.9688 8.40736C10.4961 9.19033 9.83872 9.81817 8.99667 10.2909C8.15461 10.7489 7.18699 10.9926 6.0938 11.0222ZM6.16028 7.7869C6.55915 7.7869 6.90631 7.63179 7.20177 7.32156C7.49722 7.01133 7.64495 6.64939 7.64495 6.23575C7.64495 5.82211 7.49722 5.46757 7.20177 5.17211C6.90631 4.86188 6.55915 4.70676 6.16028 4.70676C5.76141 4.70676 5.41425 4.86188 5.11879 5.17211C4.82334 5.46757 4.67561 5.82211 4.67561 6.23575C4.67561 6.64939 4.82334 7.01133 5.11879 7.32156C5.41425 7.63179 5.76141 7.7869 6.16028 7.7869ZM16.4699 11.0222C15.5983 11.0222 14.8449 10.7932 14.2096 10.3352C13.5744 9.87726 13.0795 9.24203 12.725 8.42952C12.3852 7.60224 12.2153 6.64939 12.2153 5.57098C12.2153 5.03915 12.2596 4.48517 12.3483 3.90903C12.4517 3.31812 12.5994 2.77152 12.7914 2.26924C12.9983 1.76697 13.2642 1.36071 13.5892 1.05048C13.929 0.725481 14.3352 0.562979 14.8079 0.562979C15.3693 0.562979 15.7903 0.74764 16.071 1.11696C16.3665 1.47151 16.5142 1.94424 16.5142 2.53515C16.5142 2.80107 16.4699 3.1113 16.3812 3.46585C16.3074 3.82039 16.2261 4.18233 16.1375 4.55165C16.0636 4.9062 16.0267 5.2312 16.0267 5.52666C16.0267 5.99939 16.071 6.35394 16.1597 6.5903C16.2631 6.82667 16.4847 6.94485 16.8244 6.94485C17.179 6.94485 17.408 6.76019 17.5114 6.39087C17.6296 6.00678 17.6813 5.51927 17.6665 4.92836C17.6665 4.32267 17.6665 3.70221 17.6665 3.06698C17.6665 2.59425 17.7921 2.17322 18.0432 1.8039C18.3091 1.4198 18.7375 1.22776 19.3284 1.22776C19.9341 1.22776 20.3699 1.4198 20.6358 1.8039C20.9165 2.17322 21.0569 2.59425 21.0569 3.06698C21.0569 3.70221 21.0421 4.32267 21.0125 4.92836C20.9978 5.51927 21.0421 6.00678 21.1455 6.39087C21.2637 6.76019 21.5222 6.94485 21.9211 6.94485C22.6154 6.94485 22.9626 6.47212 22.9626 5.52666C22.9626 5.2312 22.9035 4.9062 22.7853 4.55165C22.6819 4.18233 22.5711 3.82039 22.4529 3.46585C22.3347 3.09652 22.2756 2.77152 22.2756 2.49084C22.2756 1.22037 22.8074 0.585138 23.8711 0.585138C24.3438 0.585138 24.7427 0.740253 25.0677 1.05048C25.4075 1.36071 25.6734 1.76697 25.8654 2.26924C26.0722 2.77152 26.22 3.31073 26.3086 3.88687C26.412 4.46301 26.4637 5.01699 26.4637 5.54882C26.4637 7.1886 26.0796 8.50339 25.3114 9.49317C24.558 10.4682 23.5239 10.9557 22.2091 10.9557C21.6182 10.9557 21.0716 10.8449 20.5694 10.6233C20.0671 10.3869 19.6534 10.0841 19.3284 9.71476C19.0034 10.0841 18.5972 10.3943 18.1097 10.6455C17.6222 10.8966 17.0756 11.0222 16.4699 11.0222ZM36.0054 11C35.4145 11 34.9934 10.8375 34.7423 10.5125C34.5059 10.1727 34.3656 9.75169 34.3213 9.24942C34.2769 8.73237 34.2548 8.21532 34.2548 7.69827C34.2548 6.91531 34.144 6.28746 33.9224 5.81473C33.7008 5.32722 33.3093 5.08347 32.748 5.08347C32.2457 5.08347 31.8764 5.32722 31.64 5.81473C31.4036 6.28746 31.2854 6.91531 31.2854 7.69827C31.2854 8.21532 31.2633 8.72498 31.219 9.22726C31.1894 9.72953 31.0565 10.1506 30.8201 10.4903C30.5837 10.8153 30.1553 10.9778 29.5349 10.9778C29.0769 10.9778 28.6928 10.808 28.3826 10.4682C28.0871 10.1284 27.8581 9.68522 27.6956 9.13862C27.5331 8.59202 27.415 8.00111 27.3411 7.36588C27.282 6.73065 27.2525 6.11757 27.2525 5.52666C27.2525 4.93574 27.282 4.33006 27.3411 3.7096C27.4002 3.08914 27.5036 2.513 27.6513 1.98117C27.8138 1.44935 28.0428 1.02094 28.3383 0.695935C28.6337 0.370932 29.0178 0.208431 29.4905 0.208431C30.3326 0.208431 30.857 0.592525 31.0638 1.36071C31.2411 1.16867 31.5218 0.991392 31.9059 0.828891C32.3048 0.651616 32.7553 0.562979 33.2576 0.562979C34.3951 0.562979 35.3258 0.85105 36.0497 1.42719C36.7736 2.00333 37.298 2.80107 37.623 3.82039C37.9628 4.82495 38.1253 5.992 38.1105 7.32156C38.1105 8.00111 38.044 8.62157 37.9111 9.18294C37.7929 9.72953 37.5787 10.1727 37.2684 10.5125C36.973 10.8375 36.552 11 36.0054 11ZM44.2377 11C43.1297 11 42.1547 10.7858 41.3127 10.3574C40.4854 9.9142 39.8354 9.31589 39.3627 8.56248C38.9047 7.79429 38.6757 6.91531 38.6757 5.92552C38.6757 4.96529 38.9047 4.07892 39.3627 3.26641C39.8354 2.4539 40.478 1.8039 41.2905 1.31639C42.1178 0.828891 43.0633 0.585138 44.1269 0.585138C45.1167 0.585138 45.9661 0.784572 46.6752 1.18344C47.3843 1.58231 47.9235 2.09197 48.2929 2.71243C48.677 3.31812 48.869 3.96074 48.869 4.64029C48.869 5.31984 48.7139 5.88121 48.4037 6.32439C48.0934 6.7528 47.6872 7.08519 47.1849 7.32156C46.6974 7.54315 46.173 7.69088 45.6116 7.76475C45.0502 7.83861 44.511 7.85338 43.994 7.80906C43.4769 7.74997 43.0411 7.66134 42.6866 7.54315C42.9525 7.97157 43.2849 8.26702 43.6837 8.42952C44.0974 8.57725 44.5258 8.64373 44.969 8.62896C45.4269 8.59941 45.8406 8.54771 46.2099 8.47384C46.6678 8.37043 47.0446 8.39259 47.34 8.54032C47.6355 8.68805 47.7906 8.92441 47.8054 9.24942C47.8201 9.51533 47.7241 9.78124 47.5173 10.0472C47.3252 10.3131 46.9707 10.542 46.4536 10.7341C45.9366 10.9114 45.1979 11 44.2377 11ZM42.753 4.83972C42.9008 5.07609 43.115 5.24597 43.3957 5.34938C43.6763 5.43802 43.957 5.46757 44.2377 5.43802C44.5332 5.40847 44.7769 5.32722 44.969 5.19427C45.1758 5.06131 45.2792 4.87665 45.2792 4.64029C45.2792 4.38915 45.1758 4.16756 44.969 3.97551C44.7769 3.76869 44.4667 3.66528 44.0383 3.66528C43.6246 3.66528 43.307 3.79823 43.0854 4.06415C42.8638 4.31528 42.753 4.57381 42.753 4.83972ZM52.0156 11C51.5133 11 51.0997 10.8375 50.7747 10.5125C50.4645 10.1727 50.2281 9.72215 50.0656 9.16078C49.9031 8.59941 49.7923 7.95679 49.7332 7.23292C49.6741 6.50905 49.6446 5.76302 49.6446 4.99483C49.6446 4.47779 49.652 3.95335 49.6667 3.42153C49.6963 2.87493 49.7701 2.37265 49.8883 1.9147C50.0213 1.45674 50.2355 1.08742 50.5309 0.806732C50.8412 0.511274 51.277 0.363546 51.8383 0.363546C52.2372 0.363546 52.5991 0.459569 52.9241 0.651617C53.2491 0.828891 53.456 1.10219 53.5446 1.47151C53.8844 1.16128 54.3128 0.939687 54.8298 0.806732C55.3617 0.659003 55.9083 0.585138 56.4696 0.585138C56.9424 0.585138 57.4225 0.703321 57.91 0.939687C58.3975 1.16128 58.8111 1.47151 59.1509 1.87038C59.4907 2.26924 59.6606 2.71982 59.6606 3.22209C59.6606 3.65051 59.4981 4.05676 59.1731 4.44085C58.8628 4.82495 58.4196 5.01699 57.8435 5.01699C57.5924 5.01699 57.3855 4.98745 57.223 4.92836C57.0605 4.85449 56.9054 4.78802 56.7577 4.72892C56.61 4.66983 56.4327 4.64029 56.2259 4.64029C55.6793 4.64029 55.177 4.86188 54.719 5.30507C54.2759 5.73348 54.0543 6.31701 54.0543 7.05565C54.0543 7.43974 54.0395 7.86077 54.01 8.31873C53.9952 8.76191 53.9287 9.19033 53.8105 9.60397C53.7071 10.0176 53.5151 10.3574 53.2344 10.6233C52.9537 10.8744 52.5474 11 52.0156 11ZM63.2937 10.8892C62.88 10.8892 62.4959 10.7858 62.1414 10.579C61.8016 10.3574 61.5209 10.0767 61.2993 9.73692C61.0925 9.38237 60.9891 8.99828 60.9891 8.58464C60.9891 8.171 61.0925 7.7869 61.2993 7.43236C61.5209 7.07781 61.8016 6.79712 62.1414 6.5903C62.4959 6.38348 62.88 6.28007 63.2937 6.28007C63.7073 6.28007 64.0914 6.38348 64.4459 6.5903C64.8005 6.79712 65.0812 7.07781 65.288 7.43236C65.4948 7.7869 65.5982 8.171 65.5982 8.58464C65.5982 8.99828 65.4948 9.38237 65.288 9.73692C65.0812 10.0767 64.8005 10.3574 64.4459 10.579C64.0914 10.7858 63.7073 10.8892 63.2937 10.8892Z" fill="white"/>
<path d="M6.0938 11.0222L6.10732 12.0222L6.12082 12.0218L6.0938 11.0222ZM3.2131 10.3574L2.7102 11.2217L2.71943 11.2271L2.72878 11.2323L3.2131 10.3574ZM1.28524 8.45168L0.414086 8.9427L0.419414 8.95215L0.424947 8.96148L1.28524 8.45168ZM0.553982 5.77041L-0.44591 5.78511L-0.445795 5.79291L-0.445559 5.8007L0.553982 5.77041ZM1.24092 3.1113L2.09261 3.63541L2.09698 3.62817L1.24092 3.1113ZM3.2131 1.24992L2.73532 0.371432L2.73532 0.371433L3.2131 1.24992ZM6.0938 0.56298V1.56308L6.10769 1.56288L6.0938 0.56298ZM8.90803 1.22776L8.417 2.09894L8.42371 2.10265L8.90803 1.22776ZM10.8802 3.08914L10.0313 3.61769H10.0313L10.8802 3.08914ZM11.6558 5.77041L12.6558 5.75503L12.6553 5.74101L11.6558 5.77041ZM10.9688 8.40736L11.8249 8.92425L11.8291 8.91717L10.9688 8.40736ZM8.99667 10.2909L9.47448 11.1695L9.4862 11.1629L8.99667 10.2909ZM7.20177 5.17211L6.47763 5.86176L6.48604 5.87059L6.49466 5.87922L7.20177 5.17211ZM5.11879 5.17211L5.8259 5.87922L5.83452 5.87059L5.84293 5.86176L5.11879 5.17211ZM5.11879 7.32156L4.39466 8.01122L5.11879 7.32156ZM6.08029 10.0223C5.1336 10.035 4.35008 9.84378 3.69741 9.48249L2.72878 11.2323C3.73067 11.7869 4.86762 12.0388 6.10731 12.0221L6.08029 10.0223ZM3.71599 9.49303C3.04878 9.10484 2.53007 8.59079 2.14553 7.94188L0.424947 8.96148C0.985869 9.90804 1.7524 10.6645 2.7102 11.2217L3.71599 9.49303ZM2.15639 7.96067C1.78155 7.29562 1.5784 6.56109 1.55352 5.74012L-0.445559 5.8007C-0.411346 6.92974 -0.126986 7.98273 0.414086 8.9427L2.15639 7.96067ZM1.55387 5.7557C1.54157 4.91885 1.73055 4.22369 2.09258 3.6354L0.389261 2.5872C-0.194175 3.53528 -0.463149 4.61286 -0.44591 5.78511L1.55387 5.7557ZM2.09698 3.62817C2.47347 3.00462 2.99697 2.50578 3.69087 2.1284L2.73532 0.371433C1.74512 0.909967 0.953835 1.65206 0.384855 2.59443L2.09698 3.62817ZM3.69087 2.1284C4.36874 1.75973 5.16109 1.56298 6.0938 1.56298V-0.43702C4.86968 -0.43702 3.74156 -0.175816 2.73532 0.371432L3.69087 2.1284ZM6.10769 1.56288C7.01988 1.55021 7.77909 1.73935 8.41702 2.09891L9.39904 0.356606C8.41196 -0.199751 7.29502 -0.453801 6.07991 -0.436924L6.10769 1.56288ZM8.42371 2.10265C9.10587 2.48027 9.63619 2.98311 10.0313 3.61769L11.7291 2.56058C11.1492 1.62924 10.3647 0.891158 9.39235 0.352864L8.42371 2.10265ZM10.0313 3.61769C10.4171 4.23723 10.6314 4.95571 10.6562 5.79981L12.6553 5.74101C12.6211 4.576 12.3184 3.50696 11.7291 2.56058L10.0313 3.61769ZM10.6559 5.78579C10.6679 6.56835 10.4837 7.26449 10.1086 7.89756L11.8291 8.91717C12.3994 7.95477 12.6732 6.89294 12.6557 5.75503L10.6559 5.78579ZM10.1128 7.8905C9.73449 8.51703 9.20709 9.02596 8.50713 9.41892L9.4862 11.1629C10.4704 10.6104 11.2577 9.86362 11.8249 8.92423L10.1128 7.8905ZM8.5189 9.41242C7.83383 9.785 7.02463 9.99664 6.06678 10.0225L6.12082 12.0218C7.34935 11.9886 8.4754 11.7127 9.47444 11.1694L8.5189 9.41242ZM6.16028 8.7869C6.85463 8.7869 7.45729 8.50326 7.9259 8.01122L6.47763 6.6319C6.35533 6.76032 6.26367 6.7869 6.16028 6.7869V8.7869ZM7.9259 8.01122C8.39144 7.52241 8.64495 6.91616 8.64495 6.23575H6.64495C6.64495 6.38263 6.60301 6.50025 6.47763 6.6319L7.9259 8.01122ZM8.64495 6.23575C8.64495 5.55389 8.38973 4.94586 7.90887 4.465L6.49466 5.87922C6.60472 5.98928 6.64495 6.09034 6.64495 6.23575H8.64495ZM7.9259 4.48245C7.45729 3.99041 6.85463 3.70676 6.16028 3.70676V5.70676C6.26367 5.70676 6.35533 5.73335 6.47763 5.86176L7.9259 4.48245ZM6.16028 3.70676C5.46593 3.70676 4.86327 3.99041 4.39466 4.48245L5.84293 5.86176C5.96523 5.73335 6.05689 5.70676 6.16028 5.70676V3.70676ZM4.41169 4.465C3.93083 4.94586 3.67561 5.55389 3.67561 6.23575H5.67561C5.67561 6.09034 5.71584 5.98928 5.8259 5.87922L4.41169 4.465ZM3.67561 6.23575C3.67561 6.91616 3.92912 7.5224 4.39466 8.01122L5.84293 6.6319C5.71755 6.50026 5.67561 6.38263 5.67561 6.23575H3.67561ZM4.39466 8.01122C4.86327 8.50326 5.46593 8.7869 6.16028 8.7869V6.7869C6.05689 6.7869 5.96523 6.76032 5.84293 6.6319L4.39466 8.01122ZM14.2096 10.3352L13.6248 11.1464L14.2096 10.3352ZM12.725 8.42952L11.7999 8.80944L11.8041 8.8195L11.8084 8.82947L12.725 8.42952ZM12.3483 3.90903L11.3632 3.73665L11.3615 3.74679L11.3599 3.75697L12.3483 3.90903ZM12.7914 2.26924L11.8668 1.88849L11.8619 1.90024L11.8574 1.91211L12.7914 2.26924ZM13.5892 1.05048L14.2797 1.77384L14.2804 1.77312L13.5892 1.05048ZM16.071 1.11696L15.2749 1.72204L15.2884 1.73991L15.3028 1.75715L16.071 1.11696ZM16.3812 3.46585L15.4111 3.22331L15.4063 3.24251L15.4023 3.26189L16.3812 3.46585ZM16.1375 4.55165L15.1651 4.31828L15.1616 4.33294L15.1585 4.3477L16.1375 4.55165ZM16.1597 6.5903L15.2233 6.94143L15.2327 6.96655L15.2435 6.99112L16.1597 6.5903ZM17.5114 6.39087L16.5556 6.09678L16.5518 6.10897L16.5484 6.12124L17.5114 6.39087ZM17.6665 4.92836H16.6665V4.94086L16.6668 4.95335L17.6665 4.92836ZM18.0432 1.8039L17.221 1.23467L17.2163 1.24159L18.0432 1.8039ZM20.6358 1.8039L19.8136 2.37311L19.8263 2.39133L19.8397 2.40898L20.6358 1.8039ZM21.0125 4.92836L20.0137 4.87963L20.0131 4.89149L20.0128 4.90337L21.0125 4.92836ZM21.1455 6.39087L20.1799 6.65084L20.1859 6.6734L20.1931 6.69564L21.1455 6.39087ZM22.7853 4.55165L21.8223 4.82128L21.8289 4.84475L21.8366 4.86788L22.7853 4.55165ZM22.4529 3.46585L21.5004 3.77064L21.5042 3.78207L22.4529 3.46585ZM25.0677 1.05048L24.3772 1.77384L24.3852 1.78149L24.3934 1.78897L25.0677 1.05048ZM25.8654 2.26924L24.9314 2.62638L24.9359 2.63825L24.9407 2.64999L25.8654 2.26924ZM26.3086 3.88687L25.3202 4.03893L25.3221 4.05126L25.3243 4.06354L26.3086 3.88687ZM25.3114 9.49317L24.5215 8.88004L24.5202 8.88172L25.3114 9.49317ZM20.5694 10.6233L20.1436 11.5281L20.1546 11.5333L20.1657 11.5382L20.5694 10.6233ZM19.3284 9.71476L20.0791 9.05413L19.3284 8.20105L18.5777 9.05413L19.3284 9.71476ZM18.1097 10.6455L17.6517 9.75648L18.1097 10.6455ZM16.4699 10.0222C15.7834 10.0222 15.2403 9.84547 14.7944 9.52405L13.6248 11.1464C14.4495 11.7409 15.4132 12.0222 16.4699 12.0222V10.0222ZM14.7944 9.52405C14.3231 9.18423 13.934 8.6999 13.6415 8.02958L11.8084 8.82947C12.225 9.78416 12.8257 10.5703 13.6248 11.1464L14.7944 9.52405ZM13.65 8.0496C13.3688 7.36494 13.2153 6.54527 13.2153 5.57098H11.2153C11.2153 6.75352 11.4016 7.83955 11.7999 8.80944L13.65 8.0496ZM13.2153 5.57098C13.2153 5.09464 13.255 4.59165 13.3366 4.06109L11.3599 3.75697C11.2642 4.37869 11.2153 4.98367 11.2153 5.57098H13.2153ZM13.3333 4.08141C13.4269 3.54644 13.5588 3.06244 13.7255 2.62638L11.8574 1.91211C11.64 2.4806 11.4764 3.08979 11.3632 3.73665L13.3333 4.08141ZM13.7161 2.64999C13.8806 2.25056 14.0747 1.96951 14.2797 1.77384L12.8987 0.327127C12.4537 0.751914 12.1159 1.28338 11.8668 1.88849L13.7161 2.64999ZM14.2804 1.77312C14.433 1.6272 14.5912 1.56298 14.8079 1.56298V-0.43702C14.0792 -0.43702 13.425 -0.176244 12.898 0.327841L14.2804 1.77312ZM14.8079 1.56298C15.1302 1.56298 15.2237 1.65471 15.2749 1.72204L16.8672 0.511878C16.357 -0.159434 15.6084 -0.43702 14.8079 -0.43702V1.56298ZM15.3028 1.75715C15.4106 1.88651 15.5142 2.11124 15.5142 2.53515H17.5142C17.5142 1.77724 17.3223 1.05651 16.8392 0.476777L15.3028 1.75715ZM15.5142 2.53515C15.5142 2.69529 15.4867 2.9208 15.4111 3.22331L17.3514 3.70838C17.453 3.3018 17.5142 2.90684 17.5142 2.53515H15.5142ZM15.4023 3.26189C15.3305 3.60614 15.2515 3.95826 15.1651 4.31828L17.1099 4.78502C17.2008 4.4064 17.2842 4.03465 17.3602 3.6698L15.4023 3.26189ZM15.1585 4.3477C15.0737 4.75492 15.0267 5.14937 15.0267 5.52666H17.0267C17.0267 5.31303 17.0536 5.05748 17.1165 4.7556L15.1585 4.3477ZM15.0267 5.52666C15.0267 6.03346 15.0704 6.53359 15.2233 6.94143L17.096 6.23918C17.0716 6.17429 17.0267 5.96532 17.0267 5.52666H15.0267ZM15.2435 6.99112C15.3827 7.30927 15.6178 7.57055 15.9328 7.73857C16.2305 7.89732 16.5458 7.94485 16.8244 7.94485V5.94485C16.7633 5.94485 16.7979 5.93329 16.874 5.97386C16.914 5.99522 16.9573 6.02688 16.9965 6.06969C17.0355 6.11225 17.0608 6.15507 17.0758 6.18948L15.2435 6.99112ZM16.8244 7.94485C17.1815 7.94485 17.5631 7.84828 17.8898 7.58477C18.2092 7.32725 18.3835 6.98495 18.4743 6.6605L16.5484 6.12124C16.5358 6.16611 16.544 6.1008 16.6343 6.02794C16.6778 5.99287 16.7243 5.96975 16.7651 5.95683C16.8038 5.94458 16.8266 5.94485 16.8244 5.94485V7.94485ZM18.4671 6.68496C18.6283 6.16126 18.6825 5.55634 18.6662 4.90337L16.6668 4.95335C16.68 5.48221 16.6308 5.85229 16.5556 6.09678L18.4671 6.68496ZM18.6665 4.92836C18.6665 4.92717 18.6665 4.92599 18.6665 4.92481C18.6665 4.92362 18.6665 4.92244 18.6665 4.92126C18.6665 4.92007 18.6665 4.91889 18.6665 4.91771C18.6665 4.91652 18.6665 4.91534 18.6665 4.91416C18.6665 4.91298 18.6665 4.91179 18.6665 4.91061C18.6665 4.90942 18.6665 4.90824 18.6665 4.90706C18.6665 4.90587 18.6665 4.90469 18.6665 4.90351C18.6665 4.90232 18.6665 4.90114 18.6665 4.89995C18.6665 4.89877 18.6665 4.89759 18.6665 4.8964C18.6665 4.89522 18.6665 4.89404 18.6665 4.89285C18.6665 4.89167 18.6665 4.89048 18.6665 4.8893C18.6665 4.88811 18.6665 4.88693 18.6665 4.88575C18.6665 4.88456 18.6665 4.88338 18.6665 4.88219C18.6665 4.88101 18.6665 4.87982 18.6665 4.87864C18.6665 4.87745 18.6665 4.87627 18.6665 4.87509C18.6665 4.8739 18.6665 4.87271 18.6665 4.87153C18.6665 4.87035 18.6665 4.86916 18.6665 4.86798C18.6665 4.86679 18.6665 4.86561 18.6665 4.86442C18.6665 4.86324 18.6665 4.86205 18.6665 4.86087C18.6665 4.85968 18.6665 4.8585 18.6665 4.85731C18.6665 4.85612 18.6665 4.85494 18.6665 4.85375C18.6665 4.85257 18.6665 4.85138 18.6665 4.8502C18.6665 4.84901 18.6665 4.84783 18.6665 4.84664C18.6665 4.84546 18.6665 4.84427 18.6665 4.84308C18.6665 4.8419 18.6665 4.84071 18.6665 4.83953C18.6665 4.83834 18.6665 4.83716 18.6665 4.83597C18.6665 4.83478 18.6665 4.8336 18.6665 4.83241C18.6665 4.83123 18.6665 4.83004 18.6665 4.82885C18.6665 4.82767 18.6665 4.82648 18.6665 4.8253C18.6665 4.82411 18.6665 4.82292 18.6665 4.82174C18.6665 4.82055 18.6665 4.81936 18.6665 4.81818C18.6665 4.81699 18.6665 4.8158 18.6665 4.81462C18.6665 4.81343 18.6665 4.81224 18.6665 4.81106C18.6665 4.80987 18.6665 4.80868 18.6665 4.8075C18.6665 4.80631 18.6665 4.80512 18.6665 4.80394C18.6665 4.80275 18.6665 4.80156 18.6665 4.80038C18.6665 4.79919 18.6665 4.798 18.6665 4.79681C18.6665 4.79563 18.6665 4.79444 18.6665 4.79325C18.6665 4.79207 18.6665 4.79088 18.6665 4.78969C18.6665 4.7885 18.6665 4.78732 18.6665 4.78613C18.6665 4.78494 18.6665 4.78375 18.6665 4.78257C18.6665 4.78138 18.6665 4.78019 18.6665 4.779C18.6665 4.77781 18.6665 4.77663 18.6665 4.77544C18.6665 4.77425 18.6665 4.77306 18.6665 4.77188C18.6665 4.77069 18.6665 4.7695 18.6665 4.76831C18.6665 4.76712 18.6665 4.76594 18.6665 4.76475C18.6665 4.76356 18.6665 4.76237 18.6665 4.76118C18.6665 4.75999 18.6665 4.75881 18.6665 4.75762C18.6665 4.75643 18.6665 4.75524 18.6665 4.75405C18.6665 4.75286 18.6665 4.75168 18.6665 4.75049C18.6665 4.7493 18.6665 4.74811 18.6665 4.74692C18.6665 4.74573 18.6665 4.74454 18.6665 4.74335C18.6665 4.74217 18.6665 4.74098 18.6665 4.73979C18.6665 4.7386 18.6665 4.73741 18.6665 4.73622C18.6665 4.73503 18.6665 4.73384 18.6665 4.73265C18.6665 4.73146 18.6665 4.73028 18.6665 4.72909C18.6665 4.7279 18.6665 4.72671 18.6665 4.72552C18.6665 4.72433 18.6665 4.72314 18.6665 4.72195C18.6665 4.72076 18.6665 4.71957 18.6665 4.71838C18.6665 4.71719 18.6665 4.716 18.6665 4.71481C18.6665 4.71362 18.6665 4.71243 18.6665 4.71124C18.6665 4.71005 18.6665 4.70886 18.6665 4.70767C18.6665 4.70648 18.6665 4.70529 18.6665 4.7041C18.6665 4.70291 18.6665 4.70172 18.6665 4.70053C18.6665 4.69934 18.6665 4.69815 18.6665 4.69696C18.6665 4.69577 18.6665 4.69458 18.6665 4.69339C18.6665 4.6922 18.6665 4.69101 18.6665 4.68982C18.6665 4.68863 18.6665 4.68744 18.6665 4.68625C18.6665 4.68506 18.6665 4.68387 18.6665 4.68267C18.6665 4.68148 18.6665 4.68029 18.6665 4.6791C18.6665 4.67791 18.6665 4.67672 18.6665 4.67553C18.6665 4.67434 18.6665 4.67315 18.6665 4.67196C18.6665 4.67076 18.6665 4.66957 18.6665 4.66838C18.6665 4.66719 18.6665 4.666 18.6665 4.66481C18.6665 4.66362 18.6665 4.66243 18.6665 4.66124C18.6665 4.66004 18.6665 4.65885 18.6665 4.65766C18.6665 4.65647 18.6665 4.65528 18.6665 4.65409C18.6665 4.65289 18.6665 4.6517 18.6665 4.65051C18.6665 4.64932 18.6665 4.64813 18.6665 4.64693C18.6665 4.64574 18.6665 4.64455 18.6665 4.64336C18.6665 4.64217 18.6665 4.64098 18.6665 4.63978C18.6665 4.63859 18.6665 4.6374 18.6665 4.63621C18.6665 4.63501 18.6665 4.63382 18.6665 4.63263C18.6665 4.63144 18.6665 4.63025 18.6665 4.62905C18.6665 4.62786 18.6665 4.62667 18.6665 4.62547C18.6665 4.62428 18.6665 4.62309 18.6665 4.6219C18.6665 4.6207 18.6665 4.61951 18.6665 4.61832C18.6665 4.61713 18.6665 4.61593 18.6665 4.61474C18.6665 4.61355 18.6665 4.61235 18.6665 4.61116C18.6665 4.60997 18.6665 4.60878 18.6665 4.60758C18.6665 4.60639 18.6665 4.6052 18.6665 4.604C18.6665 4.60281 18.6665 4.60162 18.6665 4.60042C18.6665 4.59923 18.6665 4.59804 18.6665 4.59684C18.6665 4.59565 18.6665 4.59446 18.6665 4.59326C18.6665 4.59207 18.6665 4.59088 18.6665 4.58968C18.6665 4.58849 18.6665 4.58729 18.6665 4.5861C18.6665 4.58491 18.6665 4.58371 18.6665 4.58252C18.6665 4.58133 18.6665 4.58013 18.6665 4.57894C18.6665 4.57774 18.6665 4.57655 18.6665 4.57535C18.6665 4.57416 18.6665 4.57297 18.6665 4.57177C18.6665 4.57058 18.6665 4.56938 18.6665 4.56819C18.6665 4.56699 18.6665 4.5658 18.6665 4.56461C18.6665 4.56341 18.6665 4.56222 18.6665 4.56102C18.6665 4.55983 18.6665 4.55863 18.6665 4.55744C18.6665 4.55624 18.6665 4.55505 18.6665 4.55385C18.6665 4.55266 18.6665 4.55146 18.6665 4.55027C18.6665 4.54907 18.6665 4.54788 18.6665 4.54668C18.6665 4.54549 18.6665 4.54429 18.6665 4.5431C18.6665 4.5419 18.6665 4.54071 18.6665 4.53951C18.6665 4.53832 18.6665 4.53712 18.6665 4.53593C18.6665 4.53473 18.6665 4.53354 18.6665 4.53234C18.6665 4.53115 18.6665 4.52995 18.6665 4.52876C18.6665 4.52756 18.6665 4.52636 18.6665 4.52517C18.6665 4.52397 18.6665 4.52278 18.6665 4.52158C18.6665 4.52038 18.6665 4.51919 18.6665 4.51799C18.6665 4.5168 18.6665 4.5156 18.6665 4.5144C18.6665 4.51321 18.6665 4.51201 18.6665 4.51082C18.6665 4.50962 18.6665 4.50842 18.6665 4.50723C18.6665 4.50603 18.6665 4.50484 18.6665 4.50364C18.6665 4.50244 18.6665 4.50125 18.6665 4.50005C18.6665 4.49885 18.6665 4.49766 18.6665 4.49646C18.6665 4.49526 18.6665 4.49407 18.6665 4.49287C18.6665 4.49167 18.6665 4.49048 18.6665 4.48928C18.6665 4.48808 18.6665 4.48689 18.6665 4.48569C18.6665 4.48449 18.6665 4.48329 18.6665 4.4821C18.6665 4.4809 18.6665 4.4797 18.6665 4.47851C18.6665 4.47731 18.6665 4.47611 18.6665 4.47491C18.6665 4.47372 18.6665 4.47252 18.6665 4.47132C18.6665 4.47013 18.6665 4.46893 18.6665 4.46773C18.6665 4.46653 18.6665 4.46533 18.6665 4.46414C18.6665 4.46294 18.6665 4.46174 18.6665 4.46054C18.6665 4.45935 18.6665 4.45815 18.6665 4.45695C18.6665 4.45575 18.6665 4.45456 18.6665 4.45336C18.6665 4.45216 18.6665 4.45096 18.6665 4.44976C18.6665 4.44856 18.6665 4.44737 18.6665 4.44617C18.6665 4.44497 18.6665 4.44377 18.6665 4.44257C18.6665 4.44138 18.6665 4.44018 18.6665 4.43898C18.6665 4.43778 18.6665 4.43658 18.6665 4.43538C18.6665 4.43419 18.6665 4.43299 18.6665 4.43179C18.6665 4.43059 18.6665 4.42939 18.6665 4.42819C18.6665 4.42699 18.6665 4.42579 18.6665 4.42459C18.6665 4.4234 18.6665 4.4222 18.6665 4.421C18.6665 4.4198 18.6665 4.4186 18.6665 4.4174C18.6665 4.4162 18.6665 4.415 18.6665 4.4138C18.6665 4.4126 18.6665 4.4114 18.6665 4.41021C18.6665 4.40901 18.6665 4.40781 18.6665 4.40661C18.6665 4.40541 18.6665 4.40421 18.6665 4.40301C18.6665 4.40181 18.6665 4.40061 18.6665 4.39941C18.6665 4.39821 18.6665 4.39701 18.6665 4.39581C18.6665 4.39461 18.6665 4.39341 18.6665 4.39221C18.6665 4.39101 18.6665 4.38981 18.6665 4.38861C18.6665 4.38741 18.6665 4.38621 18.6665 4.38501C18.6665 4.38381 18.6665 4.38261 18.6665 4.38141C18.6665 4.38021 18.6665 4.37901 18.6665 4.37781C18.6665 4.37661 18.6665 4.37541 18.6665 4.37421C18.6665 4.37301 18.6665 4.37181 18.6665 4.37061C18.6665 4.36941 18.6665 4.36821 18.6665 4.367C18.6665 4.3658 18.6665 4.3646 18.6665 4.3634C18.6665 4.3622 18.6665 4.361 18.6665 4.3598C18.6665 4.3586 18.6665 4.3574 18.6665 4.3562C18.6665 4.355 18.6665 4.3538 18.6665 4.35259C18.6665 4.35139 18.6665 4.35019 18.6665 4.34899C18.6665 4.34779 18.6665 4.34659 18.6665 4.34539C18.6665 4.34418 18.6665 4.34298 18.6665 4.34178C18.6665 4.34058 18.6665 4.33938 18.6665 4.33818C18.6665 4.33698 18.6665 4.33578 18.6665 4.33457C18.6665 4.33337 18.6665 4.33217 18.6665 4.33097C18.6665 4.32977 18.6665 4.32856 18.6665 4.32736C18.6665 4.32616 18.6665 4.32496 18.6665 4.32376C18.6665 4.32255 18.6665 4.32135 18.6665 4.32015C18.6665 4.31895 18.6665 4.31775 18.6665 4.31654C18.6665 4.31534 18.6665 4.31414 18.6665 4.31294C18.6665 4.31174 18.6665 4.31053 18.6665 4.30933C18.6665 4.30813 18.6665 4.30692 18.6665 4.30572C18.6665 4.30452 18.6665 4.30332 18.6665 4.30211C18.6665 4.30091 18.6665 4.29971 18.6665 4.29851C18.6665 4.2973 18.6665 4.2961 18.6665 4.2949C18.6665 4.29369 18.6665 4.29249 18.6665 4.29129C18.6665 4.29008 18.6665 4.28888 18.6665 4.28768C18.6665 4.28648 18.6665 4.28527 18.6665 4.28407C18.6665 4.28287 18.6665 4.28166 18.6665 4.28046C18.6665 4.27925 18.6665 4.27805 18.6665 4.27685C18.6665 4.27564 18.6665 4.27444 18.6665 4.27324C18.6665 4.27203 18.6665 4.27083 18.6665 4.26963C18.6665 4.26842 18.6665 4.26722 18.6665 4.26602C18.6665 4.26481 18.6665 4.26361 18.6665 4.2624C18.6665 4.2612 18.6665 4.26 18.6665 4.25879C18.6665 4.25759 18.6665 4.25638 18.6665 4.25518C18.6665 4.25397 18.6665 4.25277 18.6665 4.25157C18.6665 4.25036 18.6665 4.24916 18.6665 4.24795C18.6665 4.24675 18.6665 4.24554 18.6665 4.24434C18.6665 4.24314 18.6665 4.24193 18.6665 4.24073C18.6665 4.23952 18.6665 4.23832 18.6665 4.23711C18.6665 4.23591 18.6665 4.2347 18.6665 4.2335C18.6665 4.23229 18.6665 4.23109 18.6665 4.22988C18.6665 4.22868 18.6665 4.22747 18.6665 4.22627C18.6665 4.22506 18.6665 4.22386 18.6665 4.22265C18.6665 4.22145 18.6665 4.22024 18.6665 4.21904C18.6665 4.21783 18.6665 4.21663 18.6665 4.21542C18.6665 4.21422 18.6665 4.21301 18.6665 4.21181C18.6665 4.2106 18.6665 4.20939 18.6665 4.20819C18.6665 4.20698 18.6665 4.20578 18.6665 4.20457C18.6665 4.20337 18.6665 4.20216 18.6665 4.20095C18.6665 4.19975 18.6665 4.19854 18.6665 4.19734C18.6665 4.19613 18.6665 4.19492 18.6665 4.19372C18.6665 4.19251 18.6665 4.19131 18.6665 4.1901C18.6665 4.18889 18.6665 4.18769 18.6665 4.18648C18.6665 4.18527 18.6665 4.18407 18.6665 4.18286C18.6665 4.18166 18.6665 4.18045 18.6665 4.17924C18.6665 4.17804 18.6665 4.17683 18.6665 4.17562C18.6665 4.17442 18.6665 4.17321 18.6665 4.172C18.6665 4.1708 18.6665 4.16959 18.6665 4.16838C18.6665 4.16718 18.6665 4.16597 18.6665 4.16476C18.6665 4.16356 18.6665 4.16235 18.6665 4.16114C18.6665 4.15993 18.6665 4.15873 18.6665 4.15752C18.6665 4.15631 18.6665 4.1551 18.6665 4.1539C18.6665 4.15269 18.6665 4.15148 18.6665 4.15027C18.6665 4.14907 18.6665 4.14786 18.6665 4.14665C18.6665 4.14544 18.6665 4.14424 18.6665 4.14303C18.6665 4.14182 18.6665 4.14061 18.6665 4.13941C18.6665 4.1382 18.6665 4.13699 18.6665 4.13578C18.6665 4.13457 18.6665 4.13337 18.6665 4.13216C18.6665 4.13095 18.6665 4.12974 18.6665 4.12853C18.6665 4.12733 18.6665 4.12612 18.6665 4.12491C18.6665 4.1237 18.6665 4.12249 18.6665 4.12128C18.6665 4.12008 18.6665 4.11887 18.6665 4.11766C18.6665 4.11645 18.6665 4.11524 18.6665 4.11403C18.6665 4.11283 18.6665 4.11162 18.6665 4.11041C18.6665 4.1092 18.6665 4.10799 18.6665 4.10678C18.6665 4.10557 18.6665 4.10436 18.6665 4.10316C18.6665 4.10195 18.6665 4.10074 18.6665 4.09953C18.6665 4.09832 18.6665 4.09711 18.6665 4.0959C18.6665 4.09469 18.6665 4.09348 18.6665 4.09227C18.6665 4.09106 18.6665 4.08986 18.6665 4.08865C18.6665 4.08744 18.6665 4.08623 18.6665 4.08502C18.6665 4.08381 18.6665 4.0826 18.6665 4.08139C18.6665 4.08018 18.6665 4.07897 18.6665 4.07776C18.6665 4.07655 18.6665 4.07534 18.6665 4.07413C18.6665 4.07292 18.6665 4.07171 18.6665 4.0705C18.6665 4.06929 18.6665 4.06808 18.6665 4.06687C18.6665 4.06566 18.6665 4.06445 18.6665 4.06324C18.6665 4.06203 18.6665 4.06082 18.6665 4.05961C18.6665 4.0584 18.6665 4.05719 18.6665 4.05598C18.6665 4.05477 18.6665 4.05356 18.6665 4.05235C18.6665 4.05114 18.6665 4.04993 18.6665 4.04872C18.6665 4.04751 18.6665 4.0463 18.6665 4.04509C18.6665 4.04387 18.6665 4.04266 18.6665 4.04145C18.6665 4.04024 18.6665 4.03903 18.6665 4.03782C18.6665 4.03661 18.6665 4.0354 18.6665 4.03419C18.6665 4.03298 18.6665 4.03176 18.6665 4.03055C18.6665 4.02934 18.6665 4.02813 18.6665 4.02692C18.6665 4.02571 18.6665 4.0245 18.6665 4.02329C18.6665 4.02208 18.6665 4.02086 18.6665 4.01965C18.6665 4.01844 18.6665 4.01723 18.6665 4.01602C18.6665 4.0148 18.6665 4.01359 18.6665 4.01238C18.6665 4.01117 18.6665 4.00996 18.6665 4.00875C18.6665 4.00754 18.6665 4.00632 18.6665 4.00511C18.6665 4.0039 18.6665 4.00269 18.6665 4.00148C18.6665 4.00026 18.6665 3.99905 18.6665 3.99784C18.6665 3.99663 18.6665 3.99541 18.6665 3.9942C18.6665 3.99299 18.6665 3.99178 18.6665 3.99056C18.6665 3.98935 18.6665 3.98814 18.6665 3.98693C18.6665 3.98572 18.6665 3.9845 18.6665 3.98329C18.6665 3.98208 18.6665 3.98087 18.6665 3.97965C18.6665 3.97844 18.6665 3.97723 18.6665 3.97601C18.6665 3.9748 18.6665 3.97359 18.6665 3.97238C18.6665 3.97116 18.6665 3.96995 18.6665 3.96874C18.6665 3.96752 18.6665 3.96631 18.6665 3.9651C18.6665 3.96388 18.6665 3.96267 18.6665 3.96146C18.6665 3.96024 18.6665 3.95903 18.6665 3.95782C18.6665 3.9566 18.6665 3.95539 18.6665 3.95418C18.6665 3.95296 18.6665 3.95175 18.6665 3.95053C18.6665 3.94932 18.6665 3.94811 18.6665 3.94689C18.6665 3.94568 18.6665 3.94447 18.6665 3.94325C18.6665 3.94204 18.6665 3.94082 18.6665 3.93961C18.6665 3.9384 18.6665 3.93718 18.6665 3.93597C18.6665 3.93476 18.6665 3.93354 18.6665 3.93233C18.6665 3.93111 18.6665 3.9299 18.6665 3.92868C18.6665 3.92747 18.6665 3.92626 18.6665 3.92504C18.6665 3.92383 18.6665 3.92261 18.6665 3.9214C18.6665 3.92018 18.6665 3.91897 18.6665 3.91775C18.6665 3.91654 18.6665 3.91533 18.6665 3.91411C18.6665 3.9129 18.6665 3.91168 18.6665 3.91047C18.6665 3.90925 18.6665 3.90804 18.6665 3.90682C18.6665 3.90561 18.6665 3.90439 18.6665 3.90318C18.6665 3.90196 18.6665 3.90075 18.6665 3.89953C18.6665 3.89832 18.6665 3.8971 18.6665 3.89588C18.6665 3.89467 18.6665 3.89345 18.6665 3.89224C18.6665 3.89102 18.6665 3.88981 18.6665 3.88859C18.6665 3.88737 18.6665 3.88616 18.6665 3.88494C18.6665 3.88373 18.6665 3.88251 18.6665 3.8813C18.6665 3.88008 18.6665 3.87887 18.6665 3.87765C18.6665 3.87643 18.6665 3.87522 18.6665 3.874C18.6665 3.87279 18.6665 3.87157 18.6665 3.87035C18.6665 3.86914 18.6665 3.86792 18.6665 3.8667C18.6665 3.86549 18.6665 3.86427 18.6665 3.86306C18.6665 3.86184 18.6665 3.86062 18.6665 3.85941C18.6665 3.85819 18.6665 3.85697 18.6665 3.85576C18.6665 3.85454 18.6665 3.85332 18.6665 3.85211C18.6665 3.85089 18.6665 3.84967 18.6665 3.84846C18.6665 3.84724 18.6665 3.84602 18.6665 3.84481C18.6665 3.84359 18.6665 3.84237 18.6665 3.84116C18.6665 3.83994 18.6665 3.83872 18.6665 3.83751C18.6665 3.83629 18.6665 3.83507 18.6665 3.83385C18.6665 3.83264 18.6665 3.83142 18.6665 3.8302C18.6665 3.82898 18.6665 3.82777 18.6665 3.82655C18.6665 3.82533 18.6665 3.82411 18.6665 3.8229C18.6665 3.82168 18.6665 3.82046 18.6665 3.81924C18.6665 3.81803 18.6665 3.81681 18.6665 3.81559C18.6665 3.81437 18.6665 3.81315 18.6665 3.81194C18.6665 3.81072 18.6665 3.8095 18.6665 3.80828C18.6665 3.80706 18.6665 3.80585 18.6665 3.80463C18.6665 3.80341 18.6665 3.80219 18.6665 3.80097C18.6665 3.79976 18.6665 3.79854 18.6665 3.79732C18.6665 3.7961 18.6665 3.79488 18.6665 3.79366C18.6665 3.79245 18.6665 3.79123 18.6665 3.79001C18.6665 3.78879 18.6665 3.78757 18.6665 3.78635C18.6665 3.78513 18.6665 3.78391 18.6665 3.7827C18.6665 3.78148 18.6665 3.78026 18.6665 3.77904C18.6665 3.77782 18.6665 3.7766 18.6665 3.77538C18.6665 3.77416 18.6665 3.77294 18.6665 3.77172C18.6665 3.77051 18.6665 3.76929 18.6665 3.76807C18.6665 3.76685 18.6665 3.76563 18.6665 3.76441C18.6665 3.76319 18.6665 3.76197 18.6665 3.76075C18.6665 3.75953 18.6665 3.75831 18.6665 3.75709C18.6665 3.75587 18.6665 3.75465 18.6665 3.75343C18.6665 3.75221 18.6665 3.75099 18.6665 3.74977C18.6665 3.74855 18.6665 3.74733 18.6665 3.74611C18.6665 3.74489 18.6665 3.74367 18.6665 3.74245C18.6665 3.74123 18.6665 3.74001 18.6665 3.73879C18.6665 3.73757 18.6665 3.73635 18.6665 3.73513C18.6665 3.73391 18.6665 3.73269 18.6665 3.73147C18.6665 3.73025 18.6665 3.72903 18.6665 3.72781C18.6665 3.72659 18.6665 3.72537 18.6665 3.72415C18.6665 3.72293 18.6665 3.72171 18.6665 3.72049C18.6665 3.71927 18.6665 3.71805 18.6665 3.71683C18.6665 3.7156 18.6665 3.71438 18.6665 3.71316C18.6665 3.71194 18.6665 3.71072 18.6665 3.7095C18.6665 3.70828 18.6665 3.70706 18.6665 3.70584C18.6665 3.70461 18.6665 3.70339 18.6665 3.70217C18.6665 3.70095 18.6665 3.69973 18.6665 3.69851C18.6665 3.69729 18.6665 3.69606 18.6665 3.69484C18.6665 3.69362 18.6665 3.6924 18.6665 3.69118C18.6665 3.68996 18.6665 3.68874 18.6665 3.68751C18.6665 3.68629 18.6665 3.68507 18.6665 3.68385C18.6665 3.68263 18.6665 3.6814 18.6665 3.68018C18.6665 3.67896 18.6665 3.67774 18.6665 3.67652C18.6665 3.67529 18.6665 3.67407 18.6665 3.67285C18.6665 3.67163 18.6665 3.6704 18.6665 3.66918C18.6665 3.66796 18.6665 3.66674 18.6665 3.66552C18.6665 3.66429 18.6665 3.66307 18.6665 3.66185C18.6665 3.66063 18.6665 3.6594 18.6665 3.65818C18.6665 3.65696 18.6665 3.65574 18.6665 3.65451C18.6665 3.65329 18.6665 3.65207 18.6665 3.65084C18.6665 3.64962 18.6665 3.6484 18.6665 3.64717C18.6665 3.64595 18.6665 3.64473 18.6665 3.64351C18.6665 3.64228 18.6665 3.64106 18.6665 3.63984C18.6665 3.63861 18.6665 3.63739 18.6665 3.63617C18.6665 3.63494 18.6665 3.63372 18.6665 3.6325C18.6665 3.63127 18.6665 3.63005 18.6665 3.62883C18.6665 3.6276 18.6665 3.62638 18.6665 3.62515C18.6665 3.62393 18.6665 3.62271 18.6665 3.62148C18.6665 3.62026 18.6665 3.61904 18.6665 3.61781C18.6665 3.61659 18.6665 3.61536 18.6665 3.61414C18.6665 3.61292 18.6665 3.61169 18.6665 3.61047C18.6665 3.60924 18.6665 3.60802 18.6665 3.6068C18.6665 3.60557 18.6665 3.60435 18.6665 3.60312C18.6665 3.6019 18.6665 3.60067 18.6665 3.59945C18.6665 3.59822 18.6665 3.597 18.6665 3.59578C18.6665 3.59455 18.6665 3.59333 18.6665 3.5921C18.6665 3.59088 18.6665 3.58965 18.6665 3.58843C18.6665 3.5872 18.6665 3.58598 18.6665 3.58475C18.6665 3.58353 18.6665 3.5823 18.6665 3.58108C18.6665 3.57985 18.6665 3.57863 18.6665 3.5774C18.6665 3.57618 18.6665 3.57495 18.6665 3.57373C18.6665 3.5725 18.6665 3.57128 18.6665 3.57005C18.6665 3.56883 18.6665 3.5676 18.6665 3.56638C18.6665 3.56515 18.6665 3.56392 18.6665 3.5627C18.6665 3.56147 18.6665 3.56025 18.6665 3.55902C18.6665 3.5578 18.6665 3.55657 18.6665 3.55535C18.6665 3.55412 18.6665 3.55289 18.6665 3.55167C18.6665 3.55044 18.6665 3.54922 18.6665 3.54799C18.6665 3.54676 18.6665 3.54554 18.6665 3.54431C18.6665 3.54309 18.6665 3.54186 18.6665 3.54063C18.6665 3.53941 18.6665 3.53818 18.6665 3.53695C18.6665 3.53573 18.6665 3.5345 18.6665 3.53327C18.6665 3.53205 18.6665 3.53082 18.6665 3.52959C18.6665 3.52837 18.6665 3.52714 18.6665 3.52592C18.6665 3.52469 18.6665 3.52346 18.6665 3.52223C18.6665 3.52101 18.6665 3.51978 18.6665 3.51855C18.6665 3.51733 18.6665 3.5161 18.6665 3.51487C18.6665 3.51365 18.6665 3.51242 18.6665 3.51119C18.6665 3.50996 18.6665 3.50874 18.6665 3.50751C18.6665 3.50628 18.6665 3.50505 18.6665 3.50383C18.6665 3.5026 18.6665 3.50137 18.6665 3.50014C18.6665 3.49892 18.6665 3.49769 18.6665 3.49646C18.6665 3.49524 18.6665 3.49401 18.6665 3.49278C18.6665 3.49155 18.6665 3.49032 18.6665 3.4891C18.6665 3.48787 18.6665 3.48664 18.6665 3.48541C18.6665 3.48418 18.6665 3.48296 18.6665 3.48173C18.6665 3.4805 18.6665 3.47927 18.6665 3.47804C18.6665 3.47682 18.6665 3.47559 18.6665 3.47436C18.6665 3.47313 18.6665 3.4719 18.6665 3.47067C18.6665 3.46945 18.6665 3.46822 18.6665 3.46699C18.6665 3.46576 18.6665 3.46453 18.6665 3.4633C18.6665 3.46207 18.6665 3.46085 18.6665 3.45962C18.6665 3.45839 18.6665 3.45716 18.6665 3.45593C18.6665 3.4547 18.6665 3.45347 18.6665 3.45224C18.6665 3.45102 18.6665 3.44979 18.6665 3.44856C18.6665 3.44733 18.6665 3.4461 18.6665 3.44487C18.6665 3.44364 18.6665 3.44241 18.6665 3.44118C18.6665 3.43995 18.6665 3.43872 18.6665 3.43749C18.6665 3.43626 18.6665 3.43504 18.6665 3.43381C18.6665 3.43258 18.6665 3.43135 18.6665 3.43012C18.6665 3.42889 18.6665 3.42766 18.6665 3.42643C18.6665 3.4252 18.6665 3.42397 18.6665 3.42274C18.6665 3.42151 18.6665 3.42028 18.6665 3.41905C18.6665 3.41782 18.6665 3.41659 18.6665 3.41536C18.6665 3.41413 18.6665 3.4129 18.6665 3.41167C18.6665 3.41044 18.6665 3.40921 18.6665 3.40798C18.6665 3.40675 18.6665 3.40552 18.6665 3.40429C18.6665 3.40306 18.6665 3.40182 18.6665 3.40059C18.6665 3.39936 18.6665 3.39813 18.6665 3.3969C18.6665 3.39567 18.6665 3.39444 18.6665 3.39321C18.6665 3.39198 18.6665 3.39075 18.6665 3.38952C18.6665 3.38829 18.6665 3.38706 18.6665 3.38582C18.6665 3.38459 18.6665 3.38336 18.6665 3.38213C18.6665 3.3809 18.6665 3.37967 18.6665 3.37844C18.6665 3.37721 18.6665 3.37598 18.6665 3.37474C18.6665 3.37351 18.6665 3.37228 18.6665 3.37105C18.6665 3.36982 18.6665 3.36859 18.6665 3.36736C18.6665 3.36613 18.6665 3.36489 18.6665 3.36366C18.6665 3.36243 18.6665 3.3612 18.6665 3.35997C18.6665 3.35873 18.6665 3.3575 18.6665 3.35627C18.6665 3.35504 18.6665 3.35381 18.6665 3.35258C18.6665 3.35134 18.6665 3.35011 18.6665 3.34888C18.6665 3.34765 18.6665 3.34641 18.6665 3.34518C18.6665 3.34395 18.6665 3.34272 18.6665 3.34148C18.6665 3.34025 18.6665 3.33902 18.6665 3.33779C18.6665 3.33656 18.6665 3.33532 18.6665 3.33409C18.6665 3.33286 18.6665 3.33162 18.6665 3.33039C18.6665 3.32916 18.6665 3.32793 18.6665 3.32669C18.6665 3.32546 18.6665 3.32423 18.6665 3.323C18.6665 3.32176 18.6665 3.32053 18.6665 3.3193C18.6665 3.31806 18.6665 3.31683 18.6665 3.3156C18.6665 3.31436 18.6665 3.31313 18.6665 3.3119C18.6665 3.31067 18.6665 3.30943 18.6665 3.3082C18.6665 3.30696 18.6665 3.30573 18.6665 3.3045C18.6665 3.30326 18.6665 3.30203 18.6665 3.3008C18.6665 3.29956 18.6665 3.29833 18.6665 3.2971C18.6665 3.29586 18.6665 3.29463 18.6665 3.29339C18.6665 3.29216 18.6665 3.29093 18.6665 3.28969C18.6665 3.28846 18.6665 3.28723 18.6665 3.28599C18.6665 3.28476 18.6665 3.28352 18.6665 3.28229C18.6665 3.28106 18.6665 3.27982 18.6665 3.27859C18.6665 3.27735 18.6665 3.27612 18.6665 3.27488C18.6665 3.27365 18.6665 3.27242 18.6665 3.27118C18.6665 3.26995 18.6665 3.26871 18.6665 3.26748C18.6665 3.26624 18.6665 3.26501 18.6665 3.26377C18.6665 3.26254 18.6665 3.2613 18.6665 3.26007C18.6665 3.25883 18.6665 3.2576 18.6665 3.25636C18.6665 3.25513 18.6665 3.25389 18.6665 3.25266C18.6665 3.25142 18.6665 3.25019 18.6665 3.24895C18.6665 3.24772 18.6665 3.24648 18.6665 3.24525C18.6665 3.24401 18.6665 3.24278 18.6665 3.24154C18.6665 3.24031 18.6665 3.23907 18.6665 3.23783C18.6665 3.2366 18.6665 3.23536 18.6665 3.23413C18.6665 3.23289 18.6665 3.23166 18.6665 3.23042C18.6665 3.22919 18.6665 3.22795 18.6665 3.22672C18.6665 3.22548 18.6665 3.22424 18.6665 3.22301C18.6665 3.22177 18.6665 3.22054 18.6665 3.2193C18.6665 3.21806 18.6665 3.21683 18.6665 3.21559C18.6665 3.21435 18.6665 3.21312 18.6665 3.21188C18.6665 3.21065 18.6665 3.20941 18.6665 3.20817C18.6665 3.20694 18.6665 3.2057 18.6665 3.20446C18.6665 3.20323 18.6665 3.20199 18.6665 3.20075C18.6665 3.19952 18.6665 3.19828 18.6665 3.19704C18.6665 3.19581 18.6665 3.19457 18.6665 3.19333C18.6665 3.1921 18.6665 3.19086 18.6665 3.18962C18.6665 3.18839 18.6665 3.18715 18.6665 3.18591C18.6665 3.18467 18.6665 3.18344 18.6665 3.1822C18.6665 3.18096 18.6665 3.17973 18.6665 3.17849C18.6665 3.17725 18.6665 3.17601 18.6665 3.17478C18.6665 3.17354 18.6665 3.1723 18.6665 3.17106C18.6665 3.16983 18.6665 3.16859 18.6665 3.16735C18.6665 3.16611 18.6665 3.16488 18.6665 3.16364C18.6665 3.1624 18.6665 3.16116 18.6665 3.15992C18.6665 3.15869 18.6665 3.15745 18.6665 3.15621C18.6665 3.15497 18.6665 3.15373 18.6665 3.1525C18.6665 3.15126 18.6665 3.15002 18.6665 3.14878C18.6665 3.14754 18.6665 3.14631 18.6665 3.14507C18.6665 3.14383 18.6665 3.14259 18.6665 3.14135C18.6665 3.14011 18.6665 3.13887 18.6665 3.13764C18.6665 3.1364 18.6665 3.13516 18.6665 3.13392C18.6665 3.13268 18.6665 3.13144 18.6665 3.1302C18.6665 3.12897 18.6665 3.12773 18.6665 3.12649C18.6665 3.12525 18.6665 3.12401 18.6665 3.12277C18.6665 3.12153 18.6665 3.12029 18.6665 3.11905C18.6665 3.11782 18.6665 3.11658 18.6665 3.11534C18.6665 3.1141 18.6665 3.11286 18.6665 3.11162C18.6665 3.11038 18.6665 3.10914 18.6665 3.1079C18.6665 3.10666 18.6665 3.10542 18.6665 3.10418C18.6665 3.10294 18.6665 3.1017 18.6665 3.10046C18.6665 3.09922 18.6665 3.09798 18.6665 3.09674C18.6665 3.0955 18.6665 3.09426 18.6665 3.09302C18.6665 3.09178 18.6665 3.09054 18.6665 3.0893C18.6665 3.08806 18.6665 3.08682 18.6665 3.08558C18.6665 3.08434 18.6665 3.0831 18.6665 3.08186C18.6665 3.08062 18.6665 3.07938 18.6665 3.07814C18.6665 3.0769 18.6665 3.07566 18.6665 3.07442C18.6665 3.07318 18.6665 3.07194 18.6665 3.0707C18.6665 3.06946 18.6665 3.06822 18.6665 3.06698H16.6665C16.6665 3.06822 16.6665 3.06946 16.6665 3.0707C16.6665 3.07194 16.6665 3.07318 16.6665 3.07442C16.6665 3.07566 16.6665 3.0769 16.6665 3.07814C16.6665 3.07938 16.6665 3.08062 16.6665 3.08186C16.6665 3.0831 16.6665 3.08434 16.6665 3.08558C16.6665 3.08682 16.6665 3.08806 16.6665 3.0893C16.6665 3.09054 16.6665 3.09178 16.6665 3.09302C16.6665 3.09426 16.6665 3.0955 16.6665 3.09674C16.6665 3.09798 16.6665 3.09922 16.6665 3.10046C16.6665 3.1017 16.6665 3.10294 16.6665 3.10418C16.6665 3.10542 16.6665 3.10666 16.6665 3.1079C16.6665 3.10914 16.6665 3.11038 16.6665 3.11162C16.6665 3.11286 16.6665 3.1141 16.6665 3.11534C16.6665 3.11658 16.6665 3.11782 16.6665 3.11905C16.6665 3.12029 16.6665 3.12153 16.6665 3.12277C16.6665 3.12401 16.6665 3.12525 16.6665 3.12649C16.6665 3.12773 16.6665 3.12897 16.6665 3.1302C16.6665 3.13144 16.6665 3.13268 16.6665 3.13392C16.6665 3.13516 16.6665 3.1364 16.6665 3.13764C16.6665 3.13887 16.6665 3.14011 16.6665 3.14135C16.6665 3.14259 16.6665 3.14383 16.6665 3.14507C16.6665 3.14631 16.6665 3.14754 16.6665 3.14878C16.6665 3.15002 16.6665 3.15126 16.6665 3.1525C16.6665 3.15373 16.6665 3.15497 16.6665 3.15621C16.6665 3.15745 16.6665 3.15869 16.6665 3.15992C16.6665 3.16116 16.6665 3.1624 16.6665 3.16364C16.6665 3.16488 16.6665 3.16611 16.6665 3.16735C16.6665 3.16859 16.6665 3.16983 16.6665 3.17106C16.6665 3.1723 16.6665 3.17354 16.6665 3.17478C16.6665 3.17601 16.6665 3.17725 16.6665 3.17849C16.6665 3.17973 16.6665 3.18096 16.6665 3.1822C16.6665 3.18344 16.6665 3.18467 16.6665 3.18591C16.6665 3.18715 16.6665 3.18839 16.6665 3.18962C16.6665 3.19086 16.6665 3.1921 16.6665 3.19333C16.6665 3.19457 16.6665 3.19581 16.6665 3.19704C16.6665 3.19828 16.6665 3.19952 16.6665 3.20075C16.6665 3.20199 16.6665 3.20323 16.6665 3.20446C16.6665 3.2057 16.6665 3.20694 16.6665 3.20817C16.6665 3.20941 16.6665 3.21065 16.6665 3.21188C16.6665 3.21312 16.6665 3.21435 16.6665 3.21559C16.6665 3.21683 16.6665 3.21806 16.6665 3.2193C16.6665 3.22054 16.6665 3.22177 16.6665 3.22301C16.6665 3.22424 16.6665 3.22548 16.6665 3.22672C16.6665 3.22795 16.6665 3.22919 16.6665 3.23042C16.6665 3.23166 16.6665 3.23289 16.6665 3.23413C16.6665 3.23536 16.6665 3.2366 16.6665 3.23783C16.6665 3.23907 16.6665 3.24031 16.6665 3.24154C16.6665 3.24278 16.6665 3.24401 16.6665 3.24525C16.6665 3.24648 16.6665 3.24772 16.6665 3.24895C16.6665 3.25019 16.6665 3.25142 16.6665 3.25266C16.6665 3.25389 16.6665 3.25513 16.6665 3.25636C16.6665 3.2576 16.6665 3.25883 16.6665 3.26007C16.6665 3.2613 16.6665 3.26254 16.6665 3.26377C16.6665 3.26501 16.6665 3.26624 16.6665 3.26748C16.6665 3.26871 16.6665 3.26995 16.6665 3.27118C16.6665 3.27242 16.6665 3.27365 16.6665 3.27488C16.6665 3.27612 16.6665 3.27735 16.6665 3.27859C16.6665 3.27982 16.6665 3.28106 16.6665 3.28229C16.6665 3.28352 16.6665 3.28476 16.6665 3.28599C16.6665 3.28723 16.6665 3.28846 16.6665 3.28969C16.6665 3.29093 16.6665 3.29216 16.6665 3.29339C16.6665 3.29463 16.6665 3.29586 16.6665 3.2971C16.6665 3.29833 16.6665 3.29956 16.6665 3.3008C16.6665 3.30203 16.6665 3.30326 16.6665 3.3045C16.6665 3.30573 16.6665 3.30696 16.6665 3.3082C16.6665 3.30943 16.6665 3.31067 16.6665 3.3119C16.6665 3.31313 16.6665 3.31436 16.6665 3.3156C16.6665 3.31683 16.6665 3.31806 16.6665 3.3193C16.6665 3.32053 16.6665 3.32176 16.6665 3.323C16.6665 3.32423 16.6665 3.32546 16.6665 3.32669C16.6665 3.32793 16.6665 3.32916 16.6665 3.33039C16.6665 3.33162 16.6665 3.33286 16.6665 3.33409C16.6665 3.33532 16.6665 3.33656 16.6665 3.33779C16.6665 3.33902 16.6665 3.34025 16.6665 3.34148C16.6665 3.34272 16.6665 3.34395 16.6665 3.34518C16.6665 3.34641 16.6665 3.34765 16.6665 3.34888C16.6665 3.35011 16.6665 3.35134 16.6665 3.35258C16.6665 3.35381 16.6665 3.35504 16.6665 3.35627C16.6665 3.3575 16.6665 3.35873 16.6665 3.35997C16.6665 3.3612 16.6665 3.36243 16.6665 3.36366C16.6665 3.36489 16.6665 3.36613 16.6665 3.36736C16.6665 3.36859 16.6665 3.36982 16.6665 3.37105C16.6665 3.37228 16.6665 3.37351 16.6665 3.37474C16.6665 3.37598 16.6665 3.37721 16.6665 3.37844C16.6665 3.37967 16.6665 3.3809 16.6665 3.38213C16.6665 3.38336 16.6665 3.38459 16.6665 3.38582C16.6665 3.38706 16.6665 3.38829 16.6665 3.38952C16.6665 3.39075 16.6665 3.39198 16.6665 3.39321C16.6665 3.39444 16.6665 3.39567 16.6665 3.3969C16.6665 3.39813 16.6665 3.39936 16.6665 3.40059C16.6665 3.40182 16.6665 3.40306 16.6665 3.40429C16.6665 3.40552 16.6665 3.40675 16.6665 3.40798C16.6665 3.40921 16.6665 3.41044 16.6665 3.41167C16.6665 3.4129 16.6665 3.41413 16.6665 3.41536C16.6665 3.41659 16.6665 3.41782 16.6665 3.41905C16.6665 3.42028 16.6665 3.42151 16.6665 3.42274C16.6665 3.42397 16.6665 3.4252 16.6665 3.42643C16.6665 3.42766 16.6665 3.42889 16.6665 3.43012C16.6665 3.43135 16.6665 3.43258 16.6665 3.43381C16.6665 3.43504 16.6665 3.43626 16.6665 3.43749C16.6665 3.43872 16.6665 3.43995 16.6665 3.44118C16.6665 3.44241 16.6665 3.44364 16.6665 3.44487C16.6665 3.4461 16.6665 3.44733 16.6665 3.44856C16.6665 3.44979 16.6665 3.45102 16.6665 3.45224C16.6665 3.45347 16.6665 3.4547 16.6665 3.45593C16.6665 3.45716 16.6665 3.45839 16.6665 3.45962C16.6665 3.46085 16.6665 3.46207 16.6665 3.4633C16.6665 3.46453 16.6665 3.46576 16.6665 3.46699C16.6665 3.46822 16.6665 3.46945 16.6665 3.47067C16.6665 3.4719 16.6665 3.47313 16.6665 3.47436C16.6665 3.47559 16.6665 3.47682 16.6665 3.47804C16.6665 3.47927 16.6665 3.4805 16.6665 3.48173C16.6665 3.48296 16.6665 3.48418 16.6665 3.48541C16.6665 3.48664 16.6665 3.48787 16.6665 3.4891C16.6665 3.49032 16.6665 3.49155 16.6665 3.49278C16.6665 3.49401 16.6665 3.49524 16.6665 3.49646C16.6665 3.49769 16.6665 3.49892 16.6665 3.50014C16.6665 3.50137 16.6665 3.5026 16.6665 3.50383C16.6665 3.50505 16.6665 3.50628 16.6665 3.50751C16.6665 3.50874 16.6665 3.50996 16.6665 3.51119C16.6665 3.51242 16.6665 3.51365 16.6665 3.51487C16.6665 3.5161 16.6665 3.51733 16.6665 3.51855C16.6665 3.51978 16.6665 3.52101 16.6665 3.52223C16.6665 3.52346 16.6665 3.52469 16.6665 3.52592C16.6665 3.52714 16.6665 3.52837 16.6665 3.52959C16.6665 3.53082 16.6665 3.53205 16.6665 3.53327C16.6665 3.5345 16.6665 3.53573 16.6665 3.53695C16.6665 3.53818 16.6665 3.53941 16.6665 3.54063C16.6665 3.54186 16.6665 3.54309 16.6665 3.54431C16.6665 3.54554 16.6665 3.54676 16.6665 3.54799C16.6665 3.54922 16.6665 3.55044 16.6665 3.55167C16.6665 3.55289 16.6665 3.55412 16.6665 3.55535C16.6665 3.55657 16.6665 3.5578 16.6665 3.55902C16.6665 3.56025 16.6665 3.56147 16.6665 3.5627C16.6665 3.56392 16.6665 3.56515 16.6665 3.56638C16.6665 3.5676 16.6665 3.56883 16.6665 3.57005C16.6665 3.57128 16.6665 3.5725 16.6665 3.57373C16.6665 3.57495 16.6665 3.57618 16.6665 3.5774C16.6665 3.57863 16.6665 3.57985 16.6665 3.58108C16.6665 3.5823 16.6665 3.58353 16.6665 3.58475C16.6665 3.58598 16.6665 3.5872 16.6665 3.58843C16.6665 3.58965 16.6665 3.59088 16.6665 3.5921C16.6665 3.59333 16.6665 3.59455 16.6665 3.59578C16.6665 3.597 16.6665 3.59822 16.6665 3.59945C16.6665 3.60067 16.6665 3.6019 16.6665 3.60312C16.6665 3.60435 16.6665 3.60557 16.6665 3.6068C16.6665 3.60802 16.6665 3.60924 16.6665 3.61047C16.6665 3.61169 16.6665 3.61292 16.6665 3.61414C16.6665 3.61536 16.6665 3.61659 16.6665 3.61781C16.6665 3.61904 16.6665 3.62026 16.6665 3.62148C16.6665 3.62271 16.6665 3.62393 16.6665 3.62515C16.6665 3.62638 16.6665 3.6276 16.6665 3.62883C16.6665 3.63005 16.6665 3.63127 16.6665 3.6325C16.6665 3.63372 16.6665 3.63494 16.6665 3.63617C16.6665 3.63739 16.6665 3.63861 16.6665 3.63984C16.6665 3.64106 16.6665 3.64228 16.6665 3.64351C16.6665 3.64473 16.6665 3.64595 16.6665 3.64717C16.6665 3.6484 16.6665 3.64962 16.6665 3.65084C16.6665 3.65207 16.6665 3.65329 16.6665 3.65451C16.6665 3.65574 16.6665 3.65696 16.6665 3.65818C16.6665 3.6594 16.6665 3.66063 16.6665 3.66185C16.6665 3.66307 16.6665 3.66429 16.6665 3.66552C16.6665 3.66674 16.6665 3.66796 16.6665 3.66918C16.6665 3.6704 16.6665 3.67163 16.6665 3.67285C16.6665 3.67407 16.6665 3.67529 16.6665 3.67652C16.6665 3.67774 16.6665 3.67896 16.6665 3.68018C16.6665 3.6814 16.6665 3.68263 16.6665 3.68385C16.6665 3.68507 16.6665 3.68629 16.6665 3.68751C16.6665 3.68874 16.6665 3.68996 16.6665 3.69118C16.6665 3.6924 16.6665 3.69362 16.6665 3.69484C16.6665 3.69606 16.6665 3.69729 16.6665 3.69851C16.6665 3.69973 16.6665 3.70095 16.6665 3.70217C16.6665 3.70339 16.6665 3.70461 16.6665 3.70584C16.6665 3.70706 16.6665 3.70828 16.6665 3.7095C16.6665 3.71072 16.6665 3.71194 16.6665 3.71316C16.6665 3.71438 16.6665 3.7156 16.6665 3.71683C16.6665 3.71805 16.6665 3.71927 16.6665 3.72049C16.6665 3.72171 16.6665 3.72293 16.6665 3.72415C16.6665 3.72537 16.6665 3.72659 16.6665 3.72781C16.6665 3.72903 16.6665 3.73025 16.6665 3.73147C16.6665 3.73269 16.6665 3.73391 16.6665 3.73513C16.6665 3.73635 16.6665 3.73757 16.6665 3.73879C16.6665 3.74001 16.6665 3.74123 16.6665 3.74245C16.6665 3.74367 16.6665 3.74489 16.6665 3.74611C16.6665 3.74733 16.6665 3.74855 16.6665 3.74977C16.6665 3.75099 16.6665 3.75221 16.6665 3.75343C16.6665 3.75465 16.6665 3.75587 16.6665 3.75709C16.6665 3.75831 16.6665 3.75953 16.6665 3.76075C16.6665 3.76197 16.6665 3.76319 16.6665 3.76441C16.6665 3.76563 16.6665 3.76685 16.6665 3.76807C16.6665 3.76929 16.6665 3.77051 16.6665 3.77172C16.6665 3.77294 16.6665 3.77416 16.6665 3.77538C16.6665 3.7766 16.6665 3.77782 16.6665 3.77904C16.6665 3.78026 16.6665 3.78148 16.6665 3.7827C16.6665 3.78391 16.6665 3.78513 16.6665 3.78635C16.6665 3.78757 16.6665 3.78879 16.6665 3.79001C16.6665 3.79123 16.6665 3.79245 16.6665 3.79366C16.6665 3.79488 16.6665 3.7961 16.6665 3.79732C16.6665 3.79854 16.6665 3.79976 16.6665 3.80097C16.6665 3.80219 16.6665 3.80341 16.6665 3.80463C16.6665 3.80585 16.6665 3.80706 16.6665 3.80828C16.6665 3.8095 16.6665 3.81072 16.6665 3.81194C16.6665 3.81315 16.6665 3.81437 16.6665 3.81559C16.6665 3.81681 16.6665 3.81803 16.6665 3.81924C16.6665 3.82046 16.6665 3.82168 16.6665 3.8229C16.6665 3.82411 16.6665 3.82533 16.6665 3.82655C16.6665 3.82777 16.6665 3.82898 16.6665 3.8302C16.6665 3.83142 16.6665 3.83264 16.6665 3.83385C16.6665 3.83507 16.6665 3.83629 16.6665 3.83751C16.6665 3.83872 16.6665 3.83994 16.6665 3.84116C16.6665 3.84237 16.6665 3.84359 16.6665 3.84481C16.6665 3.84602 16.6665 3.84724 16.6665 3.84846C16.6665 3.84967 16.6665 3.85089 16.6665 3.85211C16.6665 3.85332 16.6665 3.85454 16.6665 3.85576C16.6665 3.85697 16.6665 3.85819 16.6665 3.85941C16.6665 3.86062 16.6665 3.86184 16.6665 3.86306C16.6665 3.86427 16.6665 3.86549 16.6665 3.8667C16.6665 3.86792 16.6665 3.86914 16.6665 3.87035C16.6665 3.87157 16.6665 3.87279 16.6665 3.874C16.6665 3.87522 16.6665 3.87643 16.6665 3.87765C16.6665 3.87887 16.6665 3.88008 16.6665 3.8813C16.6665 3.88251 16.6665 3.88373 16.6665 3.88494C16.6665 3.88616 16.6665 3.88737 16.6665 3.88859C16.6665 3.88981 16.6665 3.89102 16.6665 3.89224C16.6665 3.89345 16.6665 3.89467 16.6665 3.89588C16.6665 3.8971 16.6665 3.89832 16.6665 3.89953C16.6665 3.90075 16.6665 3.90196 16.6665 3.90318C16.6665 3.90439 16.6665 3.90561 16.6665 3.90682C16.6665 3.90804 16.6665 3.90925 16.6665 3.91047C16.6665 3.91168 16.6665 3.9129 16.6665 3.91411C16.6665 3.91533 16.6665 3.91654 16.6665 3.91775C16.6665 3.91897 16.6665 3.92018 16.6665 3.9214C16.6665 3.92261 16.6665 3.92383 16.6665 3.92504C16.6665 3.92626 16.6665 3.92747 16.6665 3.92868C16.6665 3.9299 16.6665 3.93111 16.6665 3.93233C16.6665 3.93354 16.6665 3.93476 16.6665 3.93597C16.6665 3.93718 16.6665 3.9384 16.6665 3.93961C16.6665 3.94082 16.6665 3.94204 16.6665 3.94325C16.6665 3.94447 16.6665 3.94568 16.6665 3.94689C16.6665 3.94811 16.6665 3.94932 16.6665 3.95053C16.6665 3.95175 16.6665 3.95296 16.6665 3.95418C16.6665 3.95539 16.6665 3.9566 16.6665 3.95782C16.6665 3.95903 16.6665 3.96024 16.6665 3.96146C16.6665 3.96267 16.6665 3.96388 16.6665 3.9651C16.6665 3.96631 16.6665 3.96752 16.6665 3.96874C16.6665 3.96995 16.6665 3.97116 16.6665 3.97238C16.6665 3.97359 16.6665 3.9748 16.6665 3.97601C16.6665 3.97723 16.6665 3.97844 16.6665 3.97965C16.6665 3.98087 16.6665 3.98208 16.6665 3.98329C16.6665 3.9845 16.6665 3.98572 16.6665 3.98693C16.6665 3.98814 16.6665 3.98935 16.6665 3.99056C16.6665 3.99178 16.6665 3.99299 16.6665 3.9942C16.6665 3.99541 16.6665 3.99663 16.6665 3.99784C16.6665 3.99905 16.6665 4.00026 16.6665 4.00148C16.6665 4.00269 16.6665 4.0039 16.6665 4.00511C16.6665 4.00632 16.6665 4.00754 16.6665 4.00875C16.6665 4.00996 16.6665 4.01117 16.6665 4.01238C16.6665 4.01359 16.6665 4.0148 16.6665 4.01602C16.6665 4.01723 16.6665 4.01844 16.6665 4.01965C16.6665 4.02086 16.6665 4.02208 16.6665 4.02329C16.6665 4.0245 16.6665 4.02571 16.6665 4.02692C16.6665 4.02813 16.6665 4.02934 16.6665 4.03055C16.6665 4.03176 16.6665 4.03298 16.6665 4.03419C16.6665 4.0354 16.6665 4.03661 16.6665 4.03782C16.6665 4.03903 16.6665 4.04024 16.6665 4.04145C16.6665 4.04266 16.6665 4.04387 16.6665 4.04509C16.6665 4.0463 16.6665 4.04751 16.6665 4.04872C16.6665 4.04993 16.6665 4.05114 16.6665 4.05235C16.6665 4.05356 16.6665 4.05477 16.6665 4.05598C16.6665 4.05719 16.6665 4.0584 16.6665 4.05961C16.6665 4.06082 16.6665 4.06203 16.6665 4.06324C16.6665 4.06445 16.6665 4.06566 16.6665 4.06687C16.6665 4.06808 16.6665 4.06929 16.6665 4.0705C16.6665 4.07171 16.6665 4.07292 16.6665 4.07413C16.6665 4.07534 16.6665 4.07655 16.6665 4.07776C16.6665 4.07897 16.6665 4.08018 16.6665 4.08139C16.6665 4.0826 16.6665 4.08381 16.6665 4.08502C16.6665 4.08623 16.6665 4.08744 16.6665 4.08865C16.6665 4.08986 16.6665 4.09106 16.6665 4.09227C16.6665 4.09348 16.6665 4.09469 16.6665 4.0959C16.6665 4.09711 16.6665 4.09832 16.6665 4.09953C16.6665 4.10074 16.6665 4.10195 16.6665 4.10316C16.6665 4.10436 16.6665 4.10557 16.6665 4.10678C16.6665 4.10799 16.6665 4.1092 16.6665 4.11041C16.6665 4.11162 16.6665 4.11283 16.6665 4.11403C16.6665 4.11524 16.6665 4.11645 16.6665 4.11766C16.6665 4.11887 16.6665 4.12008 16.6665 4.12128C16.6665 4.12249 16.6665 4.1237 16.6665 4.12491C16.6665 4.12612 16.6665 4.12733 16.6665 4.12853C16.6665 4.12974 16.6665 4.13095 16.6665 4.13216C16.6665 4.13337 16.6665 4.13457 16.6665 4.13578C16.6665 4.13699 16.6665 4.1382 16.6665 4.13941C16.6665 4.14061 16.6665 4.14182 16.6665 4.14303C16.6665 4.14424 16.6665 4.14544 16.6665 4.14665C16.6665 4.14786 16.6665 4.14907 16.6665 4.15027C16.6665 4.15148 16.6665 4.15269 16.6665 4.1539C16.6665 4.1551 16.6665 4.15631 16.6665 4.15752C16.6665 4.15873 16.6665 4.15993 16.6665 4.16114C16.6665 4.16235 16.6665 4.16356 16.6665 4.16476C16.6665 4.16597 16.6665 4.16718 16.6665 4.16838C16.6665 4.16959 16.6665 4.1708 16.6665 4.172C16.6665 4.17321 16.6665 4.17442 16.6665 4.17562C16.6665 4.17683 16.6665 4.17804 16.6665 4.17924C16.6665 4.18045 16.6665 4.18166 16.6665 4.18286C16.6665 4.18407 16.6665 4.18527 16.6665 4.18648C16.6665 4.18769 16.6665 4.18889 16.6665 4.1901C16.6665 4.19131 16.6665 4.19251 16.6665 4.19372C16.6665 4.19492 16.6665 4.19613 16.6665 4.19734C16.6665 4.19854 16.6665 4.19975 16.6665 4.20095C16.6665 4.20216 16.6665 4.20337 16.6665 4.20457C16.6665 4.20578 16.6665 4.20698 16.6665 4.20819C16.6665 4.20939 16.6665 4.2106 16.6665 4.21181C16.6665 4.21301 16.6665 4.21422 16.6665 4.21542C16.6665 4.21663 16.6665 4.21783 16.6665 4.21904C16.6665 4.22024 16.6665 4.22145 16.6665 4.22265C16.6665 4.22386 16.6665 4.22506 16.6665 4.22627C16.6665 4.22747 16.6665 4.22868 16.6665 4.22988C16.6665 4.23109 16.6665 4.23229 16.6665 4.2335C16.6665 4.2347 16.6665 4.23591 16.6665 4.23711C16.6665 4.23832 16.6665 4.23952 16.6665 4.24073C16.6665 4.24193 16.6665 4.24314 16.6665 4.24434C16.6665 4.24554 16.6665 4.24675 16.6665 4.24795C16.6665 4.24916 16.6665 4.25036 16.6665 4.25157C16.6665 4.25277 16.6665 4.25397 16.6665 4.25518C16.6665 4.25638 16.6665 4.25759 16.6665 4.25879C16.6665 4.26 16.6665 4.2612 16.6665 4.2624C16.6665 4.26361 16.6665 4.26481 16.6665 4.26602C16.6665 4.26722 16.6665 4.26842 16.6665 4.26963C16.6665 4.27083 16.6665 4.27203 16.6665 4.27324C16.6665 4.27444 16.6665 4.27564 16.6665 4.27685C16.6665 4.27805 16.6665 4.27925 16.6665 4.28046C16.6665 4.28166 16.6665 4.28287 16.6665 4.28407C16.6665 4.28527 16.6665 4.28648 16.6665 4.28768C16.6665 4.28888 16.6665 4.29008 16.6665 4.29129C16.6665 4.29249 16.6665 4.29369 16.6665 4.2949C16.6665 4.2961 16.6665 4.2973 16.6665 4.29851C16.6665 4.29971 16.6665 4.30091 16.6665 4.30211C16.6665 4.30332 16.6665 4.30452 16.6665 4.30572C16.6665 4.30692 16.6665 4.30813 16.6665 4.30933C16.6665 4.31053 16.6665 4.31174 16.6665 4.31294C16.6665 4.31414 16.6665 4.31534 16.6665 4.31654C16.6665 4.31775 16.6665 4.31895 16.6665 4.32015C16.6665 4.32135 16.6665 4.32255 16.6665 4.32376C16.6665 4.32496 16.6665 4.32616 16.6665 4.32736C16.6665 4.32856 16.6665 4.32977 16.6665 4.33097C16.6665 4.33217 16.6665 4.33337 16.6665 4.33457C16.6665 4.33578 16.6665 4.33698 16.6665 4.33818C16.6665 4.33938 16.6665 4.34058 16.6665 4.34178C16.6665 4.34298 16.6665 4.34418 16.6665 4.34539C16.6665 4.34659 16.6665 4.34779 16.6665 4.34899C16.6665 4.35019 16.6665 4.35139 16.6665 4.35259C16.6665 4.3538 16.6665 4.355 16.6665 4.3562C16.6665 4.3574 16.6665 4.3586 16.6665 4.3598C16.6665 4.361 16.6665 4.3622 16.6665 4.3634C16.6665 4.3646 16.6665 4.3658 16.6665 4.367C16.6665 4.36821 16.6665 4.36941 16.6665 4.37061C16.6665 4.37181 16.6665 4.37301 16.6665 4.37421C16.6665 4.37541 16.6665 4.37661 16.6665 4.37781C16.6665 4.37901 16.6665 4.38021 16.6665 4.38141C16.6665 4.38261 16.6665 4.38381 16.6665 4.38501C16.6665 4.38621 16.6665 4.38741 16.6665 4.38861C16.6665 4.38981 16.6665 4.39101 16.6665 4.39221C16.6665 4.39341 16.6665 4.39461 16.6665 4.39581C16.6665 4.39701 16.6665 4.39821 16.6665 4.39941C16.6665 4.40061 16.6665 4.40181 16.6665 4.40301C16.6665 4.40421 16.6665 4.40541 16.6665 4.40661C16.6665 4.40781 16.6665 4.40901 16.6665 4.41021C16.6665 4.4114 16.6665 4.4126 16.6665 4.4138C16.6665 4.415 16.6665 4.4162 16.6665 4.4174C16.6665 4.4186 16.6665 4.4198 16.6665 4.421C16.6665 4.4222 16.6665 4.4234 16.6665 4.42459C16.6665 4.42579 16.6665 4.42699 16.6665 4.42819C16.6665 4.42939 16.6665 4.43059 16.6665 4.43179C16.6665 4.43299 16.6665 4.43419 16.6665 4.43538C16.6665 4.43658 16.6665 4.43778 16.6665 4.43898C16.6665 4.44018 16.6665 4.44138 16.6665 4.44257C16.6665 4.44377 16.6665 4.44497 16.6665 4.44617C16.6665 4.44737 16.6665 4.44856 16.6665 4.44976C16.6665 4.45096 16.6665 4.45216 16.6665 4.45336C16.6665 4.45456 16.6665 4.45575 16.6665 4.45695C16.6665 4.45815 16.6665 4.45935 16.6665 4.46054C16.6665 4.46174 16.6665 4.46294 16.6665 4.46414C16.6665 4.46533 16.6665 4.46653 16.6665 4.46773C16.6665 4.46893 16.6665 4.47013 16.6665 4.47132C16.6665 4.47252 16.6665 4.47372 16.6665 4.47491C16.6665 4.47611 16.6665 4.47731 16.6665 4.47851C16.6665 4.4797 16.6665 4.4809 16.6665 4.4821C16.6665 4.48329 16.6665 4.48449 16.6665 4.48569C16.6665 4.48689 16.6665 4.48808 16.6665 4.48928C16.6665 4.49048 16.6665 4.49167 16.6665 4.49287C16.6665 4.49407 16.6665 4.49526 16.6665 4.49646C16.6665 4.49766 16.6665 4.49885 16.6665 4.50005C16.6665 4.50125 16.6665 4.50244 16.6665 4.50364C16.6665 4.50484 16.6665 4.50603 16.6665 4.50723C16.6665 4.50842 16.6665 4.50962 16.6665 4.51082C16.6665 4.51201 16.6665 4.51321 16.6665 4.5144C16.6665 4.5156 16.6665 4.5168 16.6665 4.51799C16.6665 4.51919 16.6665 4.52038 16.6665 4.52158C16.6665 4.52278 16.6665 4.52397 16.6665 4.52517C16.6665 4.52636 16.6665 4.52756 16.6665 4.52876C16.6665 4.52995 16.6665 4.53115 16.6665 4.53234C16.6665 4.53354 16.6665 4.53473 16.6665 4.53593C16.6665 4.53712 16.6665 4.53832 16.6665 4.53951C16.6665 4.54071 16.6665 4.5419 16.6665 4.5431C16.6665 4.54429 16.6665 4.54549 16.6665 4.54668C16.6665 4.54788 16.6665 4.54907 16.6665 4.55027C16.6665 4.55146 16.6665 4.55266 16.6665 4.55385C16.6665 4.55505 16.6665 4.55624 16.6665 4.55744C16.6665 4.55863 16.6665 4.55983 16.6665 4.56102C16.6665 4.56222 16.6665 4.56341 16.6665 4.56461C16.6665 4.5658 16.6665 4.56699 16.6665 4.56819C16.6665 4.56938 16.6665 4.57058 16.6665 4.57177C16.6665 4.57297 16.6665 4.57416 16.6665 4.57535C16.6665 4.57655 16.6665 4.57774 16.6665 4.57894C16.6665 4.58013 16.6665 4.58133 16.6665 4.58252C16.6665 4.58371 16.6665 4.58491 16.6665 4.5861C16.6665 4.58729 16.6665 4.58849 16.6665 4.58968C16.6665 4.59088 16.6665 4.59207 16.6665 4.59326C16.6665 4.59446 16.6665 4.59565 16.6665 4.59684C16.6665 4.59804 16.6665 4.59923 16.6665 4.60042C16.6665 4.60162 16.6665 4.60281 16.6665 4.604C16.6665 4.6052 16.6665 4.60639 16.6665 4.60758C16.6665 4.60878 16.6665 4.60997 16.6665 4.61116C16.6665 4.61235 16.6665 4.61355 16.6665 4.61474C16.6665 4.61593 16.6665 4.61713 16.6665 4.61832C16.6665 4.61951 16.6665 4.6207 16.6665 4.6219C16.6665 4.62309 16.6665 4.62428 16.6665 4.62547C16.6665 4.62667 16.6665 4.62786 16.6665 4.62905C16.6665 4.63025 16.6665 4.63144 16.6665 4.63263C16.6665 4.63382 16.6665 4.63501 16.6665 4.63621C16.6665 4.6374 16.6665 4.63859 16.6665 4.63978C16.6665 4.64098 16.6665 4.64217 16.6665 4.64336C16.6665 4.64455 16.6665 4.64574 16.6665 4.64693C16.6665 4.64813 16.6665 4.64932 16.6665 4.65051C16.6665 4.6517 16.6665 4.65289 16.6665 4.65409C16.6665 4.65528 16.6665 4.65647 16.6665 4.65766C16.6665 4.65885 16.6665 4.66004 16.6665 4.66124C16.6665 4.66243 16.6665 4.66362 16.6665 4.66481C16.6665 4.666 16.6665 4.66719 16.6665 4.66838C16.6665 4.66957 16.6665 4.67076 16.6665 4.67196C16.6665 4.67315 16.6665 4.67434 16.6665 4.67553C16.6665 4.67672 16.6665 4.67791 16.6665 4.6791C16.6665 4.68029 16.6665 4.68148 16.6665 4.68267C16.6665 4.68387 16.6665 4.68506 16.6665 4.68625C16.6665 4.68744 16.6665 4.68863 16.6665 4.68982C16.6665 4.69101 16.6665 4.6922 16.6665 4.69339C16.6665 4.69458 16.6665 4.69577 16.6665 4.69696C16.6665 4.69815 16.6665 4.69934 16.6665 4.70053C16.6665 4.70172 16.6665 4.70291 16.6665 4.7041C16.6665 4.70529 16.6665 4.70648 16.6665 4.70767C16.6665 4.70886 16.6665 4.71005 16.6665 4.71124C16.6665 4.71243 16.6665 4.71362 16.6665 4.71481C16.6665 4.716 16.6665 4.71719 16.6665 4.71838C16.6665 4.71957 16.6665 4.72076 16.6665 4.72195C16.6665 4.72314 16.6665 4.72433 16.6665 4.72552C16.6665 4.72671 16.6665 4.7279 16.6665 4.72909C16.6665 4.73028 16.6665 4.73146 16.6665 4.73265C16.6665 4.73384 16.6665 4.73503 16.6665 4.73622C16.6665 4.73741 16.6665 4.7386 16.6665 4.73979C16.6665 4.74098 16.6665 4.74217 16.6665 4.74335C16.6665 4.74454 16.6665 4.74573 16.6665 4.74692C16.6665 4.74811 16.6665 4.7493 16.6665 4.75049C16.6665 4.75168 16.6665 4.75286 16.6665 4.75405C16.6665 4.75524 16.6665 4.75643 16.6665 4.75762C16.6665 4.75881 16.6665 4.75999 16.6665 4.76118C16.6665 4.76237 16.6665 4.76356 16.6665 4.76475C16.6665 4.76594 16.6665 4.76712 16.6665 4.76831C16.6665 4.7695 16.6665 4.77069 16.6665 4.77188C16.6665 4.77306 16.6665 4.77425 16.6665 4.77544C16.6665 4.77663 16.6665 4.77781 16.6665 4.779C16.6665 4.78019 16.6665 4.78138 16.6665 4.78257C16.6665 4.78375 16.6665 4.78494 16.6665 4.78613C16.6665 4.78732 16.6665 4.7885 16.6665 4.78969C16.6665 4.79088 16.6665 4.79207 16.6665 4.79325C16.6665 4.79444 16.6665 4.79563 16.6665 4.79681C16.6665 4.798 16.6665 4.79919 16.6665 4.80038C16.6665 4.80156 16.6665 4.80275 16.6665 4.80394C16.6665 4.80512 16.6665 4.80631 16.6665 4.8075C16.6665 4.80868 16.6665 4.80987 16.6665 4.81106C16.6665 4.81224 16.6665 4.81343 16.6665 4.81462C16.6665 4.8158 16.6665 4.81699 16.6665 4.81818C16.6665 4.81936 16.6665 4.82055 16.6665 4.82174C16.6665 4.82292 16.6665 4.82411 16.6665 4.8253C16.6665 4.82648 16.6665 4.82767 16.6665 4.82885C16.6665 4.83004 16.6665 4.83123 16.6665 4.83241C16.6665 4.8336 16.6665 4.83478 16.6665 4.83597C16.6665 4.83716 16.6665 4.83834 16.6665 4.83953C16.6665 4.84071 16.6665 4.8419 16.6665 4.84308C16.6665 4.84427 16.6665 4.84546 16.6665 4.84664C16.6665 4.84783 16.6665 4.84901 16.6665 4.8502C16.6665 4.85138 16.6665 4.85257 16.6665 4.85375C16.6665 4.85494 16.6665 4.85612 16.6665 4.85731C16.6665 4.8585 16.6665 4.85968 16.6665 4.86087C16.6665 4.86205 16.6665 4.86324 16.6665 4.86442C16.6665 4.86561 16.6665 4.86679 16.6665 4.86798C16.6665 4.86916 16.6665 4.87035 16.6665 4.87153C16.6665 4.87271 16.6665 4.8739 16.6665 4.87509C16.6665 4.87627 16.6665 4.87745 16.6665 4.87864C16.6665 4.87982 16.6665 4.88101 16.6665 4.88219C16.6665 4.88338 16.6665 4.88456 16.6665 4.88575C16.6665 4.88693 16.6665 4.88811 16.6665 4.8893C16.6665 4.89048 16.6665 4.89167 16.6665 4.89285C16.6665 4.89404 16.6665 4.89522 16.6665 4.8964C16.6665 4.89759 16.6665 4.89877 16.6665 4.89995C16.6665 4.90114 16.6665 4.90232 16.6665 4.90351C16.6665 4.90469 16.6665 4.90587 16.6665 4.90706C16.6665 4.90824 16.6665 4.90942 16.6665 4.91061C16.6665 4.91179 16.6665 4.91298 16.6665 4.91416C16.6665 4.91534 16.6665 4.91652 16.6665 4.91771C16.6665 4.91889 16.6665 4.92007 16.6665 4.92126C16.6665 4.92244 16.6665 4.92362 16.6665 4.92481C16.6665 4.92599 16.6665 4.92717 16.6665 4.92836H18.6665ZM18.6665 3.06698C18.6665 2.78243 18.7385 2.55975 18.8701 2.36621L17.2163 1.24159C16.8456 1.78669 16.6665 2.40606 16.6665 3.06698H18.6665ZM18.8654 2.37311C18.8952 2.33009 18.9682 2.22776 19.3284 2.22776V0.227757C18.5068 0.227757 17.723 0.509517 17.221 1.23469L18.8654 2.37311ZM19.3284 2.22776C19.7141 2.22776 19.7886 2.33697 19.8136 2.37311L21.458 1.23469C20.9512 0.502645 20.1541 0.227757 19.3284 0.227757V2.22776ZM19.8397 2.40898C19.9854 2.60075 20.0569 2.80829 20.0569 3.06698H22.0569C22.0569 2.3802 21.8476 1.74569 21.432 1.19882L19.8397 2.40898ZM20.0569 3.06698C20.0569 3.68673 20.0424 4.29092 20.0137 4.87963L22.0113 4.97708C22.0417 4.35442 22.0569 3.7177 22.0569 3.06698H20.0569ZM20.0128 4.90337C19.9967 5.54852 20.0425 6.14063 20.1799 6.65084L22.1111 6.1309C22.0417 5.87292 21.9988 5.49002 22.0122 4.95335L20.0128 4.90337ZM20.1931 6.69564C20.303 7.03925 20.5064 7.37696 20.8468 7.62009C21.1846 7.86141 21.5669 7.94485 21.9211 7.94485V5.94485C21.8764 5.94485 21.9299 5.93596 22.0093 5.99262C22.0459 6.01877 22.0717 6.04788 22.0874 6.07093C22.102 6.09241 22.1027 6.10106 22.0979 6.08609L20.1931 6.69564ZM21.9211 7.94485C22.5202 7.94485 23.1101 7.72427 23.5082 7.18221C23.864 6.69777 23.9626 6.09231 23.9626 5.52666H21.9626C21.9626 5.70507 21.9459 5.82882 21.9261 5.90935C21.9066 5.98909 21.8886 6.00873 21.8962 5.99839C21.9081 5.98215 21.9334 5.95923 21.9634 5.94563C21.9878 5.93457 21.982 5.94485 21.9211 5.94485V7.94485ZM23.9626 5.52666C23.9626 5.09958 23.8776 4.66619 23.734 4.23542L21.8366 4.86788C21.9294 5.1462 21.9626 5.36282 21.9626 5.52666H23.9626ZM23.7482 4.28202C23.6406 3.89746 23.525 3.51998 23.4016 3.14962L21.5042 3.78207C21.6171 4.12081 21.7232 4.4672 21.8223 4.82128L23.7482 4.28202ZM23.4053 3.16107C23.3076 2.85556 23.2756 2.63704 23.2756 2.49084H21.2756C21.2756 2.906 21.3619 3.33748 21.5005 3.77062L23.4053 3.16107ZM23.2756 2.49084C23.2756 1.97072 23.3882 1.76688 23.4412 1.7035C23.4658 1.67415 23.5447 1.58514 23.8711 1.58514V-0.414862C23.1338 -0.414862 22.415 -0.186258 21.9077 0.419626C21.429 0.991476 21.2756 1.74049 21.2756 2.49084H23.2756ZM23.8711 1.58514C24.1015 1.58514 24.2487 1.65115 24.3772 1.77384L25.7582 0.327127C25.2367 -0.170641 24.5862 -0.414862 23.8711 -0.414862V1.58514ZM24.3934 1.78897C24.6001 1.97769 24.7856 2.2452 24.9314 2.62638L26.7995 1.91211C26.5611 1.28873 26.2148 0.743734 25.742 0.311997L24.3934 1.78897ZM24.9407 2.64999C25.1152 3.07369 25.2428 3.53558 25.3202 4.03893L27.297 3.73481C27.1971 3.08588 27.0293 2.46935 26.7901 1.88849L24.9407 2.64999ZM25.3243 4.06354C25.4183 4.58713 25.4637 5.08181 25.4637 5.54882H27.4637C27.4637 4.95218 27.4057 4.3389 27.2929 3.71021L25.3243 4.06354ZM25.4637 5.54882C25.4637 7.03539 25.1166 8.1132 24.5215 8.88004L26.1014 10.1063C27.0426 8.89357 27.4637 7.34182 27.4637 5.54882H25.4637ZM24.5202 8.88172C23.9703 9.59326 23.2383 9.95568 22.2091 9.95568V11.9557C23.8096 11.9557 25.1457 11.3431 26.1027 10.1046L24.5202 8.88172ZM22.2091 9.95568C21.7465 9.95568 21.3386 9.86968 20.973 9.70837L20.1657 11.5382C20.8046 11.8201 21.49 11.9557 22.2091 11.9557V9.95568ZM20.9951 9.71847C20.6009 9.53293 20.3028 9.30826 20.0791 9.05413L18.5777 10.3754C19.0041 10.8599 19.5333 11.2409 20.1436 11.5281L20.9951 9.71847ZM18.5777 9.05413C18.3441 9.31958 18.0409 9.55597 17.6517 9.75648L18.5676 11.5344C19.1534 11.2327 19.6627 10.8486 20.0791 10.3754L18.5777 9.05413ZM17.6517 9.75648C17.3202 9.92728 16.9332 10.0222 16.4699 10.0222V12.0222C17.218 12.0222 17.9242 11.8659 18.5676 11.5344L17.6517 9.75648ZM34.7423 10.5125L33.9214 11.0836L33.9357 11.1041L33.951 11.1239L34.7423 10.5125ZM34.3213 9.24942L33.3249 9.33482L33.3251 9.33731L34.3213 9.24942ZM33.9224 5.81473L33.012 6.22856L33.0169 6.23916L33.9224 5.81473ZM31.64 5.81473L32.5345 6.26197L32.5398 6.251L31.64 5.81473ZM31.219 9.22726L30.2228 9.13936L30.2215 9.15393L30.2207 9.16854L31.219 9.22726ZM30.8201 10.4903L31.6288 11.0785L31.635 11.07L31.641 11.0614L30.8201 10.4903ZM28.3826 10.4682L27.628 11.1244L27.6359 11.1335L27.6441 11.1424L28.3826 10.4682ZM27.6956 9.13862L28.6542 8.85365L27.6956 9.13862ZM27.3411 7.36588L26.3454 7.4585L26.3465 7.46995L26.3478 7.48138L27.3411 7.36588ZM27.3411 3.7096L26.3456 3.61479L27.3411 3.7096ZM27.6513 1.98117L26.695 1.68896L26.6912 1.7012L26.6878 1.71353L27.6513 1.98117ZM28.3383 0.695934L27.5983 0.0232611V0.023262L28.3383 0.695934ZM31.0638 1.36071L30.0982 1.62069L30.5694 3.37069L31.7987 2.03899L31.0638 1.36071ZM31.9059 0.828891L32.2955 1.74986L32.3038 1.74636L32.312 1.7427L31.9059 0.828891ZM37.623 3.82039L36.6702 4.12417L36.6729 4.13251L36.6757 4.1408L37.623 3.82039ZM38.1105 7.32156L37.1105 7.31045V7.32156H38.1105ZM37.9111 9.18294L36.938 8.95247L36.9357 8.96202L36.9337 8.97161L37.9111 9.18294ZM37.2684 10.5125L36.53 9.83822L36.5285 9.83982L37.2684 10.5125ZM36.0054 10C35.7969 10 35.6727 9.97075 35.6065 9.9452C35.549 9.92301 35.5366 9.90497 35.5336 9.90105L33.951 11.1239C34.4642 11.7881 35.2472 12 36.0054 12V10ZM35.5632 9.94143C35.4459 9.77286 35.3497 9.52794 35.3174 9.16152L33.3251 9.33731C33.3814 9.97545 33.5659 10.5726 33.9214 11.0836L35.5632 9.94143ZM35.3176 9.16402C35.2757 8.67526 35.2548 8.18671 35.2548 7.69827H33.2548C33.2548 8.24393 33.2782 8.78947 33.3249 9.33482L35.3176 9.16402ZM35.2548 7.69827C35.2548 6.83544 35.1349 6.04538 34.8279 5.3903L33.0169 6.23916C33.153 6.52954 33.2548 6.99517 33.2548 7.69827H35.2548ZM34.8328 5.40093C34.6539 5.00733 34.3799 4.65947 33.9911 4.41739C33.6054 4.17723 33.1747 4.08347 32.748 4.08347V6.08347C32.8825 6.08347 32.9283 6.11159 32.934 6.11518C32.9367 6.11686 32.9693 6.13462 33.012 6.22853L34.8328 5.40093ZM32.748 4.08347C32.3282 4.08347 31.9129 4.18782 31.5434 4.43168C31.1784 4.67258 30.9192 5.00916 30.7402 5.37845L32.5398 6.251C32.5971 6.1328 32.6408 6.10374 32.6451 6.10089C32.6489 6.09841 32.6542 6.09539 32.6655 6.09222C32.6777 6.0888 32.7035 6.08347 32.748 6.08347V4.08347ZM30.7456 5.36752C30.4145 6.02973 30.2854 6.82881 30.2854 7.69827H32.2854C32.2854 7.0018 32.3928 6.54519 32.5344 6.26194L30.7456 5.36752ZM30.2854 7.69827C30.2854 8.18672 30.2645 8.66704 30.2228 9.13936L32.2151 9.31515C32.2621 8.78292 32.2854 8.24392 32.2854 7.69827H30.2854ZM30.2207 9.16854C30.1996 9.52668 30.1098 9.76032 29.9992 9.91927L31.641 11.0614C32.0032 10.5408 32.1792 9.93238 32.2172 9.28598L30.2207 9.16854ZM30.0114 9.90216C30.023 9.88611 30.0254 9.89875 29.9669 9.92097C29.8983 9.94699 29.7641 9.97784 29.5349 9.97784V11.9778C30.296 11.9778 31.1192 11.7793 31.6288 11.0785L30.0114 9.90216ZM29.5349 9.97784C29.3594 9.97784 29.2428 9.92728 29.1211 9.79391L27.6441 11.1424C28.1428 11.6886 28.7944 11.9778 29.5349 11.9778V9.97784ZM29.1372 9.812C28.9569 9.60465 28.7865 9.29863 28.6542 8.85365L26.7371 9.42359C26.9298 10.0718 27.2174 10.6521 27.628 11.1244L29.1372 9.812ZM28.6542 8.85365C28.51 8.36863 28.4024 7.83502 28.3344 7.25038L26.3478 7.48138C26.4275 8.1672 26.5563 8.81542 26.7371 9.42359L28.6542 8.85365ZM28.3368 7.27325C28.2803 6.66641 28.2525 6.08432 28.2525 5.52666H26.2525C26.2525 6.15082 26.2837 6.79489 26.3454 7.4585L28.3368 7.27325ZM28.2525 5.52666C28.2525 4.96907 28.2803 4.39506 28.3366 3.80441L26.3456 3.61479C26.2837 4.26506 26.2525 4.90242 26.2525 5.52666H28.2525ZM28.3366 3.80441C28.3908 3.23503 28.4847 2.71738 28.6148 2.24882L26.6878 1.71353C26.5225 2.30861 26.4095 2.94324 26.3456 3.61479L28.3366 3.80441ZM28.6077 2.27339C28.7381 1.84639 28.9049 1.55927 29.0782 1.36861L27.5983 0.023262C27.1807 0.482601 26.8895 1.05231 26.695 1.68896L28.6077 2.27339ZM29.0782 1.36861C29.1685 1.26929 29.2754 1.20843 29.4905 1.20843V-0.791569C28.7602 -0.791569 28.0989 -0.527423 27.5983 0.0232611L29.0782 1.36861ZM29.4905 1.20843C29.7619 1.20843 29.8783 1.26938 29.9245 1.30327C29.965 1.33294 30.0403 1.40552 30.0982 1.62069L32.0295 1.10074C31.8806 0.547721 31.5902 0.0441608 31.1063 -0.310265C30.6281 -0.660473 30.0613 -0.791569 29.4905 -0.791569V1.20843ZM31.7987 2.03899C31.8389 1.99537 31.9732 1.88624 32.2955 1.74986L31.5163 -0.0920763C31.0704 0.0965414 30.6433 0.341962 30.329 0.682432L31.7987 2.03899ZM32.312 1.7427C32.5652 1.6302 32.8743 1.56298 33.2576 1.56298V-0.43702C32.6364 -0.43702 32.0444 -0.326965 31.4998 -0.0849209L32.312 1.7427ZM33.2576 1.56298C34.2223 1.56298 34.9177 1.80434 35.4269 2.20962L36.6724 0.644767C35.7339 -0.102238 34.568 -0.43702 33.2576 -0.43702V1.56298ZM35.4269 2.20962C35.9727 2.64398 36.3958 3.26324 36.6702 4.12417L38.5757 3.51662C38.2002 2.3389 37.5744 1.36268 36.6724 0.644767L35.4269 2.20962ZM36.6757 4.1408C36.9715 5.01542 37.1244 6.06619 37.1106 7.31045L39.1104 7.33267C39.1262 5.91782 38.954 4.63447 38.5703 3.49999L36.6757 4.1408ZM37.1105 7.32156C37.1105 7.93684 37.0502 8.47858 36.938 8.95247L38.8841 9.41341C39.0378 8.76456 39.1105 8.06538 39.1105 7.32156H37.1105ZM36.9337 8.97161C36.8448 9.38261 36.6978 9.65439 36.53 9.83823L38.0069 11.1868C38.4595 10.691 38.741 10.0765 38.8885 9.39427L36.9337 8.97161ZM36.5285 9.83982C36.4672 9.90726 36.3442 10 36.0054 10V12C36.7597 12 37.4788 11.7677 38.0084 11.1852L36.5285 9.83982ZM41.3127 10.3574L40.8405 11.2389L40.8498 11.2439L40.8592 11.2487L41.3127 10.3574ZM39.3627 8.56248L38.5037 9.07454L38.5096 9.08432L38.5156 9.09397L39.3627 8.56248ZM39.3627 3.26641L38.4982 2.76347L38.4915 2.7754L39.3627 3.26641ZM41.2905 1.31639L40.7828 0.454829L40.776 0.458902L41.2905 1.31639ZM46.6752 1.18344L46.185 2.05501L46.6752 1.18344ZM48.2929 2.71243L47.4336 3.22391L47.4408 3.23605L47.4483 3.24797L48.2929 2.71243ZM48.4037 6.32439L49.2136 6.9109L49.2183 6.90442L49.2229 6.89785L48.4037 6.32439ZM47.1849 7.32156L47.5987 8.23201L47.6107 8.22638L47.1849 7.32156ZM45.6116 7.76475L45.4811 6.77329L45.6116 7.76475ZM43.994 7.80906L43.8804 8.8026L43.8945 8.8042L43.9086 8.80541L43.994 7.80906ZM42.6866 7.54315L43.0028 6.59447L40.3776 5.71941L41.8369 8.07051L42.6866 7.54315ZM43.6837 8.42952L43.3064 9.35562L43.3267 9.36389L43.3474 9.37127L43.6837 8.42952ZM44.969 8.62896L45.0023 9.6284L45.0178 9.62788L45.0333 9.62688L44.969 8.62896ZM46.2099 8.47384L46.406 9.45442L46.4181 9.452L46.4301 9.44928L46.2099 8.47384ZM47.34 8.54032L46.8928 9.43475L47.34 8.54032ZM47.8054 9.24942L46.8063 9.29483L46.8069 9.30489L47.8054 9.24942ZM47.5173 10.0472L46.7279 9.43321L46.717 9.44725L46.7066 9.46166L47.5173 10.0472ZM46.4536 10.7341L46.778 11.68L46.7899 11.6759L46.8018 11.6715L46.4536 10.7341ZM42.753 4.83972H41.753V5.12652L41.905 5.36972L42.753 4.83972ZM43.3957 5.34938L43.05 6.28773L43.0721 6.29587L43.0945 6.30297L43.3957 5.34938ZM44.2377 5.43802L44.1382 4.44297L44.133 4.44352L44.2377 5.43802ZM44.969 5.19427L44.4282 4.35309L44.4138 4.36234L44.3998 4.37208L44.969 5.19427ZM44.969 3.97551L44.2362 4.65596L44.2614 4.6831L44.2885 4.7083L44.969 3.97551ZM43.0854 4.06415L43.8353 4.72577L43.8446 4.71518L43.8536 4.70433L43.0854 4.06415ZM44.2377 10C43.2602 10 42.4454 9.81167 41.7661 9.4661L40.8592 11.2487C41.8641 11.7599 42.9993 12 44.2377 12V10ZM41.7849 9.4759C41.1021 9.11011 40.5849 8.62893 40.2097 8.03099L38.5156 9.09397C39.0859 10.0029 39.8687 10.7183 40.8405 11.2389L41.7849 9.4759ZM40.2216 8.05042C39.8656 7.45323 39.6757 6.75481 39.6757 5.92553H37.6757C37.6757 7.0758 37.9438 8.13535 38.5037 9.07454L40.2216 8.05042ZM39.6757 5.92553C39.6757 5.13202 39.8629 4.41551 40.2338 3.75743L38.4915 2.7754C37.9465 3.74232 37.6757 4.79856 37.6757 5.92553H39.6757ZM40.227 3.7693C40.6142 3.10383 41.136 2.57532 41.805 2.17389L40.776 0.458902C39.8201 1.03248 39.0566 1.80398 38.4983 2.76352L40.227 3.7693ZM41.7982 2.17793C42.4555 1.79061 43.2221 1.58514 44.1269 1.58514V-0.414862C42.9045 -0.414862 41.7801 -0.132827 40.7828 0.454857L41.7982 2.17793ZM44.1269 1.58514C44.9819 1.58514 45.6548 1.75679 46.185 2.05501L47.1655 0.311864C46.2775 -0.187644 45.2514 -0.414862 44.1269 -0.414862V1.58514ZM46.185 2.05501C46.7614 2.37925 47.1646 2.77197 47.4336 3.22391L49.1522 2.20094C48.6825 1.41197 48.0073 0.785362 47.1655 0.311864L46.185 2.05501ZM47.4483 3.24797C47.7368 3.7028 47.869 4.1611 47.869 4.64029H49.869C49.869 3.76037 49.6171 2.93343 49.1374 2.17689L47.4483 3.24797ZM47.869 4.64029C47.869 5.16751 47.7499 5.51447 47.5844 5.75093L49.2229 6.89785C49.6778 6.24795 49.869 5.47217 49.869 4.64029H47.869ZM47.5937 5.73788C47.3875 6.02259 47.1163 6.24863 46.7591 6.41674L47.6107 8.22638C48.258 7.92176 48.7993 7.48302 49.2136 6.9109L47.5937 5.73788ZM46.7711 6.41119C46.3785 6.58963 45.9502 6.71157 45.4811 6.77329L45.742 8.7562C46.3957 8.67019 47.0162 8.49668 47.5987 8.23193L46.7711 6.41119ZM45.4811 6.77329C44.9849 6.83858 44.5183 6.85034 44.0794 6.81272L43.9086 8.80541C44.5037 8.85642 45.1155 8.83863 45.742 8.7562L45.4811 6.77329ZM44.1075 6.81553C43.6347 6.7615 43.2715 6.68405 43.0028 6.59447L42.3703 8.49184C42.8107 8.63862 43.3191 8.73845 43.8804 8.8026L44.1075 6.81553ZM41.8369 8.07051C42.1946 8.64676 42.6801 9.10044 43.3064 9.35562L44.061 7.50343C43.8896 7.43361 43.7104 7.29638 43.5362 7.01579L41.8369 8.07051ZM43.3474 9.37127C43.8807 9.56173 44.4346 9.64733 45.0023 9.6284L44.9357 7.62951C44.617 7.64013 44.3141 7.59278 44.0201 7.48778L43.3474 9.37127ZM45.0333 9.62688C45.5264 9.59507 45.985 9.53862 46.406 9.45442L46.0138 7.49326C45.6961 7.5568 45.3275 7.60375 44.9046 7.63103L45.0333 9.62688ZM46.4301 9.44928C46.756 9.37571 46.8755 9.42609 46.8928 9.43475L47.7872 7.64589C47.2136 7.35909 46.5797 7.36515 45.9896 7.4984L46.4301 9.44928ZM46.8928 9.43475C46.9095 9.44311 46.8764 9.42963 46.8419 9.37705C46.8262 9.3531 46.8163 9.33002 46.8108 9.31194C46.8056 9.29463 46.8061 9.28749 46.8064 9.29482L48.8043 9.20401C48.79 8.88965 48.7041 8.56944 48.514 8.27973C48.3244 7.99079 48.066 7.78526 47.7872 7.64589L46.8928 9.43475ZM46.8069 9.30489C46.8064 9.29544 46.8091 9.29425 46.8039 9.30864C46.7976 9.32596 46.7788 9.36777 46.7279 9.43321L48.3066 10.6611C48.6212 10.2566 48.8352 9.75948 48.8038 9.19395L46.8069 9.30489ZM46.7066 9.46166C46.6853 9.49116 46.5502 9.63148 46.1055 9.79666L46.8018 11.6715C47.3912 11.4526 47.9652 11.135 48.328 10.6326L46.7066 9.46166ZM46.1293 9.78814C45.7671 9.91234 45.1579 10 44.2377 10V12C45.238 12 46.1061 11.9104 46.778 11.68L46.1293 9.78814ZM41.905 5.36972C42.1792 5.8083 42.5774 6.11364 43.05 6.28773L43.7414 4.41104C43.6525 4.37831 43.6224 4.34387 43.601 4.30972L41.905 5.36972ZM43.0945 6.30297C43.5005 6.43117 43.9192 6.47707 44.3424 6.43253L44.133 4.44352C43.9949 4.45806 43.8522 4.44488 43.6968 4.3958L43.0945 6.30297ZM44.3372 6.43306C44.7566 6.39112 45.1739 6.26865 45.5382 6.01646L44.3998 4.37208C44.3799 4.38579 44.3098 4.42583 44.1382 4.44298L44.3372 6.43306ZM45.5097 6.03545C45.9889 5.72742 46.2792 5.2331 46.2792 4.64029H44.2792C44.2792 4.60776 44.2878 4.54123 44.3291 4.46745C44.3695 4.39532 44.4162 4.36081 44.4282 4.35309L45.5097 6.03545ZM46.2792 4.64029C46.2792 4.07519 46.0321 3.59809 45.6494 3.24271L44.2885 4.7083C44.3118 4.72993 44.306 4.73132 44.2955 4.70862C44.2904 4.69783 44.2859 4.68497 44.2829 4.67117C44.2799 4.65745 44.2792 4.64663 44.2792 4.64029H46.2792ZM45.7018 3.29506C45.2412 2.79902 44.6015 2.66528 44.0383 2.66528V4.66528C44.1764 4.66528 44.2489 4.68248 44.276 4.69152C44.2974 4.69865 44.2713 4.69374 44.2362 4.65596L45.7018 3.29506ZM44.0383 2.66528C43.3918 2.66528 42.7662 2.88512 42.3172 3.42396L43.8536 4.70433C43.8622 4.6941 43.8662 4.69154 43.876 4.68744C43.8905 4.68136 43.9379 4.66528 44.0383 4.66528V2.66528ZM42.3356 3.40252C41.9961 3.78732 41.753 4.27186 41.753 4.83972H43.753C43.753 4.84992 43.7501 4.85241 43.7553 4.84031C43.7617 4.82529 43.7817 4.78642 43.8353 4.72577L42.3356 3.40252ZM50.7747 10.5125L50.0362 11.1868L50.0515 11.2035L50.0676 11.2196L50.7747 10.5125ZM50.0656 9.16078L51.0262 8.88272L50.0656 9.16078ZM49.7332 7.23292L50.7299 7.15156L49.7332 7.23292ZM49.6667 3.42153L48.6682 3.36755L48.6675 3.38065L48.6671 3.39376L49.6667 3.42153ZM49.8883 1.9147L48.928 1.63589L48.9238 1.65029L48.92 1.66482L49.8883 1.9147ZM50.5309 0.806731L51.2197 1.53173L51.2206 1.53087L50.5309 0.806731ZM52.9241 0.651617L52.4154 1.51254L52.4302 1.52128L52.4453 1.52951L52.9241 0.651617ZM53.5446 1.47151L52.5722 1.70488L52.9676 3.35244L54.2189 2.21L53.5446 1.47151ZM54.8298 0.806731L55.0789 1.77522L55.0882 1.77283L55.0975 1.77025L54.8298 0.806731ZM57.91 0.939687L57.4737 1.8395L57.4849 1.84492L57.4962 1.85005L57.91 0.939687ZM59.1509 1.87038L59.9121 1.22191L59.1509 1.87038ZM59.1731 4.44085L58.4097 3.79491L58.4023 3.80363L58.3951 3.81252L59.1731 4.44085ZM57.223 4.92836L56.8092 5.83872L56.8447 5.85484L56.8813 5.86815L57.223 4.92836ZM56.7577 4.72892L57.1291 3.80045V3.80045L56.7577 4.72892ZM54.719 5.30507L55.4141 6.02405L55.4145 6.02367L54.719 5.30507ZM54.01 8.31873L53.012 8.25434L53.011 8.26987L53.0105 8.28541L54.01 8.31873ZM53.8105 9.60397L52.849 9.32924L52.8444 9.34526L52.8404 9.36143L53.8105 9.60397ZM53.2344 10.6233L53.9012 11.3685L53.9118 11.359L53.9221 11.3492L53.2344 10.6233ZM52.0156 10C51.7515 10 51.6009 9.92453 51.4818 9.80539L50.0676 11.2196C50.5985 11.7505 51.2752 12 52.0156 12V10ZM51.5132 9.83823C51.3305 9.63812 51.1572 9.33539 51.0262 8.88272L49.105 9.43884C49.299 10.1089 49.5985 10.7073 50.0362 11.1868L51.5132 9.83823ZM51.0262 8.88272C50.8861 8.39879 50.7848 7.82413 50.7299 7.15156L48.7365 7.31429C48.7998 8.08945 48.9201 8.80003 49.105 9.43884L51.0262 8.88272ZM50.7299 7.15156C50.6731 6.45625 50.6446 5.73742 50.6446 4.99483H48.6446C48.6446 5.78863 48.6751 6.56185 48.7365 7.31429L50.7299 7.15156ZM50.6446 4.99483C50.6446 4.4873 50.6518 3.97213 50.6663 3.44929L48.6671 3.39376C48.6521 3.93457 48.6446 4.46827 48.6446 4.99483H50.6446ZM50.6653 3.4755C50.6918 2.98497 50.7573 2.54931 50.8566 2.16457L48.92 1.66482C48.783 2.196 48.7008 2.76489 48.6682 3.36755L50.6653 3.4755ZM50.8487 2.19351C50.9407 1.87648 51.0731 1.67099 51.2197 1.53173L49.8422 0.0817318C49.3979 0.503843 49.1018 1.037 48.928 1.63589L50.8487 2.19351ZM51.2206 1.53087C51.2928 1.46207 51.4515 1.36355 51.8383 1.36355V-0.636455C51.1024 -0.636455 50.3895 -0.439522 49.8413 0.0825939L51.2206 1.53087ZM51.8383 1.36355C52.0688 1.36355 52.2533 1.41676 52.4154 1.51254L53.4329 -0.20931C52.945 -0.49762 52.4056 -0.636455 51.8383 -0.636455V1.36355ZM52.4453 1.52951C52.5148 1.56744 52.5476 1.6024 52.5722 1.70488L54.517 1.23814C54.3643 0.601978 53.9835 0.0903435 53.403 -0.226279L52.4453 1.52951ZM54.2189 2.21C54.4198 2.02655 54.6947 1.874 55.0789 1.77522L54.5808 -0.161761C53.9308 0.00537014 53.349 0.296009 52.8703 0.733025L54.2189 2.21ZM55.0975 1.77025C55.5407 1.64714 55.9972 1.58514 56.4696 1.58514V-0.414862C55.8194 -0.414862 55.1827 -0.329138 54.5622 -0.156786L55.0975 1.77025ZM56.4696 1.58514C56.7706 1.58514 57.1023 1.65942 57.4737 1.8395L58.3463 0.0398722C57.7427 -0.252781 57.1141 -0.414862 56.4696 -0.414862V1.58514ZM57.4962 1.85005C57.8531 2.01228 58.1472 2.23423 58.3897 2.51884L59.9121 1.22191C59.475 0.708792 58.9419 0.310276 58.3238 0.0293207L57.4962 1.85005ZM58.3897 2.51884C58.5826 2.7453 58.6606 2.96841 58.6606 3.22209H60.6606C60.6606 2.47122 60.3988 1.79319 59.9121 1.22191L58.3897 2.51884ZM58.6606 3.22209C58.6606 3.37395 58.6099 3.55826 58.4097 3.79491L59.9365 5.0868C60.3862 4.55526 60.6606 3.92706 60.6606 3.22209H58.6606ZM58.3951 3.81252C58.3076 3.92091 58.1739 4.01699 57.8435 4.01699V6.01699C58.6654 6.01699 59.4181 5.72898 59.951 5.06919L58.3951 3.81252ZM57.8435 4.01699C57.6609 4.01699 57.5802 3.99418 57.5648 3.98856L56.8813 5.86815C57.1909 5.98072 57.5238 6.01699 57.8435 6.01699V4.01699ZM57.6368 4.01799C57.462 3.93852 57.2927 3.86589 57.1291 3.80045L56.3863 5.6574C56.5182 5.71014 56.6591 5.77047 56.8092 5.83872L57.6368 4.01799ZM57.1291 3.80045C56.8337 3.68227 56.5236 3.64029 56.2259 3.64029V5.64029C56.2822 5.64029 56.3226 5.64435 56.3496 5.64884C56.3763 5.65329 56.3871 5.65772 56.3863 5.6574L57.1291 3.80045ZM56.2259 3.64029C55.3769 3.64029 54.6348 3.99497 54.0236 4.58646L55.4145 6.02367C55.7192 5.72879 55.9817 5.64029 56.2259 5.64029V3.64029ZM54.024 4.58608C53.3479 5.23966 53.0543 6.10379 53.0543 7.05565H55.0543C55.0543 6.53022 55.2038 6.22729 55.4141 6.02405L54.024 4.58608ZM53.0543 7.05565C53.0543 7.41462 53.0404 7.81384 53.012 8.25434L55.0079 8.38311C55.0385 7.90769 55.0543 7.46486 55.0543 7.05565H53.0543ZM53.0105 8.28541C52.9984 8.6494 52.944 8.99661 52.849 9.32924L54.772 9.87869C54.9134 9.38404 54.992 8.87442 55.0094 8.35204L53.0105 8.28541ZM52.8404 9.36143C52.7782 9.60999 52.6751 9.77567 52.5466 9.89734L53.9221 11.3492C54.3551 10.9391 54.636 10.4252 54.7807 9.8465L52.8404 9.36143ZM52.5676 9.87805C52.5336 9.90844 52.4023 10 52.0156 10V12C52.6926 12 53.3738 11.8404 53.9012 11.3685L52.5676 9.87805ZM62.1414 10.579L61.5951 11.4166L61.616 11.4302L61.6375 11.4428L62.1414 10.579ZM61.2993 9.73692L60.4355 10.2408L60.4481 10.2623L60.4617 10.2832L61.2993 9.73692ZM61.2993 7.43236L60.4513 6.90236L60.4432 6.9153L60.4355 6.92848L61.2993 7.43236ZM62.1414 6.5903L61.6375 5.72652L61.6294 5.73124L61.6214 5.7361L62.1414 6.5903ZM64.4459 6.5903L64.9498 5.72652L64.4459 6.5903ZM65.288 7.43236L66.1518 6.92848L65.288 7.43236ZM65.288 9.73692L66.1422 10.2569L66.147 10.2489L66.1518 10.2408L65.288 9.73692ZM64.4459 10.579L64.9498 11.4428L64.963 11.4351L64.9759 11.427L64.4459 10.579ZM63.2937 9.8892C63.0556 9.8892 62.8456 9.83208 62.6452 9.71519L61.6375 11.4428C62.1462 11.7395 62.7044 11.8892 63.2937 11.8892V9.8892ZM62.6876 9.74136C62.4641 9.59561 62.2827 9.41414 62.1369 9.19065L60.4617 10.2832C60.7591 10.7393 61.139 11.1192 61.5951 11.4166L62.6876 9.74136ZM62.1631 9.23305C62.0462 9.03268 61.9891 8.82267 61.9891 8.58464H59.9891C59.9891 9.17389 60.1388 9.73207 60.4355 10.2408L62.1631 9.23305ZM61.9891 8.58464C61.9891 8.34661 62.0462 8.1366 62.1631 7.93623L60.4355 6.92848C60.1388 7.43721 59.9891 7.99539 59.9891 8.58464H61.9891ZM62.1473 7.96235C62.2907 7.73301 62.4615 7.56614 62.6613 7.4445L61.6214 5.7361C61.1417 6.02811 60.7512 6.4226 60.4513 6.90236L62.1473 7.96235ZM62.6452 7.45408C62.8456 7.3372 63.0556 7.28007 63.2937 7.28007V5.28007C62.7044 5.28007 62.1462 5.42977 61.6375 5.72652L62.6452 7.45408ZM63.2937 7.28007C63.5317 7.28007 63.7417 7.3372 63.9421 7.45408L64.9498 5.72652C64.4411 5.42977 63.8829 5.28007 63.2937 5.28007V7.28007ZM63.9421 7.45408C64.1476 7.57398 64.3043 7.73068 64.4242 7.93623L66.1518 6.92848C65.858 6.42493 65.4534 6.02026 64.9498 5.72652L63.9421 7.45408ZM64.4242 7.93623C64.5411 8.1366 64.5982 8.34661 64.5982 8.58464H66.5982C66.5982 7.99539 66.4485 7.43721 66.1518 6.92848L64.4242 7.93623ZM64.5982 8.58464C64.5982 8.82267 64.5411 9.03268 64.4242 9.23305L66.1518 10.2408C66.4485 9.73207 66.5982 9.17389 66.5982 8.58464H64.5982ZM64.4338 9.21697C64.3121 9.41681 64.1453 9.58764 63.9159 9.73098L64.9759 11.427C65.4557 11.1271 65.8502 10.7366 66.1422 10.2569L64.4338 9.21697ZM63.9421 9.71519C63.7417 9.83208 63.5317 9.8892 63.2937 9.8892V11.8892C63.8829 11.8892 64.4411 11.7395 64.9498 11.4428L63.9421 9.71519Z" fill="black"/>
</svg>
