<svg width="145" height="74" viewBox="0 0 145 74" fill="none" xmlns="http://www.w3.org/2000/svg">
<rect width="145" height="74" rx="8" fill="#1F1F1F"/>
<g filter="url(#filter0_d_137_8)">
<path d="M53.4677 43C52.9506 43 52.4262 42.8966 51.8944 42.6898C51.3625 42.483 50.8824 42.1801 50.454 41.7812C50.0404 41.3824 49.7375 40.9023 49.5455 40.3409C49.4125 39.9716 49.3165 39.5136 49.2574 38.967C49.1983 38.4204 49.154 37.8369 49.1245 37.2164C49.1097 36.596 49.1023 35.9903 49.1023 35.3994C48.5262 35.3846 47.9722 35.3329 47.4404 35.2443C46.9233 35.1556 46.4949 34.9931 46.1551 34.7567C45.8301 34.5056 45.6676 34.1437 45.6676 33.6709C45.6676 33.0948 45.8227 32.6664 46.133 32.3857C46.4432 32.0902 46.8568 31.8982 47.3739 31.8096C47.9057 31.7062 48.4818 31.6471 49.1023 31.6323C49.1171 31.1743 49.154 30.709 49.2131 30.2363C49.287 29.7488 49.4051 29.2982 49.5676 28.8845C49.7301 28.4709 49.9591 28.1385 50.2546 27.8874C50.55 27.6215 50.9341 27.4885 51.4069 27.4885C52.0421 27.4885 52.5001 27.6879 52.7807 28.0868C53.0762 28.4857 53.2609 29.0027 53.3347 29.638C53.4086 30.2732 53.4381 30.938 53.4234 31.6323C54.1915 31.6175 54.8711 31.6471 55.462 31.7209C56.0529 31.7948 56.5183 31.9573 56.858 32.2084C57.1978 32.4596 57.3677 32.8584 57.3677 33.405C57.3677 33.9664 57.1757 34.3874 56.7916 34.6681C56.4075 34.9488 55.9052 35.1408 55.2847 35.2443C54.6643 35.3329 54.0069 35.3846 53.3126 35.3994C53.3126 35.6801 53.3052 35.9755 53.2904 36.2857C53.2904 36.5812 53.2904 36.884 53.2904 37.1943C53.2904 38.0363 53.3495 38.6346 53.4677 38.9892C53.5563 39.2551 53.6745 39.425 53.8222 39.4988C53.9847 39.5727 54.1842 39.617 54.4205 39.6318C54.6569 39.6318 54.945 39.6761 55.2847 39.7647C55.6245 39.8386 55.8904 40.0233 56.0825 40.3187C56.2745 40.5994 56.3705 40.9613 56.3705 41.4045C56.3705 41.9068 56.1046 42.2983 55.5728 42.579C55.0558 42.8597 54.354 43 53.4677 43ZM61.3965 46.2796C60.909 46.2796 60.4511 46.2131 60.0227 46.0801C59.609 45.962 59.2693 45.7625 59.0033 45.4818C58.7374 45.2159 58.6045 44.8688 58.6045 44.4404C58.6045 43.9233 58.8408 43.5318 59.3136 43.2659C59.7863 43 60.3181 42.8818 60.909 42.9114C61.559 42.9261 62.0613 42.8966 62.4159 42.8227C62.7852 42.7341 63.0659 42.5716 63.2579 42.3352C61.8988 42.3352 60.813 42.1358 60.0005 41.7369C59.188 41.3381 58.5971 40.7176 58.2278 39.8755C57.8732 39.0335 57.6959 37.9403 57.6959 36.596C57.6959 35.8721 57.7698 35.2147 57.9175 34.6238C58.0653 34.0181 58.3016 33.538 58.6266 33.1834C58.9664 32.8141 59.4096 32.6295 59.9562 32.6295C60.6948 32.6295 61.2193 32.8437 61.5295 33.2721C61.8397 33.6857 61.9948 34.1732 61.9948 34.7346C61.9948 35.2369 61.9875 35.7318 61.9727 36.2193C61.9579 36.692 61.9727 37.113 62.017 37.4823C62.0613 37.8517 62.1795 38.1471 62.3716 38.3687C62.5636 38.5903 62.8664 38.7011 63.2801 38.7011C63.6937 38.7011 63.9966 38.5903 64.1886 38.3687C64.3807 38.1471 64.4988 37.8517 64.5432 37.4823C64.5875 37.113 64.6023 36.6994 64.5875 36.2414C64.5727 35.7687 64.5653 35.2812 64.5653 34.7789C64.5653 34.1584 64.7204 33.6488 65.0307 33.2499C65.3557 32.8363 65.8801 32.6295 66.604 32.6295C67.1653 32.6295 67.6085 32.8141 67.9335 33.1834C68.2733 33.538 68.5171 34.0181 68.6648 34.6238C68.8125 35.2147 68.8864 35.8721 68.8864 36.596C68.8864 37.8073 68.7534 38.9966 68.4875 40.1636C68.2364 41.3159 67.8153 42.35 67.2244 43.2659C66.6483 44.1818 65.8801 44.9131 64.9199 45.4597C63.9744 46.0063 62.8 46.2796 61.3965 46.2796ZM73.3608 46.2796C72.8733 46.2796 72.4154 46.2131 71.9869 46.0801C71.5733 45.962 71.2335 45.7625 70.9676 45.4818C70.7017 45.2159 70.5688 44.8688 70.5688 44.4404C70.5688 43.9233 70.8051 43.5318 71.2779 43.2659C71.7506 43 72.2824 42.8818 72.8733 42.9114C73.5233 42.9261 74.0256 42.8966 74.3802 42.8227C74.7495 42.7341 75.0302 42.5716 75.2222 42.3352C73.8631 42.3352 72.7773 42.1358 71.9648 41.7369C71.1523 41.3381 70.5614 40.7176 70.192 39.8755C69.8375 39.0335 69.6602 37.9403 69.6602 36.596C69.6602 35.8721 69.7341 35.2147 69.8818 34.6238C70.0295 34.0181 70.2659 33.538 70.5909 33.1834C70.9307 32.8141 71.3739 32.6295 71.9205 32.6295C72.6591 32.6295 73.1836 32.8437 73.4938 33.2721C73.804 33.6857 73.9591 34.1732 73.9591 34.7346C73.9591 35.2369 73.9517 35.7318 73.937 36.2193C73.9222 36.692 73.937 37.113 73.9813 37.4823C74.0256 37.8517 74.1438 38.1471 74.3358 38.3687C74.5279 38.5903 74.8307 38.7011 75.2444 38.7011C75.658 38.7011 75.9608 38.5903 76.1529 38.3687C76.3449 38.1471 76.4631 37.8517 76.5074 37.4823C76.5518 37.113 76.5665 36.6994 76.5518 36.2414C76.537 35.7687 76.5296 35.2812 76.5296 34.7789C76.5296 34.1584 76.6847 33.6488 76.9949 33.2499C77.3199 32.8363 77.8444 32.6295 78.5683 32.6295C79.1296 32.6295 79.5728 32.8141 79.8978 33.1834C80.2376 33.538 80.4813 34.0181 80.6291 34.6238C80.7768 35.2147 80.8507 35.8721 80.8507 36.596C80.8507 37.8073 80.7177 38.9966 80.4518 40.1636C80.2007 41.3159 79.7796 42.35 79.1887 43.2659C78.6126 44.1818 77.8444 44.9131 76.8842 45.4597C75.9387 46.0063 74.7642 46.2796 73.3608 46.2796ZM83.6684 46.1688C83.0922 46.1688 82.6416 45.9398 82.3166 45.4818C82.0064 45.0387 81.7848 44.4551 81.6519 43.7313C81.5337 43.0074 81.4598 42.2318 81.4303 41.4045C81.4155 40.5773 81.4081 39.7943 81.4081 39.0556C81.4081 38.4056 81.4229 37.7113 81.4524 36.9727C81.4967 36.2193 81.5854 35.5102 81.7183 34.8454C81.8661 34.1658 82.1098 33.6119 82.4496 33.1834C82.7894 32.755 83.2547 32.5408 83.8456 32.5408C84.3036 32.5408 84.6581 32.6295 84.9093 32.8067C85.1604 32.984 85.3525 33.1908 85.4854 33.4272C85.8252 33.1761 86.2462 32.9766 86.7485 32.8289C87.2508 32.6664 87.79 32.5851 88.3661 32.5851C89.3264 32.5851 90.198 32.8215 90.9809 33.2942C91.7786 33.767 92.4139 34.4022 92.8866 35.1999C93.3593 35.9829 93.5957 36.8545 93.5957 37.8147C93.5957 38.775 93.3593 39.6539 92.8866 40.4517C92.4139 41.2494 91.7786 41.8846 90.9809 42.3574C90.198 42.8301 89.3264 43.0665 88.3661 43.0665C87.7752 43.0665 87.2286 42.9926 86.7263 42.8449C86.2241 42.6824 85.803 42.4682 85.4633 42.2023C85.4633 42.9409 85.4337 43.6131 85.3746 44.2188C85.3303 44.8244 85.1826 45.2972 84.9314 45.637C84.6803 45.9915 84.2593 46.1688 83.6684 46.1688ZM88.2553 39.388C88.6394 39.388 88.9718 39.2477 89.2525 38.967C89.5479 38.6716 89.6957 38.3318 89.6957 37.9477C89.6957 37.5636 89.5479 37.2312 89.2525 36.9505C88.9718 36.6551 88.6394 36.5073 88.2553 36.5073C87.8712 36.5073 87.5315 36.6551 87.236 36.9505C86.9553 37.2312 86.815 37.5636 86.815 37.9477C86.815 38.3318 86.9553 38.6716 87.236 38.967C87.5315 39.2477 87.8712 39.388 88.2553 39.388ZM96.5225 43C96.0202 43 95.6065 42.8375 95.2815 42.5125C94.9713 42.1727 94.7349 41.7221 94.5724 41.1608C94.4099 40.5994 94.2991 39.9568 94.2401 39.2329C94.181 38.5091 94.1514 37.763 94.1514 36.9948C94.1514 36.4778 94.1588 35.9533 94.1736 35.4215C94.2031 34.8749 94.277 34.3727 94.3952 33.9147C94.5281 33.4567 94.7423 33.0874 95.0378 32.8067C95.348 32.5113 95.7838 32.3635 96.3452 32.3635C96.7441 32.3635 97.106 32.4596 97.431 32.6516C97.756 32.8289 97.9628 33.1022 98.0515 33.4715C98.3912 33.1613 98.8196 32.9397 99.3367 32.8067C99.8685 32.659 100.415 32.5851 100.976 32.5851C101.449 32.5851 101.929 32.7033 102.417 32.9397C102.904 33.1613 103.318 33.4715 103.658 33.8704C103.998 34.2692 104.167 34.7198 104.167 35.2221C104.167 35.6505 104.005 36.0568 103.68 36.4409C103.37 36.8249 102.926 37.017 102.35 37.017C102.099 37.017 101.892 36.9874 101.73 36.9284C101.567 36.8545 101.412 36.788 101.265 36.7289C101.117 36.6698 100.94 36.6403 100.733 36.6403C100.186 36.6403 99.6839 36.8619 99.2259 37.3051C98.7827 37.7335 98.5611 38.317 98.5611 39.0556C98.5611 39.4397 98.5463 39.8608 98.5168 40.3187C98.502 40.7619 98.4355 41.1903 98.3174 41.604C98.214 42.0176 98.0219 42.3574 97.7412 42.6233C97.4605 42.8744 97.0543 43 96.5225 43ZM107.8 42.8892C107.387 42.8892 107.003 42.7858 106.648 42.579C106.308 42.3574 106.028 42.0767 105.806 41.7369C105.599 41.3824 105.496 40.9983 105.496 40.5846C105.496 40.171 105.599 39.7869 105.806 39.4324C106.028 39.0778 106.308 38.7971 106.648 38.5903C107.003 38.3835 107.387 38.2801 107.8 38.2801C108.214 38.2801 108.598 38.3835 108.953 38.5903C109.307 38.7971 109.588 39.0778 109.795 39.4324C110.002 39.7869 110.105 40.171 110.105 40.5846C110.105 40.9983 110.002 41.3824 109.795 41.7369C109.588 42.0767 109.307 42.3574 108.953 42.579C108.598 42.7858 108.214 42.8892 107.8 42.8892Z" fill="white"/>
<path d="M51.8944 42.6898L51.5319 43.6218L51.8944 42.6898ZM50.454 41.7812L49.7599 42.5011L49.7662 42.5072L49.7726 42.5131L50.454 41.7812ZM49.5455 40.3409L50.4916 40.0172L50.4891 40.0097L50.4864 40.0022L49.5455 40.3409ZM49.2574 38.967L48.2632 39.0745L49.2574 38.967ZM49.1245 37.2164L48.1247 37.2402L48.125 37.2521L48.1256 37.264L49.1245 37.2164ZM49.1023 35.3994H50.1023V34.4247L49.1279 34.3997L49.1023 35.3994ZM47.4404 35.2443L47.2714 36.2299L47.276 36.2306L47.4404 35.2443ZM46.1551 34.7567L45.5437 35.548L45.5635 35.5633L45.5841 35.5777L46.1551 34.7567ZM46.133 32.3857L46.8039 33.1272L46.8134 33.1187L46.8226 33.1098L46.133 32.3857ZM47.3739 31.8096L47.5428 32.7952L47.5538 32.7933L47.5647 32.7912L47.3739 31.8096ZM49.1023 31.6323L49.1261 32.632L50.0713 32.6095L50.1018 31.6645L49.1023 31.6323ZM49.2131 30.2363L48.2244 30.0864L48.2224 30.0993L48.2208 30.1122L49.2131 30.2363ZM49.5676 28.8845L50.4984 29.2502L50.4984 29.2502L49.5676 28.8845ZM50.2546 27.8874L50.9022 28.6493L50.913 28.6401L50.9235 28.6307L50.2546 27.8874ZM52.7807 28.0868L51.9629 28.6623L51.9699 28.6723L51.9772 28.682L52.7807 28.0868ZM53.3347 29.638L54.328 29.5225V29.5225L53.3347 29.638ZM53.4234 31.6323L52.4236 31.611L52.4014 32.6521L53.4426 32.6321L53.4234 31.6323ZM56.858 32.2084L57.4524 31.4043L56.858 32.2084ZM55.2847 35.2443L55.4262 36.2342L55.4377 36.2326L55.4491 36.2306L55.2847 35.2443ZM53.3126 35.3994L53.2913 34.3996L52.3126 34.4204V35.3994H53.3126ZM53.2904 36.2857L52.2915 36.2382L52.2904 36.2619V36.2857H53.2904ZM53.4677 38.9892L52.519 39.3054L52.519 39.3054L53.4677 38.9892ZM53.8222 39.4988L53.375 40.3933L53.3916 40.4015L53.4084 40.4092L53.8222 39.4988ZM54.4205 39.6318L54.3581 40.6298L54.3893 40.6318H54.4205V39.6318ZM55.2847 39.7647L55.0323 40.7324L55.0522 40.7376L55.0723 40.7419L55.2847 39.7647ZM56.0825 40.3187L55.244 40.8637L55.2505 40.8736L55.2572 40.8834L56.0825 40.3187ZM55.5728 42.579L55.106 41.6945L55.0957 41.7001L55.5728 42.579ZM53.4677 42C53.0868 42 52.6851 41.9243 52.2568 41.7578L51.5319 43.6218C52.1673 43.8689 52.8144 44 53.4677 44V42ZM52.2568 41.7578C51.8461 41.598 51.4736 41.3642 51.1354 41.0493L49.7726 42.5131C50.2913 42.996 50.879 43.3679 51.5319 43.6218L52.2568 41.7578ZM51.1482 41.0614C50.8526 40.7764 50.634 40.4334 50.4916 40.0172L48.5993 40.6646C48.841 41.3711 49.2282 41.9884 49.7599 42.5011L51.1482 41.0614ZM50.4864 40.0022C50.3886 39.7306 50.3053 39.356 50.2516 38.8595L48.2632 39.0745C48.3277 39.6712 48.4364 40.2125 48.6046 40.6796L50.4864 40.0022ZM50.2516 38.8595C50.1949 38.3352 50.152 37.7718 50.1233 37.1689L48.1256 37.264C48.156 37.902 48.2017 38.5056 48.2632 39.0745L50.2516 38.8595ZM50.1242 37.1926C50.1096 36.5797 50.1023 35.982 50.1023 35.3994H48.1023C48.1023 35.9986 48.1098 36.6122 48.1247 37.2402L50.1242 37.1926ZM49.1279 34.3997C48.5951 34.386 48.0877 34.3383 47.6048 34.2579L47.276 36.2306C47.8567 36.3274 48.4572 36.3832 49.0767 36.399L49.1279 34.3997ZM47.6093 34.2586C47.1993 34.1883 46.9179 34.0692 46.7262 33.9358L45.5841 35.5777C46.0719 35.917 46.6473 36.1229 47.2714 36.2299L47.6093 34.2586ZM46.7666 33.9655C46.7257 33.9339 46.6676 33.8869 46.6676 33.6709H44.6676C44.6676 34.4004 44.9345 35.0773 45.5437 35.548L46.7666 33.9655ZM46.6676 33.6709C46.6676 33.2668 46.7731 33.1551 46.8039 33.1272L45.462 31.6442C44.8723 32.1777 44.6676 32.9228 44.6676 33.6709H46.6676ZM46.8226 33.1098C46.9596 32.9793 47.1771 32.8579 47.5428 32.7952L47.2049 30.8239C46.5365 30.9385 45.9267 31.2012 45.4433 31.6616L46.8226 33.1098ZM47.5647 32.7912C48.0342 32.6999 48.5538 32.6456 49.1261 32.632L49.0785 30.6326C48.4098 30.6485 47.7772 30.7124 47.183 30.8279L47.5647 32.7912ZM50.1018 31.6645C50.1155 31.2385 50.1499 30.8038 50.2054 30.3603L48.2208 30.1122C48.1581 30.6142 48.1186 31.1102 48.1028 31.6L50.1018 31.6645ZM50.2018 30.3861C50.2657 29.9645 50.366 29.5872 50.4984 29.2502L48.6369 28.5189C48.4443 29.0092 48.3082 29.533 48.2244 30.0864L50.2018 30.3861ZM50.4984 29.2502C50.6095 28.9674 50.7496 28.779 50.9022 28.6493L49.6069 27.1254C49.1686 27.498 48.8508 27.9744 48.6369 28.5189L50.4984 29.2502ZM50.9235 28.6307C51.0017 28.5603 51.1318 28.4885 51.4069 28.4885V26.4885C50.7365 26.4885 50.0984 26.6826 49.5856 27.1441L50.9235 28.6307ZM51.4069 28.4885C51.8256 28.4885 51.9245 28.6077 51.9629 28.6623L53.5985 27.5113C53.0756 26.7682 52.2586 26.4885 51.4069 26.4885V28.4885ZM51.9772 28.682C52.1426 28.9054 52.2821 29.243 52.3414 29.7535L54.328 29.5225C54.2397 28.7625 54.0098 28.0659 53.5843 27.4916L51.9772 28.682ZM52.3414 29.7535C52.4096 30.3396 52.4375 30.9585 52.4236 31.611L54.4231 31.6536C54.4388 30.9174 54.4076 30.2068 54.328 29.5225L52.3414 29.7535ZM53.4426 32.6321C54.1759 32.618 54.8059 32.6467 55.338 32.7132L55.586 30.7286C54.9363 30.6474 54.2072 30.617 53.4041 30.6325L53.4426 32.6321ZM55.338 32.7132C55.8245 32.774 56.107 32.8968 56.2637 33.0126L57.4524 31.4043C56.9295 31.0178 56.2813 30.8156 55.586 30.7286L55.338 32.7132ZM56.2637 33.0126C56.2759 33.0216 56.3677 33.0733 56.3677 33.405H58.3677C58.3677 32.6436 58.1198 31.8975 57.4524 31.4043L56.2637 33.0126ZM56.3677 33.405C56.3677 33.7125 56.2795 33.8038 56.2016 33.8607L57.3816 35.4755C58.0718 34.9711 58.3677 34.2203 58.3677 33.405H56.3677ZM56.2016 33.8607C55.9773 34.0246 55.6345 34.1722 55.1203 34.2579L55.4491 36.2306C56.1759 36.1095 56.8376 35.873 57.3816 35.4755L56.2016 33.8607ZM55.1433 34.2543C54.5667 34.3367 53.9496 34.3856 53.2913 34.3996L53.3338 36.3991C54.0641 36.3836 54.7619 36.3291 55.4262 36.2342L55.1433 34.2543ZM52.3126 35.3994C52.3126 35.6626 52.3056 35.9421 52.2915 36.2382L54.2893 36.3333C54.3047 36.0089 54.3126 35.6975 54.3126 35.3994H52.3126ZM52.2904 36.2857C52.2904 36.2863 52.2904 36.2869 52.2904 36.2875C52.2904 36.288 52.2904 36.2886 52.2904 36.2892C52.2904 36.2898 52.2904 36.2904 52.2904 36.2909C52.2904 36.2915 52.2904 36.2921 52.2904 36.2927C52.2904 36.2932 52.2904 36.2938 52.2904 36.2944C52.2904 36.295 52.2904 36.2956 52.2904 36.2961C52.2904 36.2967 52.2904 36.2973 52.2904 36.2979C52.2904 36.2984 52.2904 36.299 52.2904 36.2996C52.2904 36.3002 52.2904 36.3007 52.2904 36.3013C52.2904 36.3019 52.2904 36.3025 52.2904 36.3031C52.2904 36.3036 52.2904 36.3042 52.2904 36.3048C52.2904 36.3054 52.2904 36.3059 52.2904 36.3065C52.2904 36.3071 52.2904 36.3077 52.2904 36.3083C52.2904 36.3088 52.2904 36.3094 52.2904 36.31C52.2904 36.3106 52.2904 36.3111 52.2904 36.3117C52.2904 36.3123 52.2904 36.3129 52.2904 36.3135C52.2904 36.314 52.2904 36.3146 52.2904 36.3152C52.2904 36.3158 52.2904 36.3163 52.2904 36.3169C52.2904 36.3175 52.2904 36.3181 52.2904 36.3187C52.2904 36.3192 52.2904 36.3198 52.2904 36.3204C52.2904 36.321 52.2904 36.3216 52.2904 36.3221C52.2904 36.3227 52.2904 36.3233 52.2904 36.3239C52.2904 36.3244 52.2904 36.325 52.2904 36.3256C52.2904 36.3262 52.2904 36.3268 52.2904 36.3273C52.2904 36.3279 52.2904 36.3285 52.2904 36.3291C52.2904 36.3296 52.2904 36.3302 52.2904 36.3308C52.2904 36.3314 52.2904 36.332 52.2904 36.3325C52.2904 36.3331 52.2904 36.3337 52.2904 36.3343C52.2904 36.3349 52.2904 36.3354 52.2904 36.336C52.2904 36.3366 52.2904 36.3372 52.2904 36.3377C52.2904 36.3383 52.2904 36.3389 52.2904 36.3395C52.2904 36.3401 52.2904 36.3406 52.2904 36.3412C52.2904 36.3418 52.2904 36.3424 52.2904 36.343C52.2904 36.3435 52.2904 36.3441 52.2904 36.3447C52.2904 36.3453 52.2904 36.3459 52.2904 36.3464C52.2904 36.347 52.2904 36.3476 52.2904 36.3482C52.2904 36.3487 52.2904 36.3493 52.2904 36.3499C52.2904 36.3505 52.2904 36.3511 52.2904 36.3516C52.2904 36.3522 52.2904 36.3528 52.2904 36.3534C52.2904 36.354 52.2904 36.3545 52.2904 36.3551C52.2904 36.3557 52.2904 36.3563 52.2904 36.3569C52.2904 36.3574 52.2904 36.358 52.2904 36.3586C52.2904 36.3592 52.2904 36.3598 52.2904 36.3603C52.2904 36.3609 52.2904 36.3615 52.2904 36.3621C52.2904 36.3627 52.2904 36.3632 52.2904 36.3638C52.2904 36.3644 52.2904 36.365 52.2904 36.3656C52.2904 36.3661 52.2904 36.3667 52.2904 36.3673C52.2904 36.3679 52.2904 36.3685 52.2904 36.369C52.2904 36.3696 52.2904 36.3702 52.2904 36.3708C52.2904 36.3713 52.2904 36.3719 52.2904 36.3725C52.2904 36.3731 52.2904 36.3737 52.2904 36.3742C52.2904 36.3748 52.2904 36.3754 52.2904 36.376C52.2904 36.3766 52.2904 36.3771 52.2904 36.3777C52.2904 36.3783 52.2904 36.3789 52.2904 36.3795C52.2904 36.38 52.2904 36.3806 52.2904 36.3812C52.2904 36.3818 52.2904 36.3824 52.2904 36.3829C52.2904 36.3835 52.2904 36.3841 52.2904 36.3847C52.2904 36.3853 52.2904 36.3859 52.2904 36.3864C52.2904 36.387 52.2904 36.3876 52.2904 36.3882C52.2904 36.3888 52.2904 36.3893 52.2904 36.3899C52.2904 36.3905 52.2904 36.3911 52.2904 36.3917C52.2904 36.3922 52.2904 36.3928 52.2904 36.3934C52.2904 36.394 52.2904 36.3946 52.2904 36.3951C52.2904 36.3957 52.2904 36.3963 52.2904 36.3969C52.2904 36.3975 52.2904 36.398 52.2904 36.3986C52.2904 36.3992 52.2904 36.3998 52.2904 36.4004C52.2904 36.4009 52.2904 36.4015 52.2904 36.4021C52.2904 36.4027 52.2904 36.4033 52.2904 36.4039C52.2904 36.4044 52.2904 36.405 52.2904 36.4056C52.2904 36.4062 52.2904 36.4068 52.2904 36.4073C52.2904 36.4079 52.2904 36.4085 52.2904 36.4091C52.2904 36.4097 52.2904 36.4102 52.2904 36.4108C52.2904 36.4114 52.2904 36.412 52.2904 36.4126C52.2904 36.4131 52.2904 36.4137 52.2904 36.4143C52.2904 36.4149 52.2904 36.4155 52.2904 36.4161C52.2904 36.4166 52.2904 36.4172 52.2904 36.4178C52.2904 36.4184 52.2904 36.419 52.2904 36.4195C52.2904 36.4201 52.2904 36.4207 52.2904 36.4213C52.2904 36.4219 52.2904 36.4224 52.2904 36.423C52.2904 36.4236 52.2904 36.4242 52.2904 36.4248C52.2904 36.4254 52.2904 36.4259 52.2904 36.4265C52.2904 36.4271 52.2904 36.4277 52.2904 36.4283C52.2904 36.4288 52.2904 36.4294 52.2904 36.43C52.2904 36.4306 52.2904 36.4312 52.2904 36.4318C52.2904 36.4323 52.2904 36.4329 52.2904 36.4335C52.2904 36.4341 52.2904 36.4347 52.2904 36.4352C52.2904 36.4358 52.2904 36.4364 52.2904 36.437C52.2904 36.4376 52.2904 36.4382 52.2904 36.4387C52.2904 36.4393 52.2904 36.4399 52.2904 36.4405C52.2904 36.4411 52.2904 36.4416 52.2904 36.4422C52.2904 36.4428 52.2904 36.4434 52.2904 36.444C52.2904 36.4446 52.2904 36.4451 52.2904 36.4457C52.2904 36.4463 52.2904 36.4469 52.2904 36.4475C52.2904 36.4481 52.2904 36.4486 52.2904 36.4492C52.2904 36.4498 52.2904 36.4504 52.2904 36.451C52.2904 36.4515 52.2904 36.4521 52.2904 36.4527C52.2904 36.4533 52.2904 36.4539 52.2904 36.4545C52.2904 36.455 52.2904 36.4556 52.2904 36.4562C52.2904 36.4568 52.2904 36.4574 52.2904 36.458C52.2904 36.4585 52.2904 36.4591 52.2904 36.4597C52.2904 36.4603 52.2904 36.4609 52.2904 36.4615C52.2904 36.462 52.2904 36.4626 52.2904 36.4632C52.2904 36.4638 52.2904 36.4644 52.2904 36.4649C52.2904 36.4655 52.2904 36.4661 52.2904 36.4667C52.2904 36.4673 52.2904 36.4679 52.2904 36.4684C52.2904 36.469 52.2904 36.4696 52.2904 36.4702C52.2904 36.4708 52.2904 36.4714 52.2904 36.4719C52.2904 36.4725 52.2904 36.4731 52.2904 36.4737C52.2904 36.4743 52.2904 36.4749 52.2904 36.4754C52.2904 36.476 52.2904 36.4766 52.2904 36.4772C52.2904 36.4778 52.2904 36.4784 52.2904 36.4789C52.2904 36.4795 52.2904 36.4801 52.2904 36.4807C52.2904 36.4813 52.2904 36.4819 52.2904 36.4824C52.2904 36.483 52.2904 36.4836 52.2904 36.4842C52.2904 36.4848 52.2904 36.4854 52.2904 36.4859C52.2904 36.4865 52.2904 36.4871 52.2904 36.4877C52.2904 36.4883 52.2904 36.4889 52.2904 36.4894C52.2904 36.49 52.2904 36.4906 52.2904 36.4912C52.2904 36.4918 52.2904 36.4924 52.2904 36.4929C52.2904 36.4935 52.2904 36.4941 52.2904 36.4947C52.2904 36.4953 52.2904 36.4959 52.2904 36.4965C52.2904 36.497 52.2904 36.4976 52.2904 36.4982C52.2904 36.4988 52.2904 36.4994 52.2904 36.5C52.2904 36.5005 52.2904 36.5011 52.2904 36.5017C52.2904 36.5023 52.2904 36.5029 52.2904 36.5035C52.2904 36.504 52.2904 36.5046 52.2904 36.5052C52.2904 36.5058 52.2904 36.5064 52.2904 36.507C52.2904 36.5075 52.2904 36.5081 52.2904 36.5087C52.2904 36.5093 52.2904 36.5099 52.2904 36.5105C52.2904 36.5111 52.2904 36.5116 52.2904 36.5122C52.2904 36.5128 52.2904 36.5134 52.2904 36.514C52.2904 36.5146 52.2904 36.5151 52.2904 36.5157C52.2904 36.5163 52.2904 36.5169 52.2904 36.5175C52.2904 36.5181 52.2904 36.5187 52.2904 36.5192C52.2904 36.5198 52.2904 36.5204 52.2904 36.521C52.2904 36.5216 52.2904 36.5222 52.2904 36.5227C52.2904 36.5233 52.2904 36.5239 52.2904 36.5245C52.2904 36.5251 52.2904 36.5257 52.2904 36.5263C52.2904 36.5268 52.2904 36.5274 52.2904 36.528C52.2904 36.5286 52.2904 36.5292 52.2904 36.5298C52.2904 36.5303 52.2904 36.5309 52.2904 36.5315C52.2904 36.5321 52.2904 36.5327 52.2904 36.5333C52.2904 36.5339 52.2904 36.5344 52.2904 36.535C52.2904 36.5356 52.2904 36.5362 52.2904 36.5368C52.2904 36.5374 52.2904 36.538 52.2904 36.5385C52.2904 36.5391 52.2904 36.5397 52.2904 36.5403C52.2904 36.5409 52.2904 36.5415 52.2904 36.542C52.2904 36.5426 52.2904 36.5432 52.2904 36.5438C52.2904 36.5444 52.2904 36.545 52.2904 36.5456C52.2904 36.5461 52.2904 36.5467 52.2904 36.5473C52.2904 36.5479 52.2904 36.5485 52.2904 36.5491C52.2904 36.5497 52.2904 36.5502 52.2904 36.5508C52.2904 36.5514 52.2904 36.552 52.2904 36.5526C52.2904 36.5532 52.2904 36.5538 52.2904 36.5543C52.2904 36.5549 52.2904 36.5555 52.2904 36.5561C52.2904 36.5567 52.2904 36.5573 52.2904 36.5579C52.2904 36.5584 52.2904 36.559 52.2904 36.5596C52.2904 36.5602 52.2904 36.5608 52.2904 36.5614C52.2904 36.562 52.2904 36.5625 52.2904 36.5631C52.2904 36.5637 52.2904 36.5643 52.2904 36.5649C52.2904 36.5655 52.2904 36.5661 52.2904 36.5667C52.2904 36.5672 52.2904 36.5678 52.2904 36.5684C52.2904 36.569 52.2904 36.5696 52.2904 36.5702C52.2904 36.5708 52.2904 36.5713 52.2904 36.5719C52.2904 36.5725 52.2904 36.5731 52.2904 36.5737C52.2904 36.5743 52.2904 36.5749 52.2904 36.5754C52.2904 36.576 52.2904 36.5766 52.2904 36.5772C52.2904 36.5778 52.2904 36.5784 52.2904 36.579C52.2904 36.5796 52.2904 36.5801 52.2904 36.5807C52.2904 36.5813 52.2904 36.5819 52.2904 36.5825C52.2904 36.5831 52.2904 36.5837 52.2904 36.5842C52.2904 36.5848 52.2904 36.5854 52.2904 36.586C52.2904 36.5866 52.2904 36.5872 52.2904 36.5878C52.2904 36.5884 52.2904 36.5889 52.2904 36.5895C52.2904 36.5901 52.2904 36.5907 52.2904 36.5913C52.2904 36.5919 52.2904 36.5925 52.2904 36.593C52.2904 36.5936 52.2904 36.5942 52.2904 36.5948C52.2904 36.5954 52.2904 36.596 52.2904 36.5966C52.2904 36.5972 52.2904 36.5977 52.2904 36.5983C52.2904 36.5989 52.2904 36.5995 52.2904 36.6001C52.2904 36.6007 52.2904 36.6013 52.2904 36.6019C52.2904 36.6024 52.2904 36.603 52.2904 36.6036C52.2904 36.6042 52.2904 36.6048 52.2904 36.6054C52.2904 36.606 52.2904 36.6066 52.2904 36.6071C52.2904 36.6077 52.2904 36.6083 52.2904 36.6089C52.2904 36.6095 52.2904 36.6101 52.2904 36.6107C52.2904 36.6113 52.2904 36.6118 52.2904 36.6124C52.2904 36.613 52.2904 36.6136 52.2904 36.6142C52.2904 36.6148 52.2904 36.6154 52.2904 36.616C52.2904 36.6165 52.2904 36.6171 52.2904 36.6177C52.2904 36.6183 52.2904 36.6189 52.2904 36.6195C52.2904 36.6201 52.2904 36.6207 52.2904 36.6212C52.2904 36.6218 52.2904 36.6224 52.2904 36.623C52.2904 36.6236 52.2904 36.6242 52.2904 36.6248C52.2904 36.6254 52.2904 36.6259 52.2904 36.6265C52.2904 36.6271 52.2904 36.6277 52.2904 36.6283C52.2904 36.6289 52.2904 36.6295 52.2904 36.6301C52.2904 36.6307 52.2904 36.6312 52.2904 36.6318C52.2904 36.6324 52.2904 36.633 52.2904 36.6336C52.2904 36.6342 52.2904 36.6348 52.2904 36.6354C52.2904 36.6359 52.2904 36.6365 52.2904 36.6371C52.2904 36.6377 52.2904 36.6383 52.2904 36.6389C52.2904 36.6395 52.2904 36.6401 52.2904 36.6407C52.2904 36.6412 52.2904 36.6418 52.2904 36.6424C52.2904 36.643 52.2904 36.6436 52.2904 36.6442C52.2904 36.6448 52.2904 36.6454 52.2904 36.646C52.2904 36.6465 52.2904 36.6471 52.2904 36.6477C52.2904 36.6483 52.2904 36.6489 52.2904 36.6495C52.2904 36.6501 52.2904 36.6507 52.2904 36.6513C52.2904 36.6518 52.2904 36.6524 52.2904 36.653C52.2904 36.6536 52.2904 36.6542 52.2904 36.6548C52.2904 36.6554 52.2904 36.656 52.2904 36.6565C52.2904 36.6571 52.2904 36.6577 52.2904 36.6583C52.2904 36.6589 52.2904 36.6595 52.2904 36.6601C52.2904 36.6607 52.2904 36.6613 52.2904 36.6619C52.2904 36.6624 52.2904 36.663 52.2904 36.6636C52.2904 36.6642 52.2904 36.6648 52.2904 36.6654C52.2904 36.666 52.2904 36.6666 52.2904 36.6672C52.2904 36.6677 52.2904 36.6683 52.2904 36.6689C52.2904 36.6695 52.2904 36.6701 52.2904 36.6707C52.2904 36.6713 52.2904 36.6719 52.2904 36.6725C52.2904 36.673 52.2904 36.6736 52.2904 36.6742C52.2904 36.6748 52.2904 36.6754 52.2904 36.676C52.2904 36.6766 52.2904 36.6772 52.2904 36.6778C52.2904 36.6784 52.2904 36.6789 52.2904 36.6795C52.2904 36.6801 52.2904 36.6807 52.2904 36.6813C52.2904 36.6819 52.2904 36.6825 52.2904 36.6831C52.2904 36.6837 52.2904 36.6843 52.2904 36.6848C52.2904 36.6854 52.2904 36.686 52.2904 36.6866C52.2904 36.6872 52.2904 36.6878 52.2904 36.6884C52.2904 36.689 52.2904 36.6896 52.2904 36.6902C52.2904 36.6907 52.2904 36.6913 52.2904 36.6919C52.2904 36.6925 52.2904 36.6931 52.2904 36.6937C52.2904 36.6943 52.2904 36.6949 52.2904 36.6955C52.2904 36.6961 52.2904 36.6966 52.2904 36.6972C52.2904 36.6978 52.2904 36.6984 52.2904 36.699C52.2904 36.6996 52.2904 36.7002 52.2904 36.7008C52.2904 36.7014 52.2904 36.702 52.2904 36.7026C52.2904 36.7031 52.2904 36.7037 52.2904 36.7043C52.2904 36.7049 52.2904 36.7055 52.2904 36.7061C52.2904 36.7067 52.2904 36.7073 52.2904 36.7079C52.2904 36.7085 52.2904 36.709 52.2904 36.7096C52.2904 36.7102 52.2904 36.7108 52.2904 36.7114C52.2904 36.712 52.2904 36.7126 52.2904 36.7132C52.2904 36.7138 52.2904 36.7144 52.2904 36.715C52.2904 36.7155 52.2904 36.7161 52.2904 36.7167C52.2904 36.7173 52.2904 36.7179 52.2904 36.7185C52.2904 36.7191 52.2904 36.7197 52.2904 36.7203C52.2904 36.7209 52.2904 36.7215 52.2904 36.722C52.2904 36.7226 52.2904 36.7232 52.2904 36.7238C52.2904 36.7244 52.2904 36.725 52.2904 36.7256C52.2904 36.7262 52.2904 36.7268 52.2904 36.7274C52.2904 36.728 52.2904 36.7285 52.2904 36.7291C52.2904 36.7297 52.2904 36.7303 52.2904 36.7309C52.2904 36.7315 52.2904 36.7321 52.2904 36.7327C52.2904 36.7333 52.2904 36.7339 52.2904 36.7345C52.2904 36.7351 52.2904 36.7356 52.2904 36.7362C52.2904 36.7368 52.2904 36.7374 52.2904 36.738C52.2904 36.7386 52.2904 36.7392 52.2904 36.7398C52.2904 36.7404 52.2904 36.741 52.2904 36.7416C52.2904 36.7422 52.2904 36.7427 52.2904 36.7433C52.2904 36.7439 52.2904 36.7445 52.2904 36.7451C52.2904 36.7457 52.2904 36.7463 52.2904 36.7469C52.2904 36.7475 52.2904 36.7481 52.2904 36.7487C52.2904 36.7493 52.2904 36.7498 52.2904 36.7504C52.2904 36.751 52.2904 36.7516 52.2904 36.7522C52.2904 36.7528 52.2904 36.7534 52.2904 36.754C52.2904 36.7546 52.2904 36.7552 52.2904 36.7558C52.2904 36.7564 52.2904 36.757 52.2904 36.7575C52.2904 36.7581 52.2904 36.7587 52.2904 36.7593C52.2904 36.7599 52.2904 36.7605 52.2904 36.7611C52.2904 36.7617 52.2904 36.7623 52.2904 36.7629C52.2904 36.7635 52.2904 36.7641 52.2904 36.7647C52.2904 36.7652 52.2904 36.7658 52.2904 36.7664C52.2904 36.767 52.2904 36.7676 52.2904 36.7682C52.2904 36.7688 52.2904 36.7694 52.2904 36.77C52.2904 36.7706 52.2904 36.7712 52.2904 36.7718C52.2904 36.7724 52.2904 36.7729 52.2904 36.7735C52.2904 36.7741 52.2904 36.7747 52.2904 36.7753C52.2904 36.7759 52.2904 36.7765 52.2904 36.7771C52.2904 36.7777 52.2904 36.7783 52.2904 36.7789C52.2904 36.7795 52.2904 36.7801 52.2904 36.7807C52.2904 36.7812 52.2904 36.7818 52.2904 36.7824C52.2904 36.783 52.2904 36.7836 52.2904 36.7842C52.2904 36.7848 52.2904 36.7854 52.2904 36.786C52.2904 36.7866 52.2904 36.7872 52.2904 36.7878C52.2904 36.7884 52.2904 36.789 52.2904 36.7896C52.2904 36.7901 52.2904 36.7907 52.2904 36.7913C52.2904 36.7919 52.2904 36.7925 52.2904 36.7931C52.2904 36.7937 52.2904 36.7943 52.2904 36.7949C52.2904 36.7955 52.2904 36.7961 52.2904 36.7967C52.2904 36.7973 52.2904 36.7979 52.2904 36.7985C52.2904 36.799 52.2904 36.7996 52.2904 36.8002C52.2904 36.8008 52.2904 36.8014 52.2904 36.802C52.2904 36.8026 52.2904 36.8032 52.2904 36.8038C52.2904 36.8044 52.2904 36.805 52.2904 36.8056C52.2904 36.8062 52.2904 36.8068 52.2904 36.8074C52.2904 36.808 52.2904 36.8085 52.2904 36.8091C52.2904 36.8097 52.2904 36.8103 52.2904 36.8109C52.2904 36.8115 52.2904 36.8121 52.2904 36.8127C52.2904 36.8133 52.2904 36.8139 52.2904 36.8145C52.2904 36.8151 52.2904 36.8157 52.2904 36.8163C52.2904 36.8169 52.2904 36.8175 52.2904 36.8181C52.2904 36.8186 52.2904 36.8192 52.2904 36.8198C52.2904 36.8204 52.2904 36.821 52.2904 36.8216C52.2904 36.8222 52.2904 36.8228 52.2904 36.8234C52.2904 36.824 52.2904 36.8246 52.2904 36.8252C52.2904 36.8258 52.2904 36.8264 52.2904 36.827C52.2904 36.8276 52.2904 36.8282 52.2904 36.8287C52.2904 36.8293 52.2904 36.8299 52.2904 36.8305C52.2904 36.8311 52.2904 36.8317 52.2904 36.8323C52.2904 36.8329 52.2904 36.8335 52.2904 36.8341C52.2904 36.8347 52.2904 36.8353 52.2904 36.8359C52.2904 36.8365 52.2904 36.8371 52.2904 36.8377C52.2904 36.8383 52.2904 36.8389 52.2904 36.8395C52.2904 36.84 52.2904 36.8406 52.2904 36.8412C52.2904 36.8418 52.2904 36.8424 52.2904 36.843C52.2904 36.8436 52.2904 36.8442 52.2904 36.8448C52.2904 36.8454 52.2904 36.846 52.2904 36.8466C52.2904 36.8472 52.2904 36.8478 52.2904 36.8484C52.2904 36.849 52.2904 36.8496 52.2904 36.8502C52.2904 36.8508 52.2904 36.8514 52.2904 36.8519C52.2904 36.8525 52.2904 36.8531 52.2904 36.8537C52.2904 36.8543 52.2904 36.8549 52.2904 36.8555C52.2904 36.8561 52.2904 36.8567 52.2904 36.8573C52.2904 36.8579 52.2904 36.8585 52.2904 36.8591C52.2904 36.8597 52.2904 36.8603 52.2904 36.8609C52.2904 36.8615 52.2904 36.8621 52.2904 36.8627C52.2904 36.8633 52.2904 36.8639 52.2904 36.8645C52.2904 36.865 52.2904 36.8656 52.2904 36.8662C52.2904 36.8668 52.2904 36.8674 52.2904 36.868C52.2904 36.8686 52.2904 36.8692 52.2904 36.8698C52.2904 36.8704 52.2904 36.871 52.2904 36.8716C52.2904 36.8722 52.2904 36.8728 52.2904 36.8734C52.2904 36.874 52.2904 36.8746 52.2904 36.8752C52.2904 36.8758 52.2904 36.8764 52.2904 36.877C52.2904 36.8776 52.2904 36.8782 52.2904 36.8787C52.2904 36.8793 52.2904 36.8799 52.2904 36.8805C52.2904 36.8811 52.2904 36.8817 52.2904 36.8823C52.2904 36.8829 52.2904 36.8835 52.2904 36.8841C52.2904 36.8847 52.2904 36.8853 52.2904 36.8859C52.2904 36.8865 52.2904 36.8871 52.2904 36.8877C52.2904 36.8883 52.2904 36.8889 52.2904 36.8895C52.2904 36.8901 52.2904 36.8907 52.2904 36.8913C52.2904 36.8919 52.2904 36.8925 52.2904 36.8931C52.2904 36.8937 52.2904 36.8943 52.2904 36.8949C52.2904 36.8954 52.2904 36.896 52.2904 36.8966C52.2904 36.8972 52.2904 36.8978 52.2904 36.8984C52.2904 36.899 52.2904 36.8996 52.2904 36.9002C52.2904 36.9008 52.2904 36.9014 52.2904 36.902C52.2904 36.9026 52.2904 36.9032 52.2904 36.9038C52.2904 36.9044 52.2904 36.905 52.2904 36.9056C52.2904 36.9062 52.2904 36.9068 52.2904 36.9074C52.2904 36.908 52.2904 36.9086 52.2904 36.9092C52.2904 36.9098 52.2904 36.9104 52.2904 36.911C52.2904 36.9116 52.2904 36.9122 52.2904 36.9128C52.2904 36.9134 52.2904 36.9139 52.2904 36.9145C52.2904 36.9151 52.2904 36.9157 52.2904 36.9163C52.2904 36.9169 52.2904 36.9175 52.2904 36.9181C52.2904 36.9187 52.2904 36.9193 52.2904 36.9199C52.2904 36.9205 52.2904 36.9211 52.2904 36.9217C52.2904 36.9223 52.2904 36.9229 52.2904 36.9235C52.2904 36.9241 52.2904 36.9247 52.2904 36.9253C52.2904 36.9259 52.2904 36.9265 52.2904 36.9271C52.2904 36.9277 52.2904 36.9283 52.2904 36.9289C52.2904 36.9295 52.2904 36.9301 52.2904 36.9307C52.2904 36.9313 52.2904 36.9319 52.2904 36.9325C52.2904 36.9331 52.2904 36.9337 52.2904 36.9343C52.2904 36.9349 52.2904 36.9355 52.2904 36.9361C52.2904 36.9367 52.2904 36.9373 52.2904 36.9379C52.2904 36.9384 52.2904 36.939 52.2904 36.9396C52.2904 36.9402 52.2904 36.9408 52.2904 36.9414C52.2904 36.942 52.2904 36.9426 52.2904 36.9432C52.2904 36.9438 52.2904 36.9444 52.2904 36.945C52.2904 36.9456 52.2904 36.9462 52.2904 36.9468C52.2904 36.9474 52.2904 36.948 52.2904 36.9486C52.2904 36.9492 52.2904 36.9498 52.2904 36.9504C52.2904 36.951 52.2904 36.9516 52.2904 36.9522C52.2904 36.9528 52.2904 36.9534 52.2904 36.954C52.2904 36.9546 52.2904 36.9552 52.2904 36.9558C52.2904 36.9564 52.2904 36.957 52.2904 36.9576C52.2904 36.9582 52.2904 36.9588 52.2904 36.9594C52.2904 36.96 52.2904 36.9606 52.2904 36.9612C52.2904 36.9618 52.2904 36.9624 52.2904 36.963C52.2904 36.9636 52.2904 36.9642 52.2904 36.9648C52.2904 36.9654 52.2904 36.966 52.2904 36.9666C52.2904 36.9672 52.2904 36.9678 52.2904 36.9684C52.2904 36.969 52.2904 36.9696 52.2904 36.9702C52.2904 36.9708 52.2904 36.9714 52.2904 36.972C52.2904 36.9726 52.2904 36.9732 52.2904 36.9738C52.2904 36.9744 52.2904 36.975 52.2904 36.9756C52.2904 36.9762 52.2904 36.9768 52.2904 36.9774C52.2904 36.978 52.2904 36.9786 52.2904 36.9792C52.2904 36.9798 52.2904 36.9804 52.2904 36.981C52.2904 36.9816 52.2904 36.9821 52.2904 36.9827C52.2904 36.9833 52.2904 36.9839 52.2904 36.9845C52.2904 36.9851 52.2904 36.9857 52.2904 36.9863C52.2904 36.9869 52.2904 36.9875 52.2904 36.9881C52.2904 36.9887 52.2904 36.9893 52.2904 36.9899C52.2904 36.9905 52.2904 36.9911 52.2904 36.9917C52.2904 36.9923 52.2904 36.9929 52.2904 36.9935C52.2904 36.9941 52.2904 36.9947 52.2904 36.9953C52.2904 36.9959 52.2904 36.9965 52.2904 36.9971C52.2904 36.9977 52.2904 36.9983 52.2904 36.9989C52.2904 36.9995 52.2904 37.0001 52.2904 37.0007C52.2904 37.0013 52.2904 37.0019 52.2904 37.0025C52.2904 37.0031 52.2904 37.0037 52.2904 37.0043C52.2904 37.0049 52.2904 37.0055 52.2904 37.0061C52.2904 37.0067 52.2904 37.0073 52.2904 37.0079C52.2904 37.0085 52.2904 37.0091 52.2904 37.0097C52.2904 37.0103 52.2904 37.0109 52.2904 37.0115C52.2904 37.0121 52.2904 37.0127 52.2904 37.0133C52.2904 37.0139 52.2904 37.0145 52.2904 37.0151C52.2904 37.0157 52.2904 37.0163 52.2904 37.0169C52.2904 37.0175 52.2904 37.0181 52.2904 37.0187C52.2904 37.0193 52.2904 37.0199 52.2904 37.0205C52.2904 37.0211 52.2904 37.0217 52.2904 37.0223C52.2904 37.0229 52.2904 37.0235 52.2904 37.0241C52.2904 37.0247 52.2904 37.0253 52.2904 37.0259C52.2904 37.0265 52.2904 37.0271 52.2904 37.0278C52.2904 37.0284 52.2904 37.029 52.2904 37.0296C52.2904 37.0302 52.2904 37.0308 52.2904 37.0314C52.2904 37.032 52.2904 37.0326 52.2904 37.0332C52.2904 37.0338 52.2904 37.0344 52.2904 37.035C52.2904 37.0356 52.2904 37.0362 52.2904 37.0368C52.2904 37.0374 52.2904 37.038 52.2904 37.0386C52.2904 37.0392 52.2904 37.0398 52.2904 37.0404C52.2904 37.041 52.2904 37.0416 52.2904 37.0422C52.2904 37.0428 52.2904 37.0434 52.2904 37.044C52.2904 37.0446 52.2904 37.0452 52.2904 37.0458C52.2904 37.0464 52.2904 37.047 52.2904 37.0476C52.2904 37.0482 52.2904 37.0488 52.2904 37.0494C52.2904 37.05 52.2904 37.0506 52.2904 37.0512C52.2904 37.0518 52.2904 37.0524 52.2904 37.053C52.2904 37.0536 52.2904 37.0542 52.2904 37.0548C52.2904 37.0554 52.2904 37.056 52.2904 37.0566C52.2904 37.0572 52.2904 37.0578 52.2904 37.0584C52.2904 37.059 52.2904 37.0596 52.2904 37.0602C52.2904 37.0608 52.2904 37.0614 52.2904 37.062C52.2904 37.0626 52.2904 37.0632 52.2904 37.0638C52.2904 37.0644 52.2904 37.065 52.2904 37.0656C52.2904 37.0662 52.2904 37.0668 52.2904 37.0674C52.2904 37.068 52.2904 37.0686 52.2904 37.0692C52.2904 37.0698 52.2904 37.0704 52.2904 37.0711C52.2904 37.0717 52.2904 37.0723 52.2904 37.0729C52.2904 37.0735 52.2904 37.0741 52.2904 37.0747C52.2904 37.0753 52.2904 37.0759 52.2904 37.0765C52.2904 37.0771 52.2904 37.0777 52.2904 37.0783C52.2904 37.0789 52.2904 37.0795 52.2904 37.0801C52.2904 37.0807 52.2904 37.0813 52.2904 37.0819C52.2904 37.0825 52.2904 37.0831 52.2904 37.0837C52.2904 37.0843 52.2904 37.0849 52.2904 37.0855C52.2904 37.0861 52.2904 37.0867 52.2904 37.0873C52.2904 37.0879 52.2904 37.0885 52.2904 37.0891C52.2904 37.0897 52.2904 37.0903 52.2904 37.0909C52.2904 37.0915 52.2904 37.0921 52.2904 37.0927C52.2904 37.0933 52.2904 37.0939 52.2904 37.0945C52.2904 37.0951 52.2904 37.0958 52.2904 37.0964C52.2904 37.097 52.2904 37.0976 52.2904 37.0982C52.2904 37.0988 52.2904 37.0994 52.2904 37.1C52.2904 37.1006 52.2904 37.1012 52.2904 37.1018C52.2904 37.1024 52.2904 37.103 52.2904 37.1036C52.2904 37.1042 52.2904 37.1048 52.2904 37.1054C52.2904 37.106 52.2904 37.1066 52.2904 37.1072C52.2904 37.1078 52.2904 37.1084 52.2904 37.109C52.2904 37.1096 52.2904 37.1102 52.2904 37.1108C52.2904 37.1114 52.2904 37.112 52.2904 37.1126C52.2904 37.1132 52.2904 37.1138 52.2904 37.1145C52.2904 37.1151 52.2904 37.1157 52.2904 37.1163C52.2904 37.1169 52.2904 37.1175 52.2904 37.1181C52.2904 37.1187 52.2904 37.1193 52.2904 37.1199C52.2904 37.1205 52.2904 37.1211 52.2904 37.1217C52.2904 37.1223 52.2904 37.1229 52.2904 37.1235C52.2904 37.1241 52.2904 37.1247 52.2904 37.1253C52.2904 37.1259 52.2904 37.1265 52.2904 37.1271C52.2904 37.1277 52.2904 37.1283 52.2904 37.1289C52.2904 37.1295 52.2904 37.1301 52.2904 37.1308C52.2904 37.1314 52.2904 37.132 52.2904 37.1326C52.2904 37.1332 52.2904 37.1338 52.2904 37.1344C52.2904 37.135 52.2904 37.1356 52.2904 37.1362C52.2904 37.1368 52.2904 37.1374 52.2904 37.138C52.2904 37.1386 52.2904 37.1392 52.2904 37.1398C52.2904 37.1404 52.2904 37.141 52.2904 37.1416C52.2904 37.1422 52.2904 37.1428 52.2904 37.1434C52.2904 37.144 52.2904 37.1446 52.2904 37.1453C52.2904 37.1459 52.2904 37.1465 52.2904 37.1471C52.2904 37.1477 52.2904 37.1483 52.2904 37.1489C52.2904 37.1495 52.2904 37.1501 52.2904 37.1507C52.2904 37.1513 52.2904 37.1519 52.2904 37.1525C52.2904 37.1531 52.2904 37.1537 52.2904 37.1543C52.2904 37.1549 52.2904 37.1555 52.2904 37.1561C52.2904 37.1567 52.2904 37.1573 52.2904 37.1579C52.2904 37.1586 52.2904 37.1592 52.2904 37.1598C52.2904 37.1604 52.2904 37.161 52.2904 37.1616C52.2904 37.1622 52.2904 37.1628 52.2904 37.1634C52.2904 37.164 52.2904 37.1646 52.2904 37.1652C52.2904 37.1658 52.2904 37.1664 52.2904 37.167C52.2904 37.1676 52.2904 37.1682 52.2904 37.1688C52.2904 37.1694 52.2904 37.17 52.2904 37.1707C52.2904 37.1713 52.2904 37.1719 52.2904 37.1725C52.2904 37.1731 52.2904 37.1737 52.2904 37.1743C52.2904 37.1749 52.2904 37.1755 52.2904 37.1761C52.2904 37.1767 52.2904 37.1773 52.2904 37.1779C52.2904 37.1785 52.2904 37.1791 52.2904 37.1797C52.2904 37.1803 52.2904 37.1809 52.2904 37.1815C52.2904 37.1822 52.2904 37.1828 52.2904 37.1834C52.2904 37.184 52.2904 37.1846 52.2904 37.1852C52.2904 37.1858 52.2904 37.1864 52.2904 37.187C52.2904 37.1876 52.2904 37.1882 52.2904 37.1888C52.2904 37.1894 52.2904 37.19 52.2904 37.1906C52.2904 37.1912 52.2904 37.1918 52.2904 37.1925C52.2904 37.1931 52.2904 37.1937 52.2904 37.1943H54.2904C54.2904 37.1937 54.2904 37.1931 54.2904 37.1925C54.2904 37.1918 54.2904 37.1912 54.2904 37.1906C54.2904 37.19 54.2904 37.1894 54.2904 37.1888C54.2904 37.1882 54.2904 37.1876 54.2904 37.187C54.2904 37.1864 54.2904 37.1858 54.2904 37.1852C54.2904 37.1846 54.2904 37.184 54.2904 37.1834C54.2904 37.1828 54.2904 37.1822 54.2904 37.1815C54.2904 37.1809 54.2904 37.1803 54.2904 37.1797C54.2904 37.1791 54.2904 37.1785 54.2904 37.1779C54.2904 37.1773 54.2904 37.1767 54.2904 37.1761C54.2904 37.1755 54.2904 37.1749 54.2904 37.1743C54.2904 37.1737 54.2904 37.1731 54.2904 37.1725C54.2904 37.1719 54.2904 37.1713 54.2904 37.1707C54.2904 37.17 54.2904 37.1694 54.2904 37.1688C54.2904 37.1682 54.2904 37.1676 54.2904 37.167C54.2904 37.1664 54.2904 37.1658 54.2904 37.1652C54.2904 37.1646 54.2904 37.164 54.2904 37.1634C54.2904 37.1628 54.2904 37.1622 54.2904 37.1616C54.2904 37.161 54.2904 37.1604 54.2904 37.1598C54.2904 37.1592 54.2904 37.1586 54.2904 37.1579C54.2904 37.1573 54.2904 37.1567 54.2904 37.1561C54.2904 37.1555 54.2904 37.1549 54.2904 37.1543C54.2904 37.1537 54.2904 37.1531 54.2904 37.1525C54.2904 37.1519 54.2904 37.1513 54.2904 37.1507C54.2904 37.1501 54.2904 37.1495 54.2904 37.1489C54.2904 37.1483 54.2904 37.1477 54.2904 37.1471C54.2904 37.1465 54.2904 37.1459 54.2904 37.1453C54.2904 37.1446 54.2904 37.144 54.2904 37.1434C54.2904 37.1428 54.2904 37.1422 54.2904 37.1416C54.2904 37.141 54.2904 37.1404 54.2904 37.1398C54.2904 37.1392 54.2904 37.1386 54.2904 37.138C54.2904 37.1374 54.2904 37.1368 54.2904 37.1362C54.2904 37.1356 54.2904 37.135 54.2904 37.1344C54.2904 37.1338 54.2904 37.1332 54.2904 37.1326C54.2904 37.132 54.2904 37.1314 54.2904 37.1308C54.2904 37.1301 54.2904 37.1295 54.2904 37.1289C54.2904 37.1283 54.2904 37.1277 54.2904 37.1271C54.2904 37.1265 54.2904 37.1259 54.2904 37.1253C54.2904 37.1247 54.2904 37.1241 54.2904 37.1235C54.2904 37.1229 54.2904 37.1223 54.2904 37.1217C54.2904 37.1211 54.2904 37.1205 54.2904 37.1199C54.2904 37.1193 54.2904 37.1187 54.2904 37.1181C54.2904 37.1175 54.2904 37.1169 54.2904 37.1163C54.2904 37.1157 54.2904 37.1151 54.2904 37.1145C54.2904 37.1138 54.2904 37.1132 54.2904 37.1126C54.2904 37.112 54.2904 37.1114 54.2904 37.1108C54.2904 37.1102 54.2904 37.1096 54.2904 37.109C54.2904 37.1084 54.2904 37.1078 54.2904 37.1072C54.2904 37.1066 54.2904 37.106 54.2904 37.1054C54.2904 37.1048 54.2904 37.1042 54.2904 37.1036C54.2904 37.103 54.2904 37.1024 54.2904 37.1018C54.2904 37.1012 54.2904 37.1006 54.2904 37.1C54.2904 37.0994 54.2904 37.0988 54.2904 37.0982C54.2904 37.0976 54.2904 37.097 54.2904 37.0964C54.2904 37.0958 54.2904 37.0951 54.2904 37.0945C54.2904 37.0939 54.2904 37.0933 54.2904 37.0927C54.2904 37.0921 54.2904 37.0915 54.2904 37.0909C54.2904 37.0903 54.2904 37.0897 54.2904 37.0891C54.2904 37.0885 54.2904 37.0879 54.2904 37.0873C54.2904 37.0867 54.2904 37.0861 54.2904 37.0855C54.2904 37.0849 54.2904 37.0843 54.2904 37.0837C54.2904 37.0831 54.2904 37.0825 54.2904 37.0819C54.2904 37.0813 54.2904 37.0807 54.2904 37.0801C54.2904 37.0795 54.2904 37.0789 54.2904 37.0783C54.2904 37.0777 54.2904 37.0771 54.2904 37.0765C54.2904 37.0759 54.2904 37.0753 54.2904 37.0747C54.2904 37.0741 54.2904 37.0735 54.2904 37.0729C54.2904 37.0723 54.2904 37.0717 54.2904 37.0711C54.2904 37.0704 54.2904 37.0698 54.2904 37.0692C54.2904 37.0686 54.2904 37.068 54.2904 37.0674C54.2904 37.0668 54.2904 37.0662 54.2904 37.0656C54.2904 37.065 54.2904 37.0644 54.2904 37.0638C54.2904 37.0632 54.2904 37.0626 54.2904 37.062C54.2904 37.0614 54.2904 37.0608 54.2904 37.0602C54.2904 37.0596 54.2904 37.059 54.2904 37.0584C54.2904 37.0578 54.2904 37.0572 54.2904 37.0566C54.2904 37.056 54.2904 37.0554 54.2904 37.0548C54.2904 37.0542 54.2904 37.0536 54.2904 37.053C54.2904 37.0524 54.2904 37.0518 54.2904 37.0512C54.2904 37.0506 54.2904 37.05 54.2904 37.0494C54.2904 37.0488 54.2904 37.0482 54.2904 37.0476C54.2904 37.047 54.2904 37.0464 54.2904 37.0458C54.2904 37.0452 54.2904 37.0446 54.2904 37.044C54.2904 37.0434 54.2904 37.0428 54.2904 37.0422C54.2904 37.0416 54.2904 37.041 54.2904 37.0404C54.2904 37.0398 54.2904 37.0392 54.2904 37.0386C54.2904 37.038 54.2904 37.0374 54.2904 37.0368C54.2904 37.0362 54.2904 37.0356 54.2904 37.035C54.2904 37.0344 54.2904 37.0338 54.2904 37.0332C54.2904 37.0326 54.2904 37.032 54.2904 37.0314C54.2904 37.0308 54.2904 37.0302 54.2904 37.0296C54.2904 37.029 54.2904 37.0284 54.2904 37.0278C54.2904 37.0271 54.2904 37.0265 54.2904 37.0259C54.2904 37.0253 54.2904 37.0247 54.2904 37.0241C54.2904 37.0235 54.2904 37.0229 54.2904 37.0223C54.2904 37.0217 54.2904 37.0211 54.2904 37.0205C54.2904 37.0199 54.2904 37.0193 54.2904 37.0187C54.2904 37.0181 54.2904 37.0175 54.2904 37.0169C54.2904 37.0163 54.2904 37.0157 54.2904 37.0151C54.2904 37.0145 54.2904 37.0139 54.2904 37.0133C54.2904 37.0127 54.2904 37.0121 54.2904 37.0115C54.2904 37.0109 54.2904 37.0103 54.2904 37.0097C54.2904 37.0091 54.2904 37.0085 54.2904 37.0079C54.2904 37.0073 54.2904 37.0067 54.2904 37.0061C54.2904 37.0055 54.2904 37.0049 54.2904 37.0043C54.2904 37.0037 54.2904 37.0031 54.2904 37.0025C54.2904 37.0019 54.2904 37.0013 54.2904 37.0007C54.2904 37.0001 54.2904 36.9995 54.2904 36.9989C54.2904 36.9983 54.2904 36.9977 54.2904 36.9971C54.2904 36.9965 54.2904 36.9959 54.2904 36.9953C54.2904 36.9947 54.2904 36.9941 54.2904 36.9935C54.2904 36.9929 54.2904 36.9923 54.2904 36.9917C54.2904 36.9911 54.2904 36.9905 54.2904 36.9899C54.2904 36.9893 54.2904 36.9887 54.2904 36.9881C54.2904 36.9875 54.2904 36.9869 54.2904 36.9863C54.2904 36.9857 54.2904 36.9851 54.2904 36.9845C54.2904 36.9839 54.2904 36.9833 54.2904 36.9827C54.2904 36.9821 54.2904 36.9816 54.2904 36.981C54.2904 36.9804 54.2904 36.9798 54.2904 36.9792C54.2904 36.9786 54.2904 36.978 54.2904 36.9774C54.2904 36.9768 54.2904 36.9762 54.2904 36.9756C54.2904 36.975 54.2904 36.9744 54.2904 36.9738C54.2904 36.9732 54.2904 36.9726 54.2904 36.972C54.2904 36.9714 54.2904 36.9708 54.2904 36.9702C54.2904 36.9696 54.2904 36.969 54.2904 36.9684C54.2904 36.9678 54.2904 36.9672 54.2904 36.9666C54.2904 36.966 54.2904 36.9654 54.2904 36.9648C54.2904 36.9642 54.2904 36.9636 54.2904 36.963C54.2904 36.9624 54.2904 36.9618 54.2904 36.9612C54.2904 36.9606 54.2904 36.96 54.2904 36.9594C54.2904 36.9588 54.2904 36.9582 54.2904 36.9576C54.2904 36.957 54.2904 36.9564 54.2904 36.9558C54.2904 36.9552 54.2904 36.9546 54.2904 36.954C54.2904 36.9534 54.2904 36.9528 54.2904 36.9522C54.2904 36.9516 54.2904 36.951 54.2904 36.9504C54.2904 36.9498 54.2904 36.9492 54.2904 36.9486C54.2904 36.948 54.2904 36.9474 54.2904 36.9468C54.2904 36.9462 54.2904 36.9456 54.2904 36.945C54.2904 36.9444 54.2904 36.9438 54.2904 36.9432C54.2904 36.9426 54.2904 36.942 54.2904 36.9414C54.2904 36.9408 54.2904 36.9402 54.2904 36.9396C54.2904 36.939 54.2904 36.9384 54.2904 36.9379C54.2904 36.9373 54.2904 36.9367 54.2904 36.9361C54.2904 36.9355 54.2904 36.9349 54.2904 36.9343C54.2904 36.9337 54.2904 36.9331 54.2904 36.9325C54.2904 36.9319 54.2904 36.9313 54.2904 36.9307C54.2904 36.9301 54.2904 36.9295 54.2904 36.9289C54.2904 36.9283 54.2904 36.9277 54.2904 36.9271C54.2904 36.9265 54.2904 36.9259 54.2904 36.9253C54.2904 36.9247 54.2904 36.9241 54.2904 36.9235C54.2904 36.9229 54.2904 36.9223 54.2904 36.9217C54.2904 36.9211 54.2904 36.9205 54.2904 36.9199C54.2904 36.9193 54.2904 36.9187 54.2904 36.9181C54.2904 36.9175 54.2904 36.9169 54.2904 36.9163C54.2904 36.9157 54.2904 36.9151 54.2904 36.9145C54.2904 36.9139 54.2904 36.9134 54.2904 36.9128C54.2904 36.9122 54.2904 36.9116 54.2904 36.911C54.2904 36.9104 54.2904 36.9098 54.2904 36.9092C54.2904 36.9086 54.2904 36.908 54.2904 36.9074C54.2904 36.9068 54.2904 36.9062 54.2904 36.9056C54.2904 36.905 54.2904 36.9044 54.2904 36.9038C54.2904 36.9032 54.2904 36.9026 54.2904 36.902C54.2904 36.9014 54.2904 36.9008 54.2904 36.9002C54.2904 36.8996 54.2904 36.899 54.2904 36.8984C54.2904 36.8978 54.2904 36.8972 54.2904 36.8966C54.2904 36.896 54.2904 36.8954 54.2904 36.8949C54.2904 36.8943 54.2904 36.8937 54.2904 36.8931C54.2904 36.8925 54.2904 36.8919 54.2904 36.8913C54.2904 36.8907 54.2904 36.8901 54.2904 36.8895C54.2904 36.8889 54.2904 36.8883 54.2904 36.8877C54.2904 36.8871 54.2904 36.8865 54.2904 36.8859C54.2904 36.8853 54.2904 36.8847 54.2904 36.8841C54.2904 36.8835 54.2904 36.8829 54.2904 36.8823C54.2904 36.8817 54.2904 36.8811 54.2904 36.8805C54.2904 36.8799 54.2904 36.8793 54.2904 36.8787C54.2904 36.8782 54.2904 36.8776 54.2904 36.877C54.2904 36.8764 54.2904 36.8758 54.2904 36.8752C54.2904 36.8746 54.2904 36.874 54.2904 36.8734C54.2904 36.8728 54.2904 36.8722 54.2904 36.8716C54.2904 36.871 54.2904 36.8704 54.2904 36.8698C54.2904 36.8692 54.2904 36.8686 54.2904 36.868C54.2904 36.8674 54.2904 36.8668 54.2904 36.8662C54.2904 36.8656 54.2904 36.865 54.2904 36.8645C54.2904 36.8639 54.2904 36.8633 54.2904 36.8627C54.2904 36.8621 54.2904 36.8615 54.2904 36.8609C54.2904 36.8603 54.2904 36.8597 54.2904 36.8591C54.2904 36.8585 54.2904 36.8579 54.2904 36.8573C54.2904 36.8567 54.2904 36.8561 54.2904 36.8555C54.2904 36.8549 54.2904 36.8543 54.2904 36.8537C54.2904 36.8531 54.2904 36.8525 54.2904 36.8519C54.2904 36.8514 54.2904 36.8508 54.2904 36.8502C54.2904 36.8496 54.2904 36.849 54.2904 36.8484C54.2904 36.8478 54.2904 36.8472 54.2904 36.8466C54.2904 36.846 54.2904 36.8454 54.2904 36.8448C54.2904 36.8442 54.2904 36.8436 54.2904 36.843C54.2904 36.8424 54.2904 36.8418 54.2904 36.8412C54.2904 36.8406 54.2904 36.84 54.2904 36.8395C54.2904 36.8389 54.2904 36.8383 54.2904 36.8377C54.2904 36.8371 54.2904 36.8365 54.2904 36.8359C54.2904 36.8353 54.2904 36.8347 54.2904 36.8341C54.2904 36.8335 54.2904 36.8329 54.2904 36.8323C54.2904 36.8317 54.2904 36.8311 54.2904 36.8305C54.2904 36.8299 54.2904 36.8293 54.2904 36.8287C54.2904 36.8282 54.2904 36.8276 54.2904 36.827C54.2904 36.8264 54.2904 36.8258 54.2904 36.8252C54.2904 36.8246 54.2904 36.824 54.2904 36.8234C54.2904 36.8228 54.2904 36.8222 54.2904 36.8216C54.2904 36.821 54.2904 36.8204 54.2904 36.8198C54.2904 36.8192 54.2904 36.8186 54.2904 36.8181C54.2904 36.8175 54.2904 36.8169 54.2904 36.8163C54.2904 36.8157 54.2904 36.8151 54.2904 36.8145C54.2904 36.8139 54.2904 36.8133 54.2904 36.8127C54.2904 36.8121 54.2904 36.8115 54.2904 36.8109C54.2904 36.8103 54.2904 36.8097 54.2904 36.8091C54.2904 36.8085 54.2904 36.808 54.2904 36.8074C54.2904 36.8068 54.2904 36.8062 54.2904 36.8056C54.2904 36.805 54.2904 36.8044 54.2904 36.8038C54.2904 36.8032 54.2904 36.8026 54.2904 36.802C54.2904 36.8014 54.2904 36.8008 54.2904 36.8002C54.2904 36.7996 54.2904 36.799 54.2904 36.7985C54.2904 36.7979 54.2904 36.7973 54.2904 36.7967C54.2904 36.7961 54.2904 36.7955 54.2904 36.7949C54.2904 36.7943 54.2904 36.7937 54.2904 36.7931C54.2904 36.7925 54.2904 36.7919 54.2904 36.7913C54.2904 36.7907 54.2904 36.7901 54.2904 36.7896C54.2904 36.789 54.2904 36.7884 54.2904 36.7878C54.2904 36.7872 54.2904 36.7866 54.2904 36.786C54.2904 36.7854 54.2904 36.7848 54.2904 36.7842C54.2904 36.7836 54.2904 36.783 54.2904 36.7824C54.2904 36.7818 54.2904 36.7812 54.2904 36.7807C54.2904 36.7801 54.2904 36.7795 54.2904 36.7789C54.2904 36.7783 54.2904 36.7777 54.2904 36.7771C54.2904 36.7765 54.2904 36.7759 54.2904 36.7753C54.2904 36.7747 54.2904 36.7741 54.2904 36.7735C54.2904 36.7729 54.2904 36.7724 54.2904 36.7718C54.2904 36.7712 54.2904 36.7706 54.2904 36.77C54.2904 36.7694 54.2904 36.7688 54.2904 36.7682C54.2904 36.7676 54.2904 36.767 54.2904 36.7664C54.2904 36.7658 54.2904 36.7652 54.2904 36.7647C54.2904 36.7641 54.2904 36.7635 54.2904 36.7629C54.2904 36.7623 54.2904 36.7617 54.2904 36.7611C54.2904 36.7605 54.2904 36.7599 54.2904 36.7593C54.2904 36.7587 54.2904 36.7581 54.2904 36.7575C54.2904 36.757 54.2904 36.7564 54.2904 36.7558C54.2904 36.7552 54.2904 36.7546 54.2904 36.754C54.2904 36.7534 54.2904 36.7528 54.2904 36.7522C54.2904 36.7516 54.2904 36.751 54.2904 36.7504C54.2904 36.7498 54.2904 36.7493 54.2904 36.7487C54.2904 36.7481 54.2904 36.7475 54.2904 36.7469C54.2904 36.7463 54.2904 36.7457 54.2904 36.7451C54.2904 36.7445 54.2904 36.7439 54.2904 36.7433C54.2904 36.7427 54.2904 36.7422 54.2904 36.7416C54.2904 36.741 54.2904 36.7404 54.2904 36.7398C54.2904 36.7392 54.2904 36.7386 54.2904 36.738C54.2904 36.7374 54.2904 36.7368 54.2904 36.7362C54.2904 36.7356 54.2904 36.7351 54.2904 36.7345C54.2904 36.7339 54.2904 36.7333 54.2904 36.7327C54.2904 36.7321 54.2904 36.7315 54.2904 36.7309C54.2904 36.7303 54.2904 36.7297 54.2904 36.7291C54.2904 36.7285 54.2904 36.728 54.2904 36.7274C54.2904 36.7268 54.2904 36.7262 54.2904 36.7256C54.2904 36.725 54.2904 36.7244 54.2904 36.7238C54.2904 36.7232 54.2904 36.7226 54.2904 36.722C54.2904 36.7215 54.2904 36.7209 54.2904 36.7203C54.2904 36.7197 54.2904 36.7191 54.2904 36.7185C54.2904 36.7179 54.2904 36.7173 54.2904 36.7167C54.2904 36.7161 54.2904 36.7155 54.2904 36.715C54.2904 36.7144 54.2904 36.7138 54.2904 36.7132C54.2904 36.7126 54.2904 36.712 54.2904 36.7114C54.2904 36.7108 54.2904 36.7102 54.2904 36.7096C54.2904 36.709 54.2904 36.7085 54.2904 36.7079C54.2904 36.7073 54.2904 36.7067 54.2904 36.7061C54.2904 36.7055 54.2904 36.7049 54.2904 36.7043C54.2904 36.7037 54.2904 36.7031 54.2904 36.7026C54.2904 36.702 54.2904 36.7014 54.2904 36.7008C54.2904 36.7002 54.2904 36.6996 54.2904 36.699C54.2904 36.6984 54.2904 36.6978 54.2904 36.6972C54.2904 36.6966 54.2904 36.6961 54.2904 36.6955C54.2904 36.6949 54.2904 36.6943 54.2904 36.6937C54.2904 36.6931 54.2904 36.6925 54.2904 36.6919C54.2904 36.6913 54.2904 36.6907 54.2904 36.6902C54.2904 36.6896 54.2904 36.689 54.2904 36.6884C54.2904 36.6878 54.2904 36.6872 54.2904 36.6866C54.2904 36.686 54.2904 36.6854 54.2904 36.6848C54.2904 36.6843 54.2904 36.6837 54.2904 36.6831C54.2904 36.6825 54.2904 36.6819 54.2904 36.6813C54.2904 36.6807 54.2904 36.6801 54.2904 36.6795C54.2904 36.6789 54.2904 36.6784 54.2904 36.6778C54.2904 36.6772 54.2904 36.6766 54.2904 36.676C54.2904 36.6754 54.2904 36.6748 54.2904 36.6742C54.2904 36.6736 54.2904 36.673 54.2904 36.6725C54.2904 36.6719 54.2904 36.6713 54.2904 36.6707C54.2904 36.6701 54.2904 36.6695 54.2904 36.6689C54.2904 36.6683 54.2904 36.6677 54.2904 36.6672C54.2904 36.6666 54.2904 36.666 54.2904 36.6654C54.2904 36.6648 54.2904 36.6642 54.2904 36.6636C54.2904 36.663 54.2904 36.6624 54.2904 36.6619C54.2904 36.6613 54.2904 36.6607 54.2904 36.6601C54.2904 36.6595 54.2904 36.6589 54.2904 36.6583C54.2904 36.6577 54.2904 36.6571 54.2904 36.6565C54.2904 36.656 54.2904 36.6554 54.2904 36.6548C54.2904 36.6542 54.2904 36.6536 54.2904 36.653C54.2904 36.6524 54.2904 36.6518 54.2904 36.6513C54.2904 36.6507 54.2904 36.6501 54.2904 36.6495C54.2904 36.6489 54.2904 36.6483 54.2904 36.6477C54.2904 36.6471 54.2904 36.6465 54.2904 36.646C54.2904 36.6454 54.2904 36.6448 54.2904 36.6442C54.2904 36.6436 54.2904 36.643 54.2904 36.6424C54.2904 36.6418 54.2904 36.6412 54.2904 36.6407C54.2904 36.6401 54.2904 36.6395 54.2904 36.6389C54.2904 36.6383 54.2904 36.6377 54.2904 36.6371C54.2904 36.6365 54.2904 36.6359 54.2904 36.6354C54.2904 36.6348 54.2904 36.6342 54.2904 36.6336C54.2904 36.633 54.2904 36.6324 54.2904 36.6318C54.2904 36.6312 54.2904 36.6307 54.2904 36.6301C54.2904 36.6295 54.2904 36.6289 54.2904 36.6283C54.2904 36.6277 54.2904 36.6271 54.2904 36.6265C54.2904 36.6259 54.2904 36.6254 54.2904 36.6248C54.2904 36.6242 54.2904 36.6236 54.2904 36.623C54.2904 36.6224 54.2904 36.6218 54.2904 36.6212C54.2904 36.6207 54.2904 36.6201 54.2904 36.6195C54.2904 36.6189 54.2904 36.6183 54.2904 36.6177C54.2904 36.6171 54.2904 36.6165 54.2904 36.616C54.2904 36.6154 54.2904 36.6148 54.2904 36.6142C54.2904 36.6136 54.2904 36.613 54.2904 36.6124C54.2904 36.6118 54.2904 36.6113 54.2904 36.6107C54.2904 36.6101 54.2904 36.6095 54.2904 36.6089C54.2904 36.6083 54.2904 36.6077 54.2904 36.6071C54.2904 36.6066 54.2904 36.606 54.2904 36.6054C54.2904 36.6048 54.2904 36.6042 54.2904 36.6036C54.2904 36.603 54.2904 36.6024 54.2904 36.6019C54.2904 36.6013 54.2904 36.6007 54.2904 36.6001C54.2904 36.5995 54.2904 36.5989 54.2904 36.5983C54.2904 36.5977 54.2904 36.5972 54.2904 36.5966C54.2904 36.596 54.2904 36.5954 54.2904 36.5948C54.2904 36.5942 54.2904 36.5936 54.2904 36.593C54.2904 36.5925 54.2904 36.5919 54.2904 36.5913C54.2904 36.5907 54.2904 36.5901 54.2904 36.5895C54.2904 36.5889 54.2904 36.5884 54.2904 36.5878C54.2904 36.5872 54.2904 36.5866 54.2904 36.586C54.2904 36.5854 54.2904 36.5848 54.2904 36.5842C54.2904 36.5837 54.2904 36.5831 54.2904 36.5825C54.2904 36.5819 54.2904 36.5813 54.2904 36.5807C54.2904 36.5801 54.2904 36.5796 54.2904 36.579C54.2904 36.5784 54.2904 36.5778 54.2904 36.5772C54.2904 36.5766 54.2904 36.576 54.2904 36.5754C54.2904 36.5749 54.2904 36.5743 54.2904 36.5737C54.2904 36.5731 54.2904 36.5725 54.2904 36.5719C54.2904 36.5713 54.2904 36.5708 54.2904 36.5702C54.2904 36.5696 54.2904 36.569 54.2904 36.5684C54.2904 36.5678 54.2904 36.5672 54.2904 36.5667C54.2904 36.5661 54.2904 36.5655 54.2904 36.5649C54.2904 36.5643 54.2904 36.5637 54.2904 36.5631C54.2904 36.5625 54.2904 36.562 54.2904 36.5614C54.2904 36.5608 54.2904 36.5602 54.2904 36.5596C54.2904 36.559 54.2904 36.5584 54.2904 36.5579C54.2904 36.5573 54.2904 36.5567 54.2904 36.5561C54.2904 36.5555 54.2904 36.5549 54.2904 36.5543C54.2904 36.5538 54.2904 36.5532 54.2904 36.5526C54.2904 36.552 54.2904 36.5514 54.2904 36.5508C54.2904 36.5502 54.2904 36.5497 54.2904 36.5491C54.2904 36.5485 54.2904 36.5479 54.2904 36.5473C54.2904 36.5467 54.2904 36.5461 54.2904 36.5456C54.2904 36.545 54.2904 36.5444 54.2904 36.5438C54.2904 36.5432 54.2904 36.5426 54.2904 36.542C54.2904 36.5415 54.2904 36.5409 54.2904 36.5403C54.2904 36.5397 54.2904 36.5391 54.2904 36.5385C54.2904 36.538 54.2904 36.5374 54.2904 36.5368C54.2904 36.5362 54.2904 36.5356 54.2904 36.535C54.2904 36.5344 54.2904 36.5339 54.2904 36.5333C54.2904 36.5327 54.2904 36.5321 54.2904 36.5315C54.2904 36.5309 54.2904 36.5303 54.2904 36.5298C54.2904 36.5292 54.2904 36.5286 54.2904 36.528C54.2904 36.5274 54.2904 36.5268 54.2904 36.5263C54.2904 36.5257 54.2904 36.5251 54.2904 36.5245C54.2904 36.5239 54.2904 36.5233 54.2904 36.5227C54.2904 36.5222 54.2904 36.5216 54.2904 36.521C54.2904 36.5204 54.2904 36.5198 54.2904 36.5192C54.2904 36.5187 54.2904 36.5181 54.2904 36.5175C54.2904 36.5169 54.2904 36.5163 54.2904 36.5157C54.2904 36.5151 54.2904 36.5146 54.2904 36.514C54.2904 36.5134 54.2904 36.5128 54.2904 36.5122C54.2904 36.5116 54.2904 36.5111 54.2904 36.5105C54.2904 36.5099 54.2904 36.5093 54.2904 36.5087C54.2904 36.5081 54.2904 36.5075 54.2904 36.507C54.2904 36.5064 54.2904 36.5058 54.2904 36.5052C54.2904 36.5046 54.2904 36.504 54.2904 36.5035C54.2904 36.5029 54.2904 36.5023 54.2904 36.5017C54.2904 36.5011 54.2904 36.5005 54.2904 36.5C54.2904 36.4994 54.2904 36.4988 54.2904 36.4982C54.2904 36.4976 54.2904 36.497 54.2904 36.4965C54.2904 36.4959 54.2904 36.4953 54.2904 36.4947C54.2904 36.4941 54.2904 36.4935 54.2904 36.4929C54.2904 36.4924 54.2904 36.4918 54.2904 36.4912C54.2904 36.4906 54.2904 36.49 54.2904 36.4894C54.2904 36.4889 54.2904 36.4883 54.2904 36.4877C54.2904 36.4871 54.2904 36.4865 54.2904 36.4859C54.2904 36.4854 54.2904 36.4848 54.2904 36.4842C54.2904 36.4836 54.2904 36.483 54.2904 36.4824C54.2904 36.4819 54.2904 36.4813 54.2904 36.4807C54.2904 36.4801 54.2904 36.4795 54.2904 36.4789C54.2904 36.4784 54.2904 36.4778 54.2904 36.4772C54.2904 36.4766 54.2904 36.476 54.2904 36.4754C54.2904 36.4749 54.2904 36.4743 54.2904 36.4737C54.2904 36.4731 54.2904 36.4725 54.2904 36.4719C54.2904 36.4714 54.2904 36.4708 54.2904 36.4702C54.2904 36.4696 54.2904 36.469 54.2904 36.4684C54.2904 36.4679 54.2904 36.4673 54.2904 36.4667C54.2904 36.4661 54.2904 36.4655 54.2904 36.4649C54.2904 36.4644 54.2904 36.4638 54.2904 36.4632C54.2904 36.4626 54.2904 36.462 54.2904 36.4615C54.2904 36.4609 54.2904 36.4603 54.2904 36.4597C54.2904 36.4591 54.2904 36.4585 54.2904 36.458C54.2904 36.4574 54.2904 36.4568 54.2904 36.4562C54.2904 36.4556 54.2904 36.455 54.2904 36.4545C54.2904 36.4539 54.2904 36.4533 54.2904 36.4527C54.2904 36.4521 54.2904 36.4515 54.2904 36.451C54.2904 36.4504 54.2904 36.4498 54.2904 36.4492C54.2904 36.4486 54.2904 36.4481 54.2904 36.4475C54.2904 36.4469 54.2904 36.4463 54.2904 36.4457C54.2904 36.4451 54.2904 36.4446 54.2904 36.444C54.2904 36.4434 54.2904 36.4428 54.2904 36.4422C54.2904 36.4416 54.2904 36.4411 54.2904 36.4405C54.2904 36.4399 54.2904 36.4393 54.2904 36.4387C54.2904 36.4382 54.2904 36.4376 54.2904 36.437C54.2904 36.4364 54.2904 36.4358 54.2904 36.4352C54.2904 36.4347 54.2904 36.4341 54.2904 36.4335C54.2904 36.4329 54.2904 36.4323 54.2904 36.4318C54.2904 36.4312 54.2904 36.4306 54.2904 36.43C54.2904 36.4294 54.2904 36.4288 54.2904 36.4283C54.2904 36.4277 54.2904 36.4271 54.2904 36.4265C54.2904 36.4259 54.2904 36.4254 54.2904 36.4248C54.2904 36.4242 54.2904 36.4236 54.2904 36.423C54.2904 36.4224 54.2904 36.4219 54.2904 36.4213C54.2904 36.4207 54.2904 36.4201 54.2904 36.4195C54.2904 36.419 54.2904 36.4184 54.2904 36.4178C54.2904 36.4172 54.2904 36.4166 54.2904 36.4161C54.2904 36.4155 54.2904 36.4149 54.2904 36.4143C54.2904 36.4137 54.2904 36.4131 54.2904 36.4126C54.2904 36.412 54.2904 36.4114 54.2904 36.4108C54.2904 36.4102 54.2904 36.4097 54.2904 36.4091C54.2904 36.4085 54.2904 36.4079 54.2904 36.4073C54.2904 36.4068 54.2904 36.4062 54.2904 36.4056C54.2904 36.405 54.2904 36.4044 54.2904 36.4039C54.2904 36.4033 54.2904 36.4027 54.2904 36.4021C54.2904 36.4015 54.2904 36.4009 54.2904 36.4004C54.2904 36.3998 54.2904 36.3992 54.2904 36.3986C54.2904 36.398 54.2904 36.3975 54.2904 36.3969C54.2904 36.3963 54.2904 36.3957 54.2904 36.3951C54.2904 36.3946 54.2904 36.394 54.2904 36.3934C54.2904 36.3928 54.2904 36.3922 54.2904 36.3917C54.2904 36.3911 54.2904 36.3905 54.2904 36.3899C54.2904 36.3893 54.2904 36.3888 54.2904 36.3882C54.2904 36.3876 54.2904 36.387 54.2904 36.3864C54.2904 36.3859 54.2904 36.3853 54.2904 36.3847C54.2904 36.3841 54.2904 36.3835 54.2904 36.3829C54.2904 36.3824 54.2904 36.3818 54.2904 36.3812C54.2904 36.3806 54.2904 36.38 54.2904 36.3795C54.2904 36.3789 54.2904 36.3783 54.2904 36.3777C54.2904 36.3771 54.2904 36.3766 54.2904 36.376C54.2904 36.3754 54.2904 36.3748 54.2904 36.3742C54.2904 36.3737 54.2904 36.3731 54.2904 36.3725C54.2904 36.3719 54.2904 36.3713 54.2904 36.3708C54.2904 36.3702 54.2904 36.3696 54.2904 36.369C54.2904 36.3685 54.2904 36.3679 54.2904 36.3673C54.2904 36.3667 54.2904 36.3661 54.2904 36.3656C54.2904 36.365 54.2904 36.3644 54.2904 36.3638C54.2904 36.3632 54.2904 36.3627 54.2904 36.3621C54.2904 36.3615 54.2904 36.3609 54.2904 36.3603C54.2904 36.3598 54.2904 36.3592 54.2904 36.3586C54.2904 36.358 54.2904 36.3574 54.2904 36.3569C54.2904 36.3563 54.2904 36.3557 54.2904 36.3551C54.2904 36.3545 54.2904 36.354 54.2904 36.3534C54.2904 36.3528 54.2904 36.3522 54.2904 36.3516C54.2904 36.3511 54.2904 36.3505 54.2904 36.3499C54.2904 36.3493 54.2904 36.3487 54.2904 36.3482C54.2904 36.3476 54.2904 36.347 54.2904 36.3464C54.2904 36.3459 54.2904 36.3453 54.2904 36.3447C54.2904 36.3441 54.2904 36.3435 54.2904 36.343C54.2904 36.3424 54.2904 36.3418 54.2904 36.3412C54.2904 36.3406 54.2904 36.3401 54.2904 36.3395C54.2904 36.3389 54.2904 36.3383 54.2904 36.3377C54.2904 36.3372 54.2904 36.3366 54.2904 36.336C54.2904 36.3354 54.2904 36.3349 54.2904 36.3343C54.2904 36.3337 54.2904 36.3331 54.2904 36.3325C54.2904 36.332 54.2904 36.3314 54.2904 36.3308C54.2904 36.3302 54.2904 36.3296 54.2904 36.3291C54.2904 36.3285 54.2904 36.3279 54.2904 36.3273C54.2904 36.3268 54.2904 36.3262 54.2904 36.3256C54.2904 36.325 54.2904 36.3244 54.2904 36.3239C54.2904 36.3233 54.2904 36.3227 54.2904 36.3221C54.2904 36.3216 54.2904 36.321 54.2904 36.3204C54.2904 36.3198 54.2904 36.3192 54.2904 36.3187C54.2904 36.3181 54.2904 36.3175 54.2904 36.3169C54.2904 36.3163 54.2904 36.3158 54.2904 36.3152C54.2904 36.3146 54.2904 36.314 54.2904 36.3135C54.2904 36.3129 54.2904 36.3123 54.2904 36.3117C54.2904 36.3111 54.2904 36.3106 54.2904 36.31C54.2904 36.3094 54.2904 36.3088 54.2904 36.3083C54.2904 36.3077 54.2904 36.3071 54.2904 36.3065C54.2904 36.3059 54.2904 36.3054 54.2904 36.3048C54.2904 36.3042 54.2904 36.3036 54.2904 36.3031C54.2904 36.3025 54.2904 36.3019 54.2904 36.3013C54.2904 36.3007 54.2904 36.3002 54.2904 36.2996C54.2904 36.299 54.2904 36.2984 54.2904 36.2979C54.2904 36.2973 54.2904 36.2967 54.2904 36.2961C54.2904 36.2956 54.2904 36.295 54.2904 36.2944C54.2904 36.2938 54.2904 36.2932 54.2904 36.2927C54.2904 36.2921 54.2904 36.2915 54.2904 36.2909C54.2904 36.2904 54.2904 36.2898 54.2904 36.2892C54.2904 36.2886 54.2904 36.288 54.2904 36.2875C54.2904 36.2869 54.2904 36.2863 54.2904 36.2857H52.2904ZM52.2904 37.1943C52.2904 38.0433 52.3453 38.7843 52.519 39.3054L54.4164 38.6729C54.3537 38.4849 54.2904 38.0293 54.2904 37.1943H52.2904ZM52.519 39.3054C52.6367 39.6584 52.8704 40.1409 53.375 40.3933L54.2694 38.6044C54.3785 38.6589 54.431 38.7267 54.4437 38.745C54.4546 38.7606 54.4404 38.7451 54.4164 38.6729L52.519 39.3054ZM53.4084 40.4092C53.7114 40.5469 54.0377 40.6098 54.3581 40.6298L54.4829 38.6337C54.3306 38.6242 54.258 38.5985 54.236 38.5885L53.4084 40.4092ZM54.4205 40.6318C54.5413 40.6318 54.7392 40.6559 55.0323 40.7324L55.5372 38.7971C55.1507 38.6963 54.7725 38.6318 54.4205 38.6318V40.6318ZM55.0723 40.7419C55.1508 40.759 55.1934 40.7858 55.244 40.8637L56.9209 39.7737C56.5874 39.2607 56.0983 38.9182 55.4972 38.7876L55.0723 40.7419ZM55.2572 40.8834C55.3055 40.954 55.3705 41.1024 55.3705 41.4045H57.3705C57.3705 40.8203 57.2436 40.2448 56.9078 39.754L55.2572 40.8834ZM55.3705 41.4045C55.3705 41.4682 55.3572 41.4934 55.3439 41.513C55.3245 41.5416 55.2655 41.6105 55.1061 41.6946L56.0396 43.4634C56.8216 43.0506 57.3705 42.3581 57.3705 41.4045H55.3705ZM55.0957 41.7001C54.7808 41.8711 54.265 42 53.4677 42V44C54.4431 44 55.3307 43.8483 56.0499 43.4578L55.0957 41.7001ZM60.0227 46.0801L60.3191 45.1251L60.3083 45.1217L60.2974 45.1186L60.0227 46.0801ZM59.0033 45.4818L59.7293 44.7941L59.72 44.7843L59.7104 44.7747L59.0033 45.4818ZM59.3136 43.2659L58.8233 42.3943L59.3136 43.2659ZM60.909 42.9114L60.8591 43.9101L60.8727 43.9108L60.8863 43.9111L60.909 42.9114ZM62.4159 42.8227L62.6198 43.8017L62.6346 43.7986L62.6492 43.7951L62.4159 42.8227ZM63.2579 42.3352L64.034 42.9658L65.3589 41.3352H63.2579V42.3352ZM58.2278 39.8755L57.3061 40.2636L57.309 40.2704L57.312 40.2772L58.2278 39.8755ZM57.9175 34.6238L58.8877 34.8663L58.8891 34.8607L57.9175 34.6238ZM58.6266 33.1834L57.8907 32.5064L57.8895 32.5077L58.6266 33.1834ZM61.5295 33.2721L60.7196 33.8586L60.7245 33.8654L60.7295 33.8721L61.5295 33.2721ZM61.9727 36.2193L62.9722 36.2505L62.9722 36.2495L61.9727 36.2193ZM62.017 37.4823L63.0099 37.3632L62.017 37.4823ZM62.3716 38.3687L63.1272 37.7138H63.1272L62.3716 38.3687ZM64.5432 37.4823L63.5503 37.3632L64.5432 37.4823ZM64.5875 36.2414L63.588 36.2727L63.588 36.2737L64.5875 36.2414ZM65.0307 33.2499L64.2443 32.6321L64.2413 32.636L65.0307 33.2499ZM67.9335 33.1834L67.1828 33.8441L67.1968 33.86L67.2115 33.8753L67.9335 33.1834ZM68.6648 34.6238L67.6933 34.8608L67.6946 34.8663L68.6648 34.6238ZM68.4875 40.1636L67.5125 39.9414L67.5105 39.9507L68.4875 40.1636ZM67.2244 43.2659L66.3841 42.7237L66.378 42.7335L67.2244 43.2659ZM64.9199 45.4597L64.4252 44.5906L64.4194 44.5939L64.9199 45.4597ZM61.3965 45.2796C61.0009 45.2796 60.6435 45.2258 60.3191 45.1251L59.7263 47.0352C60.2586 47.2004 60.8172 47.2796 61.3965 47.2796V45.2796ZM60.2974 45.1186C60.0361 45.044 59.8585 44.9305 59.7293 44.7941L58.2774 46.1696C58.68 46.5945 59.182 46.88 59.7479 47.0417L60.2974 45.1186ZM59.7104 44.7747C59.6587 44.723 59.6045 44.6437 59.6045 44.4404H57.6045C57.6045 45.0938 57.8162 45.7089 58.2962 46.1889L59.7104 44.7747ZM59.6045 44.4404C59.6045 44.3397 59.6256 44.296 59.6378 44.2758C59.6514 44.2533 59.6899 44.2016 59.8038 44.1375L58.8233 42.3943C58.0548 42.8266 57.6045 43.5407 57.6045 44.4404H59.6045ZM59.8038 44.1375C60.0973 43.9724 60.4389 43.8891 60.8591 43.9101L60.959 41.9126C60.1974 41.8745 59.4754 42.0276 58.8233 42.3943L59.8038 44.1375ZM60.8863 43.9111C61.5625 43.9265 62.154 43.8987 62.6198 43.8017L62.2119 41.8437C61.9686 41.8944 61.5556 41.9258 60.9318 41.9116L60.8863 43.9111ZM62.6492 43.7951C63.1784 43.6681 63.6723 43.411 64.034 42.9658L62.4818 41.7046C62.4595 41.7321 62.392 41.8001 62.1825 41.8503L62.6492 43.7951ZM63.2579 41.3352C61.9816 41.3352 61.0651 41.1456 60.4412 40.8393L59.5598 42.6346C60.5609 43.126 61.8161 43.3352 63.2579 43.3352V41.3352ZM60.4412 40.8393C59.8443 40.5462 59.4197 40.1034 59.1436 39.4739L57.312 40.2772C57.7745 41.3317 58.5317 42.1299 59.5598 42.6346L60.4412 40.8393ZM59.1494 39.4875C58.865 38.8119 58.6959 37.8644 58.6959 36.596H56.6959C56.6959 38.0162 56.8815 39.2551 57.3061 40.2636L59.1494 39.4875ZM58.6959 36.596C58.6959 35.939 58.7631 35.3647 58.8877 34.8663L56.9474 34.3813C56.7765 35.0647 56.6959 35.8052 56.6959 36.596H58.6959ZM58.8891 34.8607C59.0084 34.3716 59.1814 34.0581 59.3638 33.8592L57.8895 32.5077C57.4218 33.0179 57.1222 33.6646 56.946 34.3868L58.8891 34.8607ZM59.3626 33.8605C59.4949 33.7166 59.6614 33.6295 59.9562 33.6295V31.6295C59.1578 31.6295 58.4379 31.9116 57.8907 32.5064L59.3626 33.8605ZM59.9562 33.6295C60.5106 33.6295 60.6652 33.7835 60.7196 33.8586L62.3394 32.6856C61.7734 31.9038 60.8791 31.6295 59.9562 31.6295V33.6295ZM60.7295 33.8721C60.8986 34.0975 60.9948 34.3699 60.9948 34.7346H62.9948C62.9948 33.9765 62.7809 33.2739 62.3295 32.6721L60.7295 33.8721ZM60.9948 34.7346C60.9948 35.2271 60.9876 35.7119 60.9731 36.189L62.9722 36.2495C62.9873 35.7517 62.9948 35.2467 62.9948 34.7346H60.9948ZM60.9732 36.188C60.9572 36.6982 60.9725 37.171 61.0241 37.6015L63.0099 37.3632C62.9729 37.055 62.9586 36.6858 62.9722 36.2505L60.9732 36.188ZM61.0241 37.6015C61.0859 38.1159 61.2619 38.6152 61.6159 39.0236L63.1272 37.7138C63.0971 37.679 63.0368 37.5874 63.0099 37.3632L61.0241 37.6015ZM61.6159 39.0236C62.066 39.543 62.6998 39.7011 63.2801 39.7011V37.7011C63.1589 37.7011 63.1015 37.6844 63.0863 37.6789C63.0799 37.6765 63.0839 37.6773 63.0939 37.684C63.1043 37.691 63.1163 37.7012 63.1272 37.7138L61.6159 39.0236ZM63.2801 39.7011C63.8604 39.7011 64.4942 39.543 64.9443 39.0236L63.4329 37.7138C63.4439 37.7012 63.4558 37.691 63.4662 37.684C63.4763 37.6773 63.4802 37.6765 63.4739 37.6789C63.4587 37.6844 63.4012 37.7011 63.2801 37.7011V39.7011ZM64.9443 39.0236C65.2983 38.6152 65.4743 38.1159 65.536 37.6015L63.5503 37.3632C63.5234 37.5874 63.463 37.679 63.4329 37.7138L64.9443 39.0236ZM65.536 37.6015C65.5876 37.172 65.603 36.7066 65.587 36.2092L63.588 36.2737C63.6015 36.6922 63.5874 37.054 63.5503 37.3632L65.536 37.6015ZM65.587 36.2102C65.5726 35.7485 65.5653 35.2714 65.5653 34.7789H63.5653C63.5653 35.291 63.5729 35.7889 63.588 36.2727L65.587 36.2102ZM65.5653 34.7789C65.5653 34.3289 65.6751 34.0502 65.82 33.8639L64.2413 32.636C63.7658 33.2474 63.5653 33.988 63.5653 34.7789H65.5653ZM65.817 33.8677C65.8877 33.7777 66.0643 33.6295 66.604 33.6295V31.6295C65.6959 31.6295 64.8236 31.8948 64.2443 32.6321L65.817 33.8677ZM66.604 33.6295C66.923 33.6295 67.0755 33.7221 67.1828 33.8441L68.6842 32.5228C68.1416 31.9061 67.4077 31.6295 66.604 31.6295V33.6295ZM67.2115 33.8753C67.4009 34.0729 67.5762 34.3807 67.6933 34.8607L69.6363 34.3868C69.4579 33.6555 69.1457 33.003 68.6555 32.4915L67.2115 33.8753ZM67.6946 34.8663C67.8192 35.3647 67.8864 35.939 67.8864 36.596H69.8864C69.8864 35.8052 69.8058 35.0647 69.6349 34.3813L67.6946 34.8663ZM67.8864 36.596C67.8864 37.7335 67.7616 38.8482 67.5125 39.9415L69.4625 40.3858C69.7452 39.1449 69.8864 37.8812 69.8864 36.596H67.8864ZM67.5105 39.9507C67.2827 40.9955 66.905 41.9165 66.3841 42.7238L68.0647 43.808C68.7257 42.7835 69.19 41.6362 69.4646 40.3766L67.5105 39.9507ZM66.378 42.7335C65.8915 43.5069 65.2454 44.1237 64.4252 44.5906L65.4146 46.3287C66.5149 45.7024 67.4051 44.8568 68.0709 43.7984L66.378 42.7335ZM64.4194 44.5939C63.6635 45.0309 62.6733 45.2796 61.3965 45.2796V47.2796C62.9266 47.2796 64.2853 46.9816 65.4204 46.3254L64.4194 44.5939ZM71.9869 46.0801L72.2833 45.1251L72.2725 45.1217L72.2617 45.1186L71.9869 46.0801ZM70.9676 45.4818L71.6936 44.7941L71.6843 44.7843L71.6747 44.7747L70.9676 45.4818ZM71.2779 43.2659L70.7876 42.3943L71.2779 43.2659ZM72.8733 42.9114L72.8234 43.9101L72.837 43.9108L72.8506 43.9111L72.8733 42.9114ZM74.3802 42.8227L74.5841 43.8017L74.5989 43.7986L74.6135 43.7951L74.3802 42.8227ZM75.2222 42.3352L75.9983 42.9658L77.3232 41.3352H75.2222V42.3352ZM70.192 39.8755L69.2704 40.2636L69.2733 40.2704L69.2763 40.2772L70.192 39.8755ZM69.8818 34.6238L70.852 34.8663L70.8533 34.8607L69.8818 34.6238ZM70.5909 33.1834L69.855 32.5064L69.8538 32.5077L70.5909 33.1834ZM73.4938 33.2721L72.6838 33.8586L72.6888 33.8654L72.6938 33.8721L73.4938 33.2721ZM73.937 36.2193L74.9365 36.2505L74.9365 36.2495L73.937 36.2193ZM73.9813 37.4823L74.9742 37.3632L73.9813 37.4823ZM74.3358 38.3687L75.0915 37.7138L74.3358 38.3687ZM76.5074 37.4823L75.5146 37.3632L76.5074 37.4823ZM76.5518 36.2414L75.5522 36.2727L75.5523 36.2737L76.5518 36.2414ZM76.9949 33.2499L76.2086 32.6321L76.2056 32.636L76.9949 33.2499ZM79.8978 33.1834L79.1471 33.8441L79.1611 33.86L79.1758 33.8753L79.8978 33.1834ZM80.6291 34.6238L79.6575 34.8608L79.6589 34.8663L80.6291 34.6238ZM80.4518 40.1636L79.4767 39.9414L79.4747 39.9507L80.4518 40.1636ZM79.1887 43.2659L78.3484 42.7237L78.3423 42.7335L79.1887 43.2659ZM76.8841 45.4597L76.3894 44.5906L76.3836 44.5939L76.8841 45.4597ZM73.3608 45.2796C72.9651 45.2796 72.6078 45.2258 72.2833 45.1251L71.6905 47.0352C72.2229 47.2004 72.7815 47.2796 73.3608 47.2796V45.2796ZM72.2617 45.1186C72.0003 45.044 71.8228 44.9305 71.6936 44.7941L70.2417 46.1696C70.6443 46.5945 71.1463 46.88 71.7122 47.0417L72.2617 45.1186ZM71.6747 44.7747C71.623 44.723 71.5688 44.6437 71.5688 44.4404H69.5688C69.5688 45.0938 69.7805 45.7089 70.2605 46.1889L71.6747 44.7747ZM71.5688 44.4404C71.5688 44.3397 71.5899 44.296 71.6021 44.2758C71.6157 44.2533 71.6542 44.2016 71.7681 44.1375L70.7876 42.3943C70.019 42.8266 69.5688 43.5407 69.5688 44.4404H71.5688ZM71.7681 44.1375C72.0615 43.9724 72.4032 43.8891 72.8234 43.9101L72.9233 41.9126C72.1617 41.8745 71.4396 42.0276 70.7876 42.3943L71.7681 44.1375ZM72.8506 43.9111C73.5268 43.9265 74.1183 43.8987 74.5841 43.8017L74.1762 41.8437C73.9329 41.8944 73.5199 41.9258 72.896 41.9116L72.8506 43.9111ZM74.6135 43.7951C75.1427 43.6681 75.6366 43.411 75.9983 42.9658L74.4461 41.7046C74.4237 41.7321 74.3563 41.8001 74.1468 41.8503L74.6135 43.7951ZM75.2222 41.3352C73.9458 41.3352 73.0294 41.1456 72.4055 40.8393L71.5241 42.6346C72.5252 43.126 73.7804 43.3352 75.2222 43.3352V41.3352ZM72.4055 40.8393C71.8086 40.5462 71.384 40.1034 71.1078 39.4739L69.2763 40.2772C69.7388 41.3317 70.496 42.1299 71.5241 42.6346L72.4055 40.8393ZM71.1137 39.4875C70.8292 38.8119 70.6602 37.8644 70.6602 36.596H68.6602C68.6602 38.0162 68.8458 39.2551 69.2704 40.2636L71.1137 39.4875ZM70.6602 36.596C70.6602 35.939 70.7274 35.3647 70.852 34.8663L68.9117 34.3813C68.7408 35.0647 68.6602 35.8052 68.6602 36.596H70.6602ZM70.8533 34.8607C70.9726 34.3716 71.1457 34.0581 71.3281 33.8592L69.8538 32.5077C69.3861 33.0179 69.0864 33.6646 68.9103 34.3868L70.8533 34.8607ZM71.3268 33.8605C71.4592 33.7166 71.6257 33.6295 71.9205 33.6295V31.6295C71.1221 31.6295 70.4022 31.9116 69.855 32.5064L71.3268 33.8605ZM71.9205 33.6295C72.4748 33.6295 72.6295 33.7835 72.6838 33.8586L74.3037 32.6856C73.7376 31.9038 72.8434 31.6295 71.9205 31.6295V33.6295ZM72.6938 33.8721C72.8629 34.0975 72.9591 34.3699 72.9591 34.7346H74.9591C74.9591 33.9765 74.7451 33.2739 74.2938 32.6721L72.6938 33.8721ZM72.9591 34.7346C72.9591 35.2271 72.9519 35.7119 72.9374 36.189L74.9365 36.2495C74.9516 35.7517 74.9591 35.2467 74.9591 34.7346H72.9591ZM72.9375 36.188C72.9215 36.6982 72.9368 37.171 72.9884 37.6015L74.9742 37.3632C74.9372 37.055 74.9229 36.6858 74.9365 36.2505L72.9375 36.188ZM72.9884 37.6015C73.0501 38.1159 73.2262 38.6152 73.5801 39.0236L75.0915 37.7138C75.0614 37.679 75.0011 37.5874 74.9742 37.3632L72.9884 37.6015ZM73.5801 39.0236C74.0302 39.543 74.664 39.7011 75.2444 39.7011V37.7011C75.1232 37.7011 75.0658 37.6844 75.0506 37.6789C75.0442 37.6765 75.0482 37.6773 75.0582 37.684C75.0686 37.691 75.0806 37.7012 75.0915 37.7138L73.5801 39.0236ZM75.2444 39.7011C75.8247 39.7011 76.4585 39.543 76.9086 39.0236L75.3972 37.7138C75.4081 37.7012 75.4201 37.691 75.4305 37.684C75.4406 37.6773 75.4445 37.6765 75.4381 37.6789C75.423 37.6844 75.3655 37.7011 75.2444 37.7011V39.7011ZM76.9086 39.0236C77.2626 38.6152 77.4386 38.1159 77.5003 37.6015L75.5146 37.3632C75.4877 37.5874 75.4273 37.679 75.3972 37.7138L76.9086 39.0236ZM77.5003 37.6015C77.5519 37.172 77.5673 36.7066 77.5512 36.2092L75.5523 36.2737C75.5658 36.6922 75.5517 37.054 75.5146 37.3632L77.5003 37.6015ZM77.5513 36.2102C77.5368 35.7485 77.5296 35.2714 77.5296 34.7789H75.5296C75.5296 35.291 75.5371 35.7889 75.5522 36.2727L77.5513 36.2102ZM77.5296 34.7789C77.5296 34.3289 77.6394 34.0502 77.7843 33.8639L76.2056 32.636C75.73 33.2474 75.5296 33.988 75.5296 34.7789H77.5296ZM77.7813 33.8677C77.852 33.7777 78.0286 33.6295 78.5683 33.6295V31.6295C77.6602 31.6295 76.7879 31.8948 76.2086 32.6321L77.7813 33.8677ZM78.5683 33.6295C78.8872 33.6295 79.0398 33.7221 79.1471 33.8441L80.6485 32.5228C80.1058 31.9061 79.372 31.6295 78.5683 31.6295V33.6295ZM79.1758 33.8753C79.3652 34.0729 79.5405 34.3807 79.6575 34.8607L81.6006 34.3868C81.4222 33.6555 81.11 33.003 80.6198 32.4915L79.1758 33.8753ZM79.6589 34.8663C79.7835 35.3647 79.8507 35.939 79.8507 36.596H81.8507C81.8507 35.8052 81.7701 35.0647 81.5992 34.3813L79.6589 34.8663ZM79.8507 36.596C79.8507 37.7335 79.7259 38.8482 79.4768 39.9415L81.4268 40.3858C81.7095 39.1449 81.8507 37.8812 81.8507 36.596H79.8507ZM79.4747 39.9507C79.247 40.9955 78.8693 41.9165 78.3484 42.7238L80.029 43.808C80.69 42.7835 81.1543 41.6362 81.4289 40.3766L79.4747 39.9507ZM78.3423 42.7335C77.8558 43.5069 77.2096 44.1237 76.3895 44.5906L77.3788 46.3287C78.4791 45.7024 79.3694 44.8568 80.0352 43.7984L78.3423 42.7335ZM76.3836 44.5939C75.6278 45.0309 74.6376 45.2796 73.3608 45.2796V47.2796C74.8909 47.2796 76.2496 46.9816 77.3847 46.3254L76.3836 44.5939ZM82.3166 45.4818L81.4974 46.0553L81.5011 46.0606L82.3166 45.4818ZM81.6519 43.7313L80.6649 43.8924L80.6665 43.9022L80.6683 43.9119L81.6519 43.7313ZM81.4303 41.4045L80.4304 41.4224L80.4306 41.4313L80.4309 41.4402L81.4303 41.4045ZM81.4524 36.9727L80.4541 36.914L80.4536 36.9233L80.4532 36.9327L81.4524 36.9727ZM81.7183 34.8454L80.7412 34.633L80.7394 34.6411L80.7378 34.6493L81.7183 34.8454ZM82.4496 33.1834L83.2331 33.8048L82.4496 33.1834ZM84.9093 32.8067L84.3326 33.6237L84.9093 32.8067ZM85.4854 33.4272L84.6138 33.9175L85.1691 34.9045L86.0798 34.2314L85.4854 33.4272ZM86.7485 32.8289L87.0307 33.7883L87.0435 33.7845L87.0563 33.7803L86.7485 32.8289ZM90.9809 33.2942L90.464 34.1503L90.4711 34.1545L90.9809 33.2942ZM92.8866 35.1999L92.0263 35.7098L92.0305 35.7168L92.8866 35.1999ZM92.8866 40.4517L93.7469 40.9615L92.8866 40.4517ZM90.9809 42.3574L90.4711 41.4971L90.464 41.5013L90.9809 42.3574ZM86.7263 42.8449L86.4185 43.7963L86.4313 43.8005L86.4442 43.8043L86.7263 42.8449ZM85.4633 42.2023L86.0796 41.4148L84.4633 40.1498V42.2023H85.4633ZM85.3746 44.2188L84.3793 44.1217L84.3782 44.1337L84.3773 44.1458L85.3746 44.2188ZM84.9314 45.637L84.1273 45.0426L84.1212 45.0507L84.1154 45.0589L84.9314 45.637ZM89.2525 38.967L88.5454 38.2599L89.2525 38.967ZM89.2525 36.9505L88.5275 37.6393L88.5452 37.6579L88.5637 37.6755L89.2525 36.9505ZM87.236 38.967L86.511 39.6558L86.5287 39.6744L86.5472 39.692L87.236 38.967ZM83.6684 45.1688C83.4062 45.1688 83.2639 45.0888 83.1321 44.9031L81.5011 46.0606C82.0194 46.7908 82.7782 47.1688 83.6684 47.1688V45.1688ZM83.1359 44.9084C82.932 44.6172 82.7512 44.1813 82.6354 43.5506L80.6683 43.9119C80.8184 44.729 81.0808 45.4602 81.4974 46.0553L83.1359 44.9084ZM82.6388 43.5701C82.5282 42.8926 82.4579 42.1593 82.4296 41.3688L80.4309 41.4402C80.4618 42.3043 80.5392 43.1221 80.6649 43.8924L82.6388 43.5701ZM82.4301 41.3867C82.4154 40.5647 82.4081 39.7877 82.4081 39.0556H80.4081C80.4081 39.8009 80.4156 40.5898 80.4304 41.4224L82.4301 41.3867ZM82.4081 39.0556C82.4081 38.4206 82.4225 37.7397 82.4516 37.0126L80.4532 36.9327C80.4232 37.6829 80.4081 38.3907 80.4081 39.0556H82.4081ZM82.4507 37.0314C82.4926 36.319 82.576 35.6562 82.6989 35.0415L80.7378 34.6493C80.5948 35.3641 80.5009 36.1195 80.4541 36.914L82.4507 37.0314ZM82.6955 35.0578C82.8193 34.4882 83.0105 34.0855 83.2331 33.8048L81.6661 32.562C81.2091 33.1382 80.9128 33.8435 80.7412 34.633L82.6955 35.0578ZM83.2331 33.8048C83.3663 33.6369 83.5317 33.5408 83.8456 33.5408V31.5408C82.9777 31.5408 82.2125 31.8731 81.6661 32.562L83.2331 33.8048ZM83.8456 33.5408C84.1928 33.5408 84.3144 33.6108 84.3326 33.6237L85.486 31.9898C85.0019 31.6481 84.4144 31.5408 83.8456 31.5408V33.5408ZM84.3326 33.6237C84.4786 33.7268 84.5629 33.8268 84.6138 33.9175L86.357 32.9369C86.1421 32.5548 85.8422 32.2412 85.486 31.9898L84.3326 33.6237ZM86.0798 34.2314C86.3059 34.0642 86.6149 33.9105 87.0307 33.7883L86.4663 31.8695C85.8776 32.0427 85.3445 32.2879 84.891 32.623L86.0798 34.2314ZM87.0563 33.7803C87.4505 33.6528 87.885 33.5851 88.3661 33.5851V31.5851C87.695 31.5851 87.051 31.68 86.4407 31.8774L87.0563 33.7803ZM88.3661 33.5851C89.1537 33.5851 89.845 33.7765 90.464 34.1503L91.4978 32.4382C90.5509 31.8665 89.499 31.5851 88.3661 31.5851V33.5851ZM90.4711 34.1545C91.1245 34.5417 91.6392 35.0564 92.0263 35.7097L93.7469 34.6901C93.1886 33.748 92.4328 32.9922 91.4907 32.4339L90.4711 34.1545ZM92.0305 35.7168C92.4043 36.3359 92.5957 37.0272 92.5957 37.8147H94.5957C94.5957 36.6818 94.3144 35.6299 93.7427 34.6831L92.0305 35.7168ZM92.5957 37.8147C92.5957 38.6022 92.4043 39.3041 92.0263 39.9419L93.7469 40.9615C94.3144 40.0038 94.5957 38.9477 94.5957 37.8147H92.5957ZM92.0263 39.9419C91.6392 40.5952 91.1245 41.1099 90.4711 41.4971L91.4907 43.2177C92.4328 42.6594 93.1886 41.9036 93.7469 40.9615L92.0263 39.9419ZM90.464 41.5013C89.845 41.8751 89.1537 42.0665 88.3661 42.0665V44.0665C89.499 44.0665 90.5509 43.7851 91.4978 43.2134L90.464 41.5013ZM88.3661 42.0665C87.8586 42.0665 87.4082 42.0031 87.0085 41.8855L86.4442 43.8043C87.049 43.9821 87.6918 44.0665 88.3661 44.0665V42.0665ZM87.0342 41.8934C86.6194 41.7593 86.3089 41.5942 86.0796 41.4148L84.8469 42.9898C85.2972 43.3421 85.8287 43.6055 86.4185 43.7963L87.0342 41.8934ZM84.4633 42.2023C84.4633 42.9151 84.4347 43.5542 84.3793 44.1217L86.3699 44.3159C86.4327 43.672 86.4633 42.9668 86.4633 42.2023H84.4633ZM84.3773 44.1458C84.341 44.6411 84.2271 44.9075 84.1273 45.0426L85.7356 46.2313C86.1381 45.6868 86.3196 45.0078 86.3719 44.2917L84.3773 44.1458ZM84.1154 45.0589C84.1033 45.076 84.0871 45.094 84.0392 45.1142C83.9819 45.1383 83.8679 45.1688 83.6684 45.1688V47.1688C84.4566 47.1688 85.2458 46.9232 85.7475 46.215L84.1154 45.0589ZM88.2553 40.388C88.9144 40.388 89.4984 40.1353 89.9596 39.6741L88.5454 38.2599C88.4452 38.3601 88.3644 38.388 88.2553 38.388V40.388ZM89.9596 39.6741C90.4244 39.2093 90.6957 38.6216 90.6957 37.9477H88.6957C88.6957 38.0419 88.6715 38.1338 88.5454 38.2599L89.9596 39.6741ZM90.6957 37.9477C90.6957 37.2713 90.4219 36.6821 89.9412 36.2255L88.5637 37.6755C88.674 37.7803 88.6957 37.8559 88.6957 37.9477H90.6957ZM89.9775 36.2618C89.5209 35.7811 88.9317 35.5073 88.2553 35.5073V37.5073C88.3471 37.5073 88.4227 37.529 88.5275 37.6393L89.9775 36.2618ZM88.2553 35.5073C87.5814 35.5073 86.9937 35.7786 86.5289 36.2434L87.9431 37.6576C88.0692 37.5315 88.1611 37.5073 88.2553 37.5073V35.5073ZM86.5289 36.2434C86.0677 36.7046 85.815 37.2886 85.815 37.9477H87.815C87.815 37.8386 87.8429 37.7578 87.9431 37.6576L86.5289 36.2434ZM85.815 37.9477C85.815 38.6048 86.0656 39.1869 86.511 39.6558L87.961 38.2783C87.845 38.1562 87.815 38.0587 87.815 37.9477H85.815ZM86.5472 39.692C87.0161 40.1374 87.5982 40.388 88.2553 40.388V38.388C88.1443 38.388 88.0468 38.358 87.9247 38.242L86.5472 39.692ZM95.2815 42.5125L94.5431 43.1868L94.5584 43.2035L94.5744 43.2196L95.2815 42.5125ZM94.5724 41.1608L95.533 40.8827L94.5724 41.1608ZM94.2401 39.2329L95.2367 39.1516L94.2401 39.2329ZM94.1736 35.4215L93.175 35.3676L93.1743 35.3806L93.174 35.3938L94.1736 35.4215ZM94.3952 33.9147L93.4348 33.6359L93.4306 33.6503L93.4269 33.6648L94.3952 33.9147ZM95.0378 32.8067L95.7265 33.5317L95.7274 33.5309L95.0378 32.8067ZM97.431 32.6516L96.9223 33.5125L96.9371 33.5213L96.9521 33.5295L97.431 32.6516ZM98.0515 33.4715L97.0791 33.7049L97.4745 35.3524L98.7257 34.21L98.0515 33.4715ZM99.3367 32.8067L99.5857 33.7752L99.5951 33.7728L99.6043 33.7702L99.3367 32.8067ZM102.417 32.9397L101.981 33.8395L101.992 33.8449L102.003 33.8501L102.417 32.9397ZM103.658 33.8704L104.419 33.2219L103.658 33.8704ZM103.68 36.4409L102.917 35.7949L102.909 35.8036L102.902 35.8125L103.68 36.4409ZM101.73 36.9284L101.316 37.8387L101.352 37.8548L101.388 37.8682L101.73 36.9284ZM101.265 36.7289L101.636 35.8004V35.8004L101.265 36.7289ZM99.2259 37.3051L99.9209 38.0241L99.9213 38.0237L99.2259 37.3051ZM98.5168 40.3187L97.5189 40.2543L97.5179 40.2699L97.5174 40.2854L98.5168 40.3187ZM98.3174 41.604L97.3558 41.3292L97.3513 41.3453L97.3472 41.3614L98.3174 41.604ZM97.7412 42.6233L98.408 43.3685L98.4186 43.359L98.429 43.3492L97.7412 42.6233ZM96.5225 42C96.2583 42 96.1078 41.9245 95.9887 41.8054L94.5744 43.2196C95.1053 43.7505 95.7821 44 96.5225 44V42ZM96.02 41.8382C95.8373 41.6381 95.664 41.3354 95.533 40.8827L93.6119 41.4388C93.8059 42.1089 94.1053 42.7073 94.5431 43.1868L96.02 41.8382ZM95.533 40.8827C95.3929 40.3988 95.2916 39.8241 95.2367 39.1516L93.2434 39.3143C93.3067 40.0894 93.427 40.8 93.6119 41.4388L95.533 40.8827ZM95.2367 39.1516C95.18 38.4563 95.1514 37.7374 95.1514 36.9948H93.1514C93.1514 37.7886 93.1819 38.5619 93.2434 39.3143L95.2367 39.1516ZM95.1514 36.9948C95.1514 36.4873 95.1587 35.9721 95.1732 35.4493L93.174 35.3938C93.1589 35.9346 93.1514 36.4683 93.1514 36.9948H95.1514ZM95.1721 35.4755C95.1986 34.985 95.2642 34.5493 95.3634 34.1646L93.4269 33.6648C93.2898 34.196 93.2076 34.7649 93.175 35.3676L95.1721 35.4755ZM95.3555 34.1935C95.4476 33.8765 95.58 33.671 95.7265 33.5317L94.349 32.0817C93.9047 32.5038 93.6087 33.037 93.4348 33.6359L95.3555 34.1935ZM95.7274 33.5309C95.7997 33.4621 95.9584 33.3635 96.3452 33.3635V31.3635C95.6093 31.3635 94.8964 31.5605 94.3481 32.0826L95.7274 33.5309ZM96.3452 33.3635C96.5756 33.3635 96.7602 33.4168 96.9223 33.5125L97.9397 31.7907C97.4518 31.5024 96.9125 31.3635 96.3452 31.3635V33.3635ZM96.9521 33.5295C97.0217 33.5674 97.0545 33.6024 97.0791 33.7049L99.0238 33.2381C98.8712 32.602 98.4903 32.0903 97.9098 31.7737L96.9521 33.5295ZM98.7257 34.21C98.9266 34.0266 99.2016 33.874 99.5857 33.7752L99.0877 31.8382C98.4377 32.0054 97.8558 32.296 97.3772 32.733L98.7257 34.21ZM99.6043 33.7702C100.048 33.6471 100.504 33.5851 100.976 33.5851V31.5851C100.326 31.5851 99.6895 31.6709 99.069 31.8432L99.6043 33.7702ZM100.976 33.5851C101.277 33.5851 101.609 33.6594 101.981 33.8395L102.853 32.0399C102.25 31.7472 101.621 31.5851 100.976 31.5851V33.5851ZM102.003 33.8501C102.36 34.0123 102.654 34.2342 102.897 34.5188L104.419 33.2219C103.982 32.7088 103.449 32.3103 102.831 32.0293L102.003 33.8501ZM102.897 34.5188C103.089 34.7453 103.167 34.9684 103.167 35.2221H105.167C105.167 34.4712 104.906 33.7932 104.419 33.2219L102.897 34.5188ZM103.167 35.2221C103.167 35.3739 103.117 35.5583 102.917 35.7949L104.443 37.0868C104.893 36.5553 105.167 35.9271 105.167 35.2221H103.167ZM102.902 35.8125C102.814 35.9209 102.681 36.017 102.35 36.017V38.017C103.172 38.017 103.925 37.729 104.458 37.0692L102.902 35.8125ZM102.35 36.017C102.168 36.017 102.087 35.9942 102.072 35.9886L101.388 37.8682C101.698 37.9807 102.031 38.017 102.35 38.017V36.017ZM102.144 36.018C101.969 35.9385 101.8 35.8659 101.636 35.8004L100.893 37.6574C101.025 37.7101 101.166 37.7705 101.316 37.8387L102.144 36.018ZM101.636 35.8004C101.341 35.6823 101.03 35.6403 100.733 35.6403V37.6403C100.789 37.6403 100.829 37.6444 100.856 37.6488C100.883 37.6533 100.894 37.6577 100.893 37.6574L101.636 35.8004ZM100.733 35.6403C99.8837 35.6403 99.1417 35.995 98.5305 36.5865L99.9213 38.0237C100.226 37.7288 100.489 37.6403 100.733 37.6403V35.6403ZM98.5309 36.5861C97.8548 37.2397 97.5611 38.1038 97.5611 39.0556H99.5611C99.5611 38.5302 99.7107 38.2273 99.9209 38.0241L98.5309 36.5861ZM97.5611 39.0556C97.5611 39.4146 97.5473 39.8138 97.5189 40.2543L99.5147 40.3831C99.5454 39.9077 99.5611 39.4649 99.5611 39.0556H97.5611ZM97.5174 40.2854C97.5052 40.6494 97.4509 40.9966 97.3558 41.3292L99.2789 41.8787C99.4202 41.384 99.4988 40.8744 99.5162 40.352L97.5174 40.2854ZM97.3472 41.3614C97.2851 41.61 97.1819 41.7757 97.0535 41.8973L98.429 43.3492C98.8619 42.9391 99.1428 42.4252 99.2875 41.8465L97.3472 41.3614ZM97.0744 41.8781C97.0405 41.9084 96.9091 42 96.5225 42V44C97.1994 44 97.8806 43.8404 98.408 43.3685L97.0744 41.8781ZM106.648 42.579L106.102 43.4166L106.123 43.4302L106.144 43.4428L106.648 42.579ZM105.806 41.7369L104.942 42.2408L104.955 42.2623L104.969 42.2832L105.806 41.7369ZM105.806 39.4324L104.958 38.9024L104.95 38.9153L104.942 38.9285L105.806 39.4324ZM106.648 38.5903L106.144 37.7265L106.136 37.7312L106.128 37.7361L106.648 38.5903ZM108.953 38.5903L109.457 37.7265L108.953 38.5903ZM109.795 39.4324L110.659 38.9285L109.795 39.4324ZM109.795 41.7369L110.649 42.2569L110.654 42.2489L110.659 42.2408L109.795 41.7369ZM108.953 42.579L109.457 43.4428L109.47 43.4351L109.483 43.427L108.953 42.579ZM107.8 41.8892C107.562 41.8892 107.352 41.8321 107.152 41.7152L106.144 43.4428C106.653 43.7395 107.211 43.8892 107.8 43.8892V41.8892ZM107.194 41.7414C106.971 41.5956 106.79 41.4141 106.644 41.1907L104.969 42.2832C105.266 42.7393 105.646 43.1192 106.102 43.4166L107.194 41.7414ZM106.67 41.233C106.553 41.0327 106.496 40.8227 106.496 40.5846H104.496C104.496 41.1739 104.646 41.7321 104.942 42.2408L106.67 41.233ZM106.496 40.5846C106.496 40.3466 106.553 40.1366 106.67 39.9362L104.942 38.9285C104.646 39.4372 104.496 39.9954 104.496 40.5846H106.496ZM106.654 39.9624C106.798 39.733 106.968 39.5661 107.168 39.4445L106.128 37.7361C105.649 38.0281 105.258 38.4226 104.958 38.9024L106.654 39.9624ZM107.152 39.4541C107.352 39.3372 107.562 39.2801 107.8 39.2801V37.2801C107.211 37.2801 106.653 37.4298 106.144 37.7265L107.152 39.4541ZM107.8 39.2801C108.039 39.2801 108.249 39.3372 108.449 39.4541L109.457 37.7265C108.948 37.4298 108.39 37.2801 107.8 37.2801V39.2801ZM108.449 39.4541C108.654 39.574 108.811 39.7307 108.931 39.9362L110.659 38.9285C110.365 38.4249 109.96 38.0203 109.457 37.7265L108.449 39.4541ZM108.931 39.9362C109.048 40.1366 109.105 40.3466 109.105 40.5846H111.105C111.105 39.9954 110.955 39.4372 110.659 38.9285L108.931 39.9362ZM109.105 40.5846C109.105 40.8227 109.048 41.0327 108.931 41.233L110.659 42.2408C110.955 41.7321 111.105 41.1739 111.105 40.5846H109.105ZM108.941 41.217C108.819 41.4168 108.652 41.5876 108.423 41.731L109.483 43.427C109.963 43.1271 110.357 42.7366 110.649 42.2569L108.941 41.217ZM108.449 41.7152C108.249 41.8321 108.039 41.8892 107.8 41.8892V43.8892C108.39 43.8892 108.948 43.7395 109.457 43.4428L108.449 41.7152Z" fill="black"/>
</g>
<defs>
<filter id="filter0_d_137_8" x="41.6676" y="27.4885" width="72.4375" height="26.7911" filterUnits="userSpaceOnUse" color-interpolation-filters="sRGB">
<feFlood flood-opacity="0" result="BackgroundImageFix"/>
<feColorMatrix in="SourceAlpha" type="matrix" values="0 0 0 0 0 0 0 0 0 0 0 0 0 0 0 0 0 0 127 0" result="hardAlpha"/>
<feOffset dy="4"/>
<feGaussianBlur stdDeviation="2"/>
<feComposite in2="hardAlpha" operator="out"/>
<feColorMatrix type="matrix" values="0 0 0 0 0 0 0 0 0 0 0 0 0 0 0 0 0 0 0.25 0"/>
<feBlend mode="normal" in2="BackgroundImageFix" result="effect1_dropShadow_137_8"/>
<feBlend mode="normal" in="SourceGraphic" in2="effect1_dropShadow_137_8" result="shape"/>
</filter>
</defs>
</svg>
